<svg width="1512" height="283" viewBox="0 0 1512 283" fill="none" xmlns="http://www.w3.org/2000/svg">
<g opacity="0.1">
<g opacity="0.3">
<path d="M132.74 225.048H197.674V91.1019H199.519V87.2729H195.492V82.3729H163.544V74.9269H151.338L149.515 70.0649H146.499V61.3779H145.826H145.154V70.0649H139.559V74.9269V80.5309V82.3729H134.923V87.2729H130.895V91.1019H132.74V225.048Z" fill="url(#paint0_linear_1138_2544)"/>
<path d="M147.034 60.1699C147.034 59.5019 146.493 58.9609 145.825 58.9609C145.158 58.9609 144.617 59.5019 144.617 60.1699C144.617 60.8369 145.158 61.3779 145.825 61.3779C146.493 61.3779 147.034 60.8369 147.034 60.1699Z" fill="url(#paint1_linear_1138_2544)"/>
<path d="M735.388 232.89V52.812L655.44 36.217L664.2 232.89H429.603V121.63H425.285V55.052H414.137V37.219H410.155V11.063H388.213V-8.16H386.261V11.063H381.963V-13H380.01V11.063H366.139V55.052H358.974V121.63H352.832V232.89H290.447V84.786H291.524V83.074H283.846V72.783H284.839V71.135H277.791V65.219H278.424V63.954H275.389V58.365H272.493H272.042V38.414H271.728H271.329H270.927V58.365H269.573V47.243H269.259H268.86H268.458V58.365H265.11V63.954H261.608V65.219H262.708V71.135H255.661V72.783H256.653V83.074H248.975V84.786H250.053V232.89H41.9893V253.089H891.247V232.89H735.388Z" fill="url(#paint2_linear_1138_2544)"/>
</g>
<path d="M875.977 251.072V232.889H850.417L840.743 161.318H839.291V152.72H834.209V161.318H832.95V158.102H829.393V161.318H822.024V153.822H819.991V148.613H805.508V153.822H803.475V161.318H801.442V204.304H788.568V95.236H784.333V71.316H782.978V95.236H779.759V62.055H778.404V95.236H775.609V77.275H774.254V95.236H749.269V172.654H721.489V222.808H695.545L674.944 184.836C678.417 182.836 681.682 180.431 684.679 177.643L688.904 182.151C687.997 182.944 687.423 184.108 687.423 185.407C687.423 187.795 689.359 189.731 691.747 189.731C694.135 189.731 696.071 187.795 696.071 185.407C696.071 183.019 694.135 181.083 691.747 181.083C690.831 181.083 689.983 181.368 689.284 181.854L685.029 177.314C685.389 176.973 685.746 176.627 686.098 176.275C690.556 171.816 694.126 166.707 696.721 161.161L701.426 163.333C701.34 163.672 701.295 164.026 701.295 164.392C701.295 166.78 703.231 168.716 705.619 168.716C708.007 168.716 709.943 166.78 709.943 164.392C709.943 162.004 708.007 160.068 705.619 160.068C703.767 160.068 702.187 161.233 701.571 162.871L696.923 160.725C699.789 154.452 701.412 147.633 701.667 140.572L706.732 140.737C706.794 143.071 708.704 144.944 711.053 144.944C713.441 144.944 715.377 143.008 715.377 140.62C715.377 138.232 713.441 136.296 711.053 136.296C708.787 136.296 706.93 138.039 706.745 140.257L701.681 140.092C701.694 139.596 701.702 139.099 701.702 138.601C701.702 132.298 700.614 126.163 698.529 120.409L702.76 118.851C703.424 120.384 704.951 121.457 706.728 121.457C709.116 121.457 711.052 119.521 711.052 117.133C711.052 114.745 709.116 112.809 706.728 112.809C704.34 112.809 702.404 114.745 702.404 117.133C702.404 117.573 702.47 117.999 702.593 118.4L698.364 119.957C695.954 113.493 692.279 107.52 687.466 102.346L690.776 99.244C691.552 99.985 692.603 100.441 693.761 100.441C696.149 100.441 698.085 98.5061 698.085 96.1171C698.085 93.7291 696.149 91.793 693.761 91.793C691.373 91.793 689.437 93.7291 689.437 96.1171C689.437 97.1741 689.817 98.1421 690.447 98.8931L687.137 101.995C686.796 101.635 686.45 101.278 686.098 100.926C681.086 95.913 675.25 92.0231 668.897 89.3801L670.718 84.946C671.131 85.077 671.571 85.149 672.027 85.149C674.415 85.149 676.351 83.213 676.351 80.825C676.351 78.437 674.415 76.501 672.027 76.501C669.639 76.501 667.703 78.437 667.703 80.825C667.703 82.587 668.757 84.101 670.269 84.775L668.453 89.198C662.768 86.894 656.678 85.583 650.396 85.356L650.593 79.296C650.639 79.297 650.684 79.299 650.73 79.299C653.118 79.299 655.054 77.363 655.054 74.975C655.054 72.587 653.118 70.651 650.73 70.651C648.342 70.651 646.406 72.587 646.406 74.975C646.406 77.154 648.017 78.955 650.113 79.254L649.915 85.34C649.419 85.326 648.922 85.319 648.424 85.319C642.376 85.319 636.482 86.32 630.931 88.244L629.188 83.298C630.761 82.651 631.868 81.105 631.868 79.298C631.868 76.91 629.932 74.974 627.544 74.974C625.156 74.974 623.22 76.91 623.22 79.298C623.22 81.686 625.156 83.622 627.544 83.622C627.957 83.622 628.356 83.563 628.734 83.455L630.478 88.403C623.746 90.804 617.53 94.569 612.17 99.555L609.01 96.183C609.717 95.413 610.149 94.3871 610.149 93.2601C610.149 90.8721 608.213 88.9361 605.825 88.9361C603.437 88.9361 601.501 90.8711 601.501 93.2601C601.501 95.6481 603.437 97.584 605.825 97.584C606.913 97.584 607.906 97.182 608.666 96.519L611.82 99.8851C611.46 100.226 611.103 100.573 610.751 100.925C606.293 105.383 602.723 110.493 600.128 116.039L596.113 114.185C596.259 113.752 596.338 113.289 596.338 112.808C596.338 110.42 594.402 108.484 592.014 108.484C589.626 108.484 587.69 110.42 587.69 112.808C587.69 115.196 589.626 117.132 592.014 117.132C593.75 117.132 595.246 116.109 595.934 114.632L599.926 116.475C597.061 122.748 595.437 129.568 595.182 136.628L590.028 136.461C589.964 134.128 588.055 132.257 585.707 132.257C583.319 132.257 581.383 134.193 581.383 136.581C581.383 138.969 583.319 140.905 585.707 140.905C587.974 140.905 589.832 139.161 590.015 136.942L595.168 137.109C595.155 137.605 595.147 138.102 595.147 138.6C595.147 144.902 596.235 151.038 598.32 156.791L594.089 158.349C593.425 156.816 591.898 155.743 590.12 155.743C587.732 155.743 585.796 157.679 585.796 160.067C585.796 162.455 587.732 164.391 590.12 164.391C592.508 164.391 594.444 162.455 594.444 160.067C594.444 159.627 594.378 159.201 594.255 158.801L598.484 157.244C600.893 163.708 604.568 169.68 609.382 174.855L606.072 177.957C605.296 177.216 604.245 176.76 603.087 176.76C600.699 176.76 598.763 178.695 598.763 181.084C598.763 183.472 600.699 185.408 603.087 185.408C605.475 185.408 607.411 183.472 607.411 181.084C607.411 180.027 607.031 179.059 606.401 178.308L609.712 175.206C610.053 175.566 610.399 175.923 610.751 176.275C614.127 179.65 617.876 182.517 621.905 184.836L601.304 222.808H584.619V197.065H577.818V148.183H580.463V147.12H522.019V148.183H524.664V172.835H518.935L513.468 200.931V108.788H511.069V75.418H498.994V62.713H492.534V52.042H490.267V33.748H489.681V52.042H487.414V62.7141H480.954V75.419H468.972V108.789H466.481V169.372H447.902V222.808H386.263V119.486H391.217V117.86H386.263V114.949H379.984V110.168H328.63V114.949H322.351V117.86H317.397V119.486H322.351V183.805H313.951V171.736H262.132V186.473H250.834V213.915H232.54V124.222H226.442V118.123H221.614V101.989H220.597V118.123H218.31V97.923H217.294V118.123H214.483V124.222H212.974V213.915H175.115V161.318H176.894V157.761H165.206V148.106H159.616V157.761H154.534V148.106H149.452V157.761H139.567V148.106H109.306V157.761H102.24V161.318H106.257V181.137H95.0766V225.857H79.7306V213.915H62.6466V239.959H41.9886V251.072H11.5186V282.921H903.201V251.072H875.977ZM674.258 183.568L667.123 170.416C669.41 169.067 671.54 167.478 673.477 165.685L683.696 176.591C680.79 179.294 677.624 181.627 674.258 183.568ZM647.549 141.372C647.724 141.427 647.906 141.466 648.093 141.488L647.011 174.762C642.745 174.597 638.667 173.691 634.901 172.168L647.549 141.372ZM634.457 171.986C633.239 171.474 632.055 170.897 630.909 170.26L646.784 140.999C646.886 141.069 646.993 141.132 647.104 141.189L634.457 171.986ZM648.573 141.504C648.776 141.494 648.974 141.463 649.164 141.413L660.231 172.813C656.53 174.094 652.558 174.791 648.427 174.791C648.114 174.791 647.802 174.787 647.491 174.779L648.573 141.504ZM649.616 141.253C649.775 141.181 649.927 141.096 650.069 140.999L665.944 170.26C664.267 171.192 662.509 171.994 660.683 172.654L649.616 141.253ZM652.288 143.071L672.985 165.159C671.092 166.91 669.012 168.462 666.779 169.782L652.288 143.071ZM651.382 141.403L650.784 140.3C650.846 140.214 650.903 140.124 650.956 140.032L681.18 153.984C679.25 158.075 676.578 161.75 673.336 164.831L651.382 141.403ZM651.159 139.597C651.236 139.387 651.288 139.165 651.315 138.935L684.589 140.017C684.403 144.826 683.276 149.397 681.385 153.551L651.159 139.597ZM651.33 138.455C651.319 138.238 651.284 138.027 651.228 137.825L682.472 126.322C683.86 130.158 684.618 134.293 684.618 138.601C684.618 138.914 684.614 139.225 684.606 139.537L651.33 138.455ZM651.063 137.374C650.966 137.167 650.846 136.973 650.705 136.795L674.986 114.043C678.136 117.447 680.64 121.454 682.305 125.871L651.063 137.374ZM650.377 136.444C650.189 136.274 649.978 136.129 649.75 136.011L662.397 105.214C667.058 107.172 671.227 110.078 674.658 113.691L650.377 136.444ZM649.305 135.829C649.13 135.774 648.948 135.735 648.761 135.713L649.843 102.44C654.108 102.604 658.187 103.511 661.953 105.034L649.305 135.829ZM648.281 135.697C648.078 135.707 647.88 135.738 647.69 135.787L636.623 104.387C640.324 103.106 644.295 102.409 648.427 102.409C648.74 102.409 649.052 102.413 649.363 102.421L648.281 135.697ZM647.238 135.948C647.017 136.047 646.81 136.174 646.622 136.323L623.869 112.042C627.394 108.781 631.566 106.21 636.17 104.548L647.238 135.948ZM646.271 136.65C646.128 136.808 646.003 136.982 645.898 137.168L615.674 123.215C617.603 119.124 620.276 115.449 623.519 112.368L646.271 136.65ZM645.695 137.604C645.618 137.815 645.566 138.036 645.539 138.266L612.265 137.184C612.451 132.375 613.578 127.804 615.469 123.65L645.695 137.604ZM645.524 138.747C645.535 138.964 645.57 139.174 645.626 139.376L614.382 150.879C612.994 147.043 612.236 142.909 612.236 138.6C612.236 138.287 612.24 137.975 612.248 137.664L645.524 138.747ZM645.791 139.827C645.869 139.995 645.962 140.153 646.07 140.301L645.872 140.666L621.868 163.158C618.718 159.754 616.214 155.747 614.549 151.33L645.791 139.827ZM645.145 142.004L630.075 169.781C627.163 168.061 624.511 165.946 622.195 163.509L645.145 142.004ZM630.565 170.893C631.734 171.542 632.941 172.131 634.183 172.652L628.502 186.485C626.77 185.764 625.078 184.948 623.432 184.04L630.565 170.893ZM634.628 172.835C638.471 174.39 642.634 175.314 646.988 175.482L646.503 190.402C640.396 190.181 634.475 188.906 628.948 186.667L634.628 172.835ZM647.468 175.5C647.787 175.508 648.106 175.513 648.427 175.513C652.642 175.513 656.694 174.801 660.47 173.493L665.44 187.594C660.041 189.464 654.309 190.438 648.427 190.438C647.945 190.438 647.463 190.431 646.983 190.417L647.468 175.5ZM660.924 173.333C662.786 172.661 664.579 171.843 666.289 170.893L673.422 184.041C671.005 185.374 668.489 186.509 665.894 187.435L660.924 173.333ZM685.081 175.254C684.74 175.595 684.395 175.93 684.046 176.261L673.829 165.357C677.139 162.213 679.867 158.462 681.836 154.287L695.415 160.556C692.89 165.949 689.417 170.919 685.081 175.254ZM695.616 160.12L682.038 153.852C683.969 149.613 685.119 144.948 685.308 140.039L700.229 140.524C699.98 147.39 698.401 154.021 695.616 160.12ZM700.264 138.601C700.264 139.083 700.257 139.564 700.244 140.045L685.327 139.56C685.335 139.241 685.339 138.921 685.339 138.601C685.339 134.204 684.565 129.986 683.149 126.073L697.179 120.908C699.206 126.504 700.264 132.471 700.264 138.601ZM686.417 103.332C691.097 108.364 694.67 114.171 697.013 120.456L682.981 125.623C681.282 121.115 678.726 117.025 675.511 113.551L686.417 103.332ZM685.081 101.946C685.422 102.287 685.757 102.632 686.088 102.981L675.184 113.198C671.682 109.511 667.428 106.545 662.671 104.548L668.352 90.715C674.53 93.287 680.206 97.071 685.081 101.946ZM650.351 86.798C656.458 87.019 662.379 88.294 667.906 90.533L662.225 104.366C658.382 102.811 654.219 101.887 649.865 101.719L650.351 86.798ZM648.427 86.764C648.909 86.764 649.391 86.771 649.871 86.784L649.386 101.701C649.067 101.693 648.748 101.689 648.427 101.689C644.212 101.689 640.16 102.401 636.384 103.708L631.414 89.607C636.813 87.737 642.545 86.764 648.427 86.764ZM630.96 89.766L635.93 103.868C631.232 105.564 626.974 108.187 623.377 111.516L613.158 100.61C618.37 95.763 624.415 92.102 630.96 89.766ZM611.773 101.946C612.114 101.605 612.46 101.27 612.808 100.939L623.026 111.843C619.716 114.987 616.988 118.738 615.019 122.914L601.44 116.645C603.964 111.252 607.437 106.282 611.773 101.946ZM601.238 117.081L614.816 123.349C612.885 127.588 611.735 132.254 611.546 137.162L596.625 136.677C596.874 129.812 598.453 123.181 601.238 117.081ZM596.59 138.601C596.59 138.119 596.597 137.637 596.61 137.157L611.527 137.642C611.519 137.96 611.515 138.28 611.515 138.601C611.515 142.997 612.289 147.215 613.705 151.129L599.675 156.295C597.648 150.697 596.59 144.73 596.59 138.601ZM610.437 173.869C605.757 168.837 602.184 163.03 599.84 156.745L613.872 151.578C615.571 156.086 618.127 160.176 621.342 163.65L610.437 173.869ZM611.773 175.254C611.432 174.913 611.097 174.568 610.766 174.219L621.67 164.002C624.038 166.496 626.752 168.658 629.732 170.416L622.597 183.568C618.687 181.314 615.049 178.531 611.773 175.254ZM622.745 185.308C624.437 186.242 626.176 187.079 627.955 187.82L626.134 192.254C625.721 192.123 625.281 192.052 624.825 192.052C622.437 192.052 620.501 193.988 620.501 196.376C620.501 198.764 622.437 200.7 624.825 200.7C627.213 200.7 629.149 198.764 629.149 196.376C629.149 194.614 628.095 193.1 626.583 192.426L628.399 188.003C634.084 190.307 640.174 191.618 646.456 191.845L646.308 196.379C643.967 196.432 642.084 198.346 642.084 200.7C642.084 203.088 644.02 205.024 646.408 205.024C648.796 205.024 650.732 203.088 650.732 200.7C650.732 198.44 648.998 196.587 646.788 196.394L646.936 191.859C647.432 191.873 647.929 191.88 648.427 191.88C654.475 191.88 660.369 190.879 665.92 188.955L667.474 193.363C666.003 194.053 664.983 195.547 664.983 197.279C664.983 199.667 666.919 201.603 669.307 201.603C671.695 201.603 673.631 199.667 673.631 197.279C673.631 194.891 671.695 192.955 669.307 192.955C668.822 192.955 668.356 193.036 667.92 193.184L666.373 188.796C669.04 187.844 671.625 186.679 674.109 185.309L694.454 222.809H602.399L622.745 185.308Z" fill="#D5D5D5"/>
<path d="M774.543 118.043C774.543 117.376 774.089 116.835 773.529 116.835C772.969 116.835 772.515 117.376 772.515 118.043C772.515 118.711 772.969 119.251 773.529 119.251C774.089 119.252 774.543 118.711 774.543 118.043Z" fill="url(#paint3_linear_1138_2544)"/>
<path d="M885.103 264.913L878.809 222.808H865.935V187.869H867.527V184.708H861.277V171.099H860.514V184.708H856.195V173.559H855.433V184.708H829.394V187.869H831.173V258.76H801.444V227.006H784.514V148.975H786.062V145.147H782.681V140.246H778.79V138.404V132.801V127.939H774.094V119.252H773.529H772.964V127.939H770.433L768.903 132.801H758.657V140.246H731.84V145.147H728.459V148.975H730.008V199.745H707.57V249.629L682.672 238.597V190.179H686.69V186.622H679.623V176.966H649.363V186.622H639.477V176.966H634.395V186.622H629.314V176.966H623.724V186.622H612.036V190.179H613.814V257.289H602.464V256.585H600.41V237.461H602.464V235.927H600.41V216.802H602.464V215.269H600.41V196.144H602.464V194.611H600.41V175.486H602.464V173.952H600.41V154.828H602.464V153.294H600.41V133.502H603.93V131.963H605.72V127.767H572.294V123.101H573.381V121.753H555.183V123.101H556.27V127.767H547.986V131.963H549.777V133.502H553.297V153.294H551.242V154.828H553.297V173.952H551.242V175.486H553.297V194.611H551.242V196.144H553.297V215.269H551.242V216.802H553.297V235.927H551.242V237.461H553.297V256.585H551.242V258.119H553.297V273.747H541.888V213.357H495.982V257.289H488.529V120.435H483.014V123.958L472.839 126.447V124.159H467.324V127.796L457.149 130.284V127.661H451.635V131.633L441.459 134.122V131.958H435.945V135.471L425.77 137.96V136.095H420.256V270.488H412.498V198.84H383.764V242.899H354.307V205.327H350.678V192.988H352.832V191.749H343.3V187.869H342.283V191.749H339.234V171.834H338.472V191.749H334.501V192.988H336.837V205.327H317.396V233.988H298.47L288.585 270.488H268.752V151.314H242.493V147.045H243.985V145.547H224.096V147.045H225.66V151.314V158.18V239.799H213.278V208.961H217.679V206.169H186.524V187.539H180.581V183.711H167.315V187.539H156.52V254.061H121.107V204.724H91.288V243.693H65.411V268.626H46.753V237.281H22.216V264.005H0V282.922H22.216H29.724H41.989H46.753H65.411H91.288H99.984H104.64H121.107H156.52H167.315H180.581H186.524H209.766H213.278H225.66H246.424H256.653H268.752H317.396H328.63H347.594H354.307H384.267H392.317H420.256H423.013H425.77H435.945H441.459H451.635H456.244H457.149H467.324H472.839H481.586H483.014H485.771H488.529H495.982H533.926H539.346H541.888H553.297H573.381H591.768H600.41H613.814H647.104H682.305H682.672H707.57H721.491H730.008H735.388H777.052H784.514H793.435H801.444H831.173H853.279H857.804H865.935H915.397V264.913H885.103Z" fill="url(#paint4_linear_1138_2544)"/>
</g>
<g opacity="0.1">
<g opacity="0.3">
<path d="M1042.74 224.048H1107.67V90.1019H1109.52V86.2729H1105.49V81.3729H1073.54V73.9269H1061.34L1059.51 69.0649H1056.5V60.3779H1055.83H1055.15V69.0649H1049.56V73.9269V79.5309V81.3729H1044.92V86.2729H1040.89V90.1019H1042.74V224.048Z" fill="url(#paint5_linear_1138_2544)"/>
<path d="M1057.03 59.1699C1057.03 58.5019 1056.49 57.9609 1055.83 57.9609C1055.16 57.9609 1054.62 58.5019 1054.62 59.1699C1054.62 59.8369 1055.16 60.3779 1055.83 60.3779C1056.49 60.3779 1057.03 59.8369 1057.03 59.1699Z" fill="url(#paint6_linear_1138_2544)"/>
<path d="M1645.39 231.89V51.812L1565.44 35.217L1574.2 231.89H1339.6V120.63H1335.29V54.052H1324.14V36.219H1320.16V10.063H1298.21V-9.16H1296.26V10.063H1291.96V-14H1290.01V10.063H1276.14V54.052H1268.97V120.63H1262.83V231.89H1200.45V83.786H1201.52V82.074H1193.85V71.783H1194.84V70.135H1187.79V64.219H1188.42V62.954H1185.39V57.365H1182.49H1182.04V37.414H1181.73H1181.33H1180.93V57.365H1179.57V46.243H1179.26H1178.86H1178.46V57.365H1175.11V62.954H1171.61V64.219H1172.71V70.135H1165.66V71.783H1166.65V82.074H1158.98V83.786H1160.05V231.89H951.989V252.089H1801.25V231.89H1645.39Z" fill="url(#paint7_linear_1138_2544)"/>
</g>
<path d="M1785.98 250.072V231.889H1760.42L1750.74 160.318H1749.29V151.72H1744.21V160.318H1742.95V157.102H1739.39V160.318H1732.02V152.822H1729.99V147.613H1715.51V152.822H1713.47V160.318H1711.44V203.304H1698.57V94.236H1694.33V70.316H1692.98V94.236H1689.76V61.055H1688.4V94.236H1685.61V76.275H1684.25V94.236H1659.27V171.654H1631.49V221.808H1605.54L1584.94 183.836C1588.42 181.836 1591.68 179.431 1594.68 176.643L1598.9 181.151C1598 181.944 1597.42 183.108 1597.42 184.407C1597.42 186.795 1599.36 188.731 1601.75 188.731C1604.13 188.731 1606.07 186.795 1606.07 184.407C1606.07 182.019 1604.13 180.083 1601.75 180.083C1600.83 180.083 1599.98 180.368 1599.28 180.854L1595.03 176.314C1595.39 175.973 1595.75 175.627 1596.1 175.275C1600.56 170.816 1604.13 165.707 1606.72 160.161L1611.43 162.333C1611.34 162.672 1611.29 163.026 1611.29 163.392C1611.29 165.78 1613.23 167.716 1615.62 167.716C1618.01 167.716 1619.94 165.78 1619.94 163.392C1619.94 161.004 1618.01 159.068 1615.62 159.068C1613.77 159.068 1612.19 160.233 1611.57 161.871L1606.92 159.725C1609.79 153.452 1611.41 146.633 1611.67 139.572L1616.73 139.737C1616.79 142.071 1618.7 143.944 1621.05 143.944C1623.44 143.944 1625.38 142.008 1625.38 139.62C1625.38 137.232 1623.44 135.296 1621.05 135.296C1618.79 135.296 1616.93 137.039 1616.74 139.257L1611.68 139.092C1611.69 138.596 1611.7 138.099 1611.7 137.601C1611.7 131.298 1610.61 125.163 1608.53 119.409L1612.76 117.851C1613.42 119.384 1614.95 120.457 1616.73 120.457C1619.12 120.457 1621.05 118.521 1621.05 116.133C1621.05 113.745 1619.12 111.809 1616.73 111.809C1614.34 111.809 1612.4 113.745 1612.4 116.133C1612.4 116.573 1612.47 116.999 1612.59 117.4L1608.36 118.957C1605.95 112.493 1602.28 106.52 1597.47 101.346L1600.78 98.244C1601.55 98.985 1602.6 99.4411 1603.76 99.4411C1606.15 99.4411 1608.08 97.5061 1608.08 95.1171C1608.08 92.7291 1606.15 90.793 1603.76 90.793C1601.37 90.793 1599.44 92.7291 1599.44 95.1171C1599.44 96.1741 1599.82 97.1421 1600.45 97.8931L1597.14 100.995C1596.8 100.635 1596.45 100.278 1596.1 99.926C1591.09 94.913 1585.25 91.0231 1578.9 88.3801L1580.72 83.946C1581.13 84.077 1581.57 84.149 1582.03 84.149C1584.41 84.149 1586.35 82.213 1586.35 79.825C1586.35 77.437 1584.41 75.501 1582.03 75.501C1579.64 75.501 1577.7 77.437 1577.7 79.825C1577.7 81.587 1578.76 83.101 1580.27 83.775L1578.45 88.198C1572.77 85.894 1566.68 84.583 1560.4 84.356L1560.59 78.296C1560.64 78.297 1560.68 78.299 1560.73 78.299C1563.12 78.299 1565.05 76.363 1565.05 73.975C1565.05 71.587 1563.12 69.651 1560.73 69.651C1558.34 69.651 1556.41 71.587 1556.41 73.975C1556.41 76.154 1558.02 77.955 1560.11 78.254L1559.91 84.34C1559.42 84.326 1558.92 84.319 1558.42 84.319C1552.38 84.319 1546.48 85.32 1540.93 87.244L1539.19 82.298C1540.76 81.651 1541.87 80.105 1541.87 78.298C1541.87 75.91 1539.93 73.974 1537.54 73.974C1535.16 73.974 1533.22 75.91 1533.22 78.298C1533.22 80.686 1535.16 82.622 1537.54 82.622C1537.96 82.622 1538.36 82.563 1538.73 82.455L1540.48 87.403C1533.75 89.804 1527.53 93.569 1522.17 98.555L1519.01 95.183C1519.72 94.413 1520.15 93.3871 1520.15 92.2601C1520.15 89.8721 1518.21 87.9361 1515.82 87.9361C1513.44 87.9361 1511.5 89.8711 1511.5 92.2601C1511.5 94.6481 1513.44 96.584 1515.82 96.584C1516.91 96.584 1517.91 96.182 1518.67 95.519L1521.82 98.8851C1521.46 99.2261 1521.1 99.573 1520.75 99.925C1516.29 104.383 1512.72 109.493 1510.13 115.039L1506.11 113.185C1506.26 112.752 1506.34 112.289 1506.34 111.808C1506.34 109.42 1504.4 107.484 1502.01 107.484C1499.63 107.484 1497.69 109.42 1497.69 111.808C1497.69 114.196 1499.63 116.132 1502.01 116.132C1503.75 116.132 1505.25 115.109 1505.93 113.632L1509.93 115.475C1507.06 121.748 1505.44 128.568 1505.18 135.628L1500.03 135.461C1499.96 133.128 1498.05 131.257 1495.71 131.257C1493.32 131.257 1491.38 133.193 1491.38 135.581C1491.38 137.969 1493.32 139.905 1495.71 139.905C1497.97 139.905 1499.83 138.161 1500.01 135.942L1505.17 136.109C1505.15 136.605 1505.15 137.102 1505.15 137.6C1505.15 143.902 1506.23 150.038 1508.32 155.791L1504.09 157.349C1503.42 155.816 1501.9 154.743 1500.12 154.743C1497.73 154.743 1495.8 156.679 1495.8 159.067C1495.8 161.455 1497.73 163.391 1500.12 163.391C1502.51 163.391 1504.44 161.455 1504.44 159.067C1504.44 158.627 1504.38 158.201 1504.25 157.801L1508.48 156.244C1510.89 162.708 1514.57 168.68 1519.38 173.855L1516.07 176.957C1515.3 176.216 1514.24 175.76 1513.09 175.76C1510.7 175.76 1508.76 177.695 1508.76 180.084C1508.76 182.472 1510.7 184.408 1513.09 184.408C1515.47 184.408 1517.41 182.472 1517.41 180.084C1517.41 179.027 1517.03 178.059 1516.4 177.308L1519.71 174.206C1520.05 174.566 1520.4 174.923 1520.75 175.275C1524.13 178.65 1527.88 181.517 1531.9 183.836L1511.3 221.808H1494.62V196.065H1487.82V147.183H1490.46V146.12H1432.02V147.183H1434.66V171.835H1428.93L1423.47 199.931V107.788H1421.07V74.418H1408.99V61.713H1402.53V51.042H1400.27V32.748H1399.68V51.042H1397.41V61.7141H1390.95V74.419H1378.97V107.789H1376.48V168.372H1357.9V221.808H1296.26V118.486H1301.22V116.86H1296.26V113.949H1289.98V109.168H1238.63V113.949H1232.35V116.86H1227.4V118.486H1232.35V182.805H1223.95V170.736H1172.13V185.473H1160.83V212.915H1142.54V123.222H1136.44V117.123H1131.61V100.989H1130.6V117.123H1128.31V96.923H1127.29V117.123H1124.48V123.222H1122.97V212.915H1085.11V160.318H1086.89V156.761H1075.21V147.106H1069.62V156.761H1064.53V147.106H1059.45V156.761H1049.57V147.106H1019.31V156.761H1012.24V160.318H1016.26V180.137H1005.08V224.857H989.731V212.915H972.647V238.959H951.989V250.072H921.519V281.921H1813.2V250.072H1785.98ZM1584.26 182.568L1577.12 169.416C1579.41 168.067 1581.54 166.478 1583.48 164.685L1593.7 175.591C1590.79 178.294 1587.62 180.627 1584.26 182.568ZM1557.55 140.372C1557.72 140.427 1557.91 140.466 1558.09 140.488L1557.01 173.762C1552.74 173.597 1548.67 172.691 1544.9 171.168L1557.55 140.372ZM1544.46 170.986C1543.24 170.474 1542.05 169.897 1540.91 169.26L1556.78 139.999C1556.89 140.069 1556.99 140.132 1557.1 140.189L1544.46 170.986ZM1558.57 140.504C1558.78 140.494 1558.97 140.463 1559.16 140.413L1570.23 171.813C1566.53 173.094 1562.56 173.791 1558.43 173.791C1558.11 173.791 1557.8 173.787 1557.49 173.779L1558.57 140.504ZM1559.62 140.253C1559.77 140.181 1559.93 140.096 1560.07 139.999L1575.94 169.26C1574.27 170.192 1572.51 170.994 1570.68 171.654L1559.62 140.253ZM1562.29 142.071L1582.98 164.159C1581.09 165.91 1579.01 167.462 1576.78 168.782L1562.29 142.071ZM1561.38 140.403L1560.78 139.3C1560.85 139.214 1560.9 139.124 1560.96 139.032L1591.18 152.984C1589.25 157.075 1586.58 160.75 1583.34 163.831L1561.38 140.403ZM1561.16 138.597C1561.24 138.387 1561.29 138.165 1561.31 137.935L1594.59 139.017C1594.4 143.826 1593.28 148.397 1591.38 152.551L1561.16 138.597ZM1561.33 137.455C1561.32 137.238 1561.28 137.027 1561.23 136.825L1592.47 125.322C1593.86 129.158 1594.62 133.293 1594.62 137.601C1594.62 137.914 1594.61 138.225 1594.61 138.537L1561.33 137.455ZM1561.06 136.374C1560.97 136.167 1560.85 135.973 1560.7 135.795L1584.99 113.043C1588.14 116.447 1590.64 120.454 1592.3 124.871L1561.06 136.374ZM1560.38 135.444C1560.19 135.274 1559.98 135.129 1559.75 135.011L1572.4 104.214C1577.06 106.172 1581.23 109.078 1584.66 112.691L1560.38 135.444ZM1559.3 134.829C1559.13 134.774 1558.95 134.735 1558.76 134.713L1559.84 101.44C1564.11 101.604 1568.19 102.511 1571.95 104.034L1559.3 134.829ZM1558.28 134.697C1558.08 134.707 1557.88 134.738 1557.69 134.787L1546.62 103.387C1550.32 102.106 1554.29 101.409 1558.43 101.409C1558.74 101.409 1559.05 101.413 1559.36 101.421L1558.28 134.697ZM1557.24 134.948C1557.02 135.047 1556.81 135.174 1556.62 135.323L1533.87 111.042C1537.39 107.781 1541.57 105.21 1546.17 103.548L1557.24 134.948ZM1556.27 135.65C1556.13 135.808 1556 135.982 1555.9 136.168L1525.67 122.215C1527.6 118.124 1530.28 114.449 1533.52 111.368L1556.27 135.65ZM1555.69 136.604C1555.62 136.815 1555.57 137.036 1555.54 137.266L1522.26 136.184C1522.45 131.375 1523.58 126.804 1525.47 122.65L1555.69 136.604ZM1555.52 137.747C1555.53 137.964 1555.57 138.174 1555.63 138.376L1524.38 149.879C1522.99 146.043 1522.24 141.909 1522.24 137.6C1522.24 137.287 1522.24 136.975 1522.25 136.664L1555.52 137.747ZM1555.79 138.827C1555.87 138.995 1555.96 139.153 1556.07 139.301L1555.87 139.666L1531.87 162.158C1528.72 158.754 1526.21 154.747 1524.55 150.33L1555.79 138.827ZM1555.14 141.004L1540.07 168.781C1537.16 167.061 1534.51 164.946 1532.19 162.509L1555.14 141.004ZM1540.56 169.893C1541.73 170.542 1542.94 171.131 1544.18 171.652L1538.5 185.485C1536.77 184.764 1535.08 183.948 1533.43 183.04L1540.56 169.893ZM1544.63 171.835C1548.47 173.39 1552.63 174.314 1556.99 174.482L1556.5 189.402C1550.4 189.181 1544.47 187.906 1538.95 185.667L1544.63 171.835ZM1557.47 174.5C1557.79 174.508 1558.11 174.513 1558.43 174.513C1562.64 174.513 1566.69 173.801 1570.47 172.493L1575.44 186.594C1570.04 188.464 1564.31 189.438 1558.43 189.438C1557.94 189.438 1557.46 189.431 1556.98 189.417L1557.47 174.5ZM1570.92 172.333C1572.79 171.661 1574.58 170.843 1576.29 169.893L1583.42 183.041C1581 184.374 1578.49 185.509 1575.89 186.435L1570.92 172.333ZM1595.08 174.254C1594.74 174.595 1594.39 174.93 1594.05 175.261L1583.83 164.357C1587.14 161.213 1589.87 157.462 1591.84 153.287L1605.41 159.556C1602.89 164.949 1599.42 169.919 1595.08 174.254ZM1605.62 159.12L1592.04 152.852C1593.97 148.613 1595.12 143.948 1595.31 139.039L1610.23 139.524C1609.98 146.39 1608.4 153.021 1605.62 159.12ZM1610.26 137.601C1610.26 138.083 1610.26 138.564 1610.24 139.045L1595.33 138.56C1595.33 138.241 1595.34 137.921 1595.34 137.601C1595.34 133.204 1594.56 128.986 1593.15 125.073L1607.18 119.908C1609.21 125.504 1610.26 131.471 1610.26 137.601ZM1596.42 102.332C1601.1 107.364 1604.67 113.171 1607.01 119.456L1592.98 124.623C1591.28 120.115 1588.73 116.025 1585.51 112.551L1596.42 102.332ZM1595.08 100.946C1595.42 101.287 1595.76 101.632 1596.09 101.981L1585.18 112.198C1581.68 108.511 1577.43 105.545 1572.67 103.548L1578.35 89.715C1584.53 92.287 1590.21 96.071 1595.08 100.946ZM1560.35 85.798C1566.46 86.019 1572.38 87.294 1577.91 89.533L1572.22 103.366C1568.38 101.811 1564.22 100.887 1559.86 100.719L1560.35 85.798ZM1558.43 85.764C1558.91 85.764 1559.39 85.771 1559.87 85.784L1559.39 100.701C1559.07 100.693 1558.75 100.689 1558.43 100.689C1554.21 100.689 1550.16 101.401 1546.38 102.708L1541.41 88.607C1546.81 86.737 1552.54 85.764 1558.43 85.764ZM1540.96 88.766L1545.93 102.868C1541.23 104.564 1536.97 107.187 1533.38 110.516L1523.16 99.61C1528.37 94.763 1534.41 91.102 1540.96 88.766ZM1521.77 100.946C1522.11 100.605 1522.46 100.27 1522.81 99.939L1533.03 110.843C1529.72 113.987 1526.99 117.738 1525.02 121.914L1511.44 115.645C1513.96 110.252 1517.44 105.282 1521.77 100.946ZM1511.24 116.081L1524.82 122.349C1522.88 126.588 1521.73 131.254 1521.55 136.162L1506.62 135.677C1506.87 128.812 1508.45 122.181 1511.24 116.081ZM1506.59 137.601C1506.59 137.119 1506.6 136.637 1506.61 136.157L1521.53 136.642C1521.52 136.96 1521.51 137.28 1521.51 137.601C1521.51 141.997 1522.29 146.215 1523.7 150.129L1509.67 155.295C1507.65 149.697 1506.59 143.73 1506.59 137.601ZM1520.44 172.869C1515.76 167.837 1512.18 162.03 1509.84 155.745L1523.87 150.578C1525.57 155.086 1528.13 159.176 1531.34 162.65L1520.44 172.869ZM1521.77 174.254C1521.43 173.913 1521.1 173.568 1520.77 173.219L1531.67 163.002C1534.04 165.496 1536.75 167.658 1539.73 169.416L1532.6 182.568C1528.69 180.314 1525.05 177.531 1521.77 174.254ZM1532.74 184.308C1534.44 185.242 1536.18 186.079 1537.95 186.82L1536.13 191.254C1535.72 191.123 1535.28 191.052 1534.82 191.052C1532.44 191.052 1530.5 192.988 1530.5 195.376C1530.5 197.764 1532.44 199.7 1534.82 199.7C1537.21 199.7 1539.15 197.764 1539.15 195.376C1539.15 193.614 1538.09 192.1 1536.58 191.426L1538.4 187.003C1544.08 189.307 1550.17 190.618 1556.46 190.845L1556.31 195.379C1553.97 195.432 1552.08 197.346 1552.08 199.7C1552.08 202.088 1554.02 204.024 1556.41 204.024C1558.8 204.024 1560.73 202.088 1560.73 199.7C1560.73 197.44 1559 195.587 1556.79 195.394L1556.94 190.859C1557.43 190.873 1557.93 190.88 1558.43 190.88C1564.47 190.88 1570.37 189.879 1575.92 187.955L1577.47 192.363C1576 193.053 1574.98 194.547 1574.98 196.279C1574.98 198.667 1576.92 200.603 1579.31 200.603C1581.69 200.603 1583.63 198.667 1583.63 196.279C1583.63 193.891 1581.69 191.955 1579.31 191.955C1578.82 191.955 1578.36 192.036 1577.92 192.184L1576.37 187.796C1579.04 186.844 1581.62 185.679 1584.11 184.309L1604.45 221.809H1512.4L1532.74 184.308Z" fill="#D5D5D5"/>
<path d="M1795.1 263.913L1788.81 221.808H1775.93V186.869H1777.53V183.708H1771.28V170.099H1770.51V183.708H1766.19V172.559H1765.43V183.708H1739.39V186.869H1741.17V257.76H1711.44V226.006H1694.51V147.975H1696.06V144.147H1692.68V139.246H1688.79V137.404V131.801V126.939H1684.09V118.252H1683.53H1682.96V126.939H1680.43L1678.9 131.801H1668.66V139.246H1641.84V144.147H1638.46V147.975H1640.01V198.745H1617.57V248.629L1592.67 237.597V189.179H1596.69V185.622H1589.62V175.966H1559.36V185.622H1549.48V175.966H1544.39V185.622H1539.31V175.966H1533.72V185.622H1522.04V189.179H1523.81V256.289H1512.46V255.585H1510.41V236.461H1512.46V234.927H1510.41V215.802H1512.46V214.269H1510.41V195.144H1512.46V193.611H1510.41V174.486H1512.46V172.952H1510.41V153.828H1512.46V152.294H1510.41V132.502H1513.93V130.963H1515.72V126.767H1482.29V122.101H1483.38V120.753H1465.18V122.101H1466.27V126.767H1457.99V130.963H1459.78V132.502H1463.3V152.294H1461.24V153.828H1463.3V172.952H1461.24V174.486H1463.3V193.611H1461.24V195.144H1463.3V214.269H1461.24V215.802H1463.3V234.927H1461.24V236.461H1463.3V255.585H1461.24V257.119H1463.3V272.747H1451.89V212.357H1405.98V256.289H1398.53V119.435H1393.01V122.958L1382.84 125.447V123.159H1377.32V126.796L1367.15 129.284V126.661H1361.64V130.633L1351.46 133.122V130.958H1345.95V134.471L1335.77 136.96V135.095H1330.26V269.488H1322.5V197.84H1293.76V241.899H1264.31V204.327H1260.68V191.988H1262.83V190.749H1253.3V186.869H1252.28V190.749H1249.23V170.834H1248.47V190.749H1244.5V191.988H1246.84V204.327H1227.4V232.988H1208.47L1198.58 269.488H1178.75V150.314H1152.49V146.045H1153.99V144.547H1134.1V146.045H1135.66V150.314V157.18V238.799H1123.28V207.961H1127.68V205.169H1096.52V186.539H1090.58V182.711H1077.32V186.539H1066.52V253.061H1031.11V203.724H1001.29V242.693H975.411V267.626H956.753V236.281H932.216V263.005H910V281.922H932.216H939.724H951.989H956.753H975.411H1001.29H1009.98H1014.64H1031.11H1066.52H1077.32H1090.58H1096.52H1119.77H1123.28H1135.66H1156.42H1166.65H1178.75H1227.4H1238.63H1257.59H1264.31H1294.27H1302.32H1330.26H1333.01H1335.77H1345.95H1351.46H1361.64H1366.24H1367.15H1377.32H1382.84H1391.59H1393.01H1395.77H1398.53H1405.98H1443.93H1449.35H1451.89H1463.3H1483.38H1501.77H1510.41H1523.81H1557.1H1592.3H1592.67H1617.57H1631.49H1640.01H1645.39H1687.05H1694.51H1703.43H1711.44H1741.17H1763.28H1767.8H1775.93H1825.4V263.913H1795.1Z" fill="url(#paint8_linear_1138_2544)"/>
</g>
<defs>
<linearGradient id="paint0_linear_1138_2544" x1="165.207" y1="225.048" x2="165.207" y2="61.378" gradientUnits="userSpaceOnUse">
<stop stop-color="#403E40"/>
<stop offset="0.1275" stop-color="#4E4D4E"/>
<stop offset="0.3124" stop-color="#5A5A5A"/>
<stop offset="0.5479" stop-color="#626262"/>
<stop offset="1" stop-color="#646464"/>
</linearGradient>
<linearGradient id="paint1_linear_1138_2544" x1="145.826" y1="61.378" x2="145.826" y2="58.961" gradientUnits="userSpaceOnUse">
<stop stop-color="#403E40"/>
<stop offset="0.1275" stop-color="#4E4D4E"/>
<stop offset="0.3124" stop-color="#5A5A5A"/>
<stop offset="0.5479" stop-color="#626262"/>
<stop offset="1" stop-color="#646464"/>
</linearGradient>
<linearGradient id="paint2_linear_1138_2544" x1="466.619" y1="253.088" x2="466.619" y2="-13.0004" gradientUnits="userSpaceOnUse">
<stop stop-color="#403E40"/>
<stop offset="0.1275" stop-color="#4E4D4E"/>
<stop offset="0.3124" stop-color="#5A5A5A"/>
<stop offset="0.5479" stop-color="#626262"/>
<stop offset="1" stop-color="#646464"/>
</linearGradient>
<linearGradient id="paint3_linear_1138_2544" x1="773.529" y1="116.835" x2="773.529" y2="119.252" gradientUnits="userSpaceOnUse">
<stop stop-color="white"/>
<stop offset="1" stop-color="#727272"/>
</linearGradient>
<linearGradient id="paint4_linear_1138_2544" x1="457.699" y1="119.252" x2="457.699" y2="282.921" gradientUnits="userSpaceOnUse">
<stop stop-color="white"/>
<stop offset="1" stop-color="#7A7A7A"/>
</linearGradient>
<linearGradient id="paint5_linear_1138_2544" x1="1075.21" y1="224.048" x2="1075.21" y2="60.378" gradientUnits="userSpaceOnUse">
<stop stop-color="#403E40"/>
<stop offset="0.1275" stop-color="#4E4D4E"/>
<stop offset="0.3124" stop-color="#5A5A5A"/>
<stop offset="0.5479" stop-color="#626262"/>
<stop offset="1" stop-color="#646464"/>
</linearGradient>
<linearGradient id="paint6_linear_1138_2544" x1="1055.83" y1="60.378" x2="1055.83" y2="57.961" gradientUnits="userSpaceOnUse">
<stop stop-color="#403E40"/>
<stop offset="0.1275" stop-color="#4E4D4E"/>
<stop offset="0.3124" stop-color="#5A5A5A"/>
<stop offset="0.5479" stop-color="#626262"/>
<stop offset="1" stop-color="#646464"/>
</linearGradient>
<linearGradient id="paint7_linear_1138_2544" x1="1376.62" y1="252.088" x2="1376.62" y2="-14.0004" gradientUnits="userSpaceOnUse">
<stop stop-color="#403E40"/>
<stop offset="0.1275" stop-color="#4E4D4E"/>
<stop offset="0.3124" stop-color="#5A5A5A"/>
<stop offset="0.5479" stop-color="#626262"/>
<stop offset="1" stop-color="#646464"/>
</linearGradient>
<linearGradient id="paint8_linear_1138_2544" x1="1367.7" y1="118.252" x2="1367.7" y2="281.921" gradientUnits="userSpaceOnUse">
<stop stop-color="white"/>
<stop offset="1" stop-color="#7A7A7A"/>
</linearGradient>
</defs>
</svg>
