<svg width="692" height="242" viewBox="0 0 692 242" fill="none" xmlns="http://www.w3.org/2000/svg">
<rect width="692" height="242" rx="10" fill="black" fill-opacity="0.27"/>
<g clip-path="url(#clip0_1926_351)">
<g filter="url(#filter0_d_1926_351)">
<path d="M68.2504 59.894C68.6926 59.896 69.1348 59.898 69.5905 59.9C70.3413 59.9001 70.3413 59.9001 71.1074 59.9002C71.6497 59.9047 72.192 59.9093 72.7507 59.9139C73.3044 59.9152 73.8582 59.9164 74.4287 59.9177C76.2031 59.9227 77.9774 59.9337 79.7518 59.9449C80.9524 59.9493 82.153 59.9533 83.3536 59.957C86.3018 59.9667 89.25 59.9814 92.1982 60C92.2582 60.2698 92.3182 60.5397 92.38 60.8177C92.5 61.3506 92.5 61.3506 92.6224 61.8942C92.7406 62.4216 92.7406 62.4216 92.8611 62.9597C93.1656 64.1999 93.5944 65.3644 94.0737 66.5508C94.6081 67.8769 94.9262 68.6969 94.9262 70.1289C95.2262 70.2742 95.5263 70.4196 95.8355 70.5693C96.1747 71.5481 96.1747 71.5481 96.4891 72.7988C96.9034 74.3733 97.3507 75.8839 97.9667 77.3953C98.5635 78.9367 98.5635 78.9367 98.5635 80.2579C98.8635 80.4032 99.1636 80.5485 99.4728 80.6983C99.812 81.6306 99.812 81.6306 100.126 82.8452C100.242 83.2789 100.358 83.7126 100.478 84.1594C100.717 85.0815 100.956 86.0036 101.196 86.9256C101.312 87.3594 101.428 87.7931 101.547 88.2399C101.651 88.6407 101.755 89.0415 101.862 89.4544C102.105 90.4679 102.105 90.4679 103.11 90.8272C103.401 91.6667 103.401 91.6667 103.678 92.809C104.379 95.4813 105.315 98.0418 106.301 100.625C106.806 101.967 107.202 103.039 107.202 104.479C107.502 104.625 107.802 104.77 108.111 104.92C108.451 105.899 108.451 105.899 108.765 107.149C109.179 108.724 109.627 110.234 110.243 111.746C110.839 113.287 110.839 113.287 110.839 114.608C111.139 114.754 111.44 114.899 111.749 115.049C112.088 115.996 112.088 115.996 112.402 117.223C113.023 119.612 113.742 121.925 114.477 124.297C129.331 124.297 144.184 124.297 159.488 124.297C159.488 121.826 159.488 119.356 159.488 116.81C161.635 117.226 162.721 117.71 164.546 118.792C166.489 119.94 166.489 119.94 168.582 120.774C169.341 121.359 170.099 121.946 170.855 122.535C171.738 123.065 172.632 123.578 173.535 124.075C174.045 124.357 174.554 124.64 175.079 124.931C175.613 125.224 176.147 125.517 176.68 125.811C178.683 126.915 180.681 128.025 182.676 129.141C183.263 129.464 183.263 129.464 183.861 129.793C184.703 130.273 185.513 130.802 186.313 131.343C186.313 131.779 186.313 132.215 186.313 132.664C185.865 132.908 185.416 133.152 184.953 133.404C184.365 133.726 183.776 134.048 183.188 134.371C182.892 134.531 182.596 134.692 182.291 134.858C181.083 135.521 180.025 136.113 179.039 137.068C177.675 137.949 177.675 137.949 176.311 138.389C176.011 138.68 175.711 138.971 175.402 139.27C174.951 139.415 174.501 139.561 174.038 139.71C172.967 140.266 171.909 140.833 170.855 141.417C170.569 141.572 170.283 141.727 169.988 141.887C168.358 142.785 168.358 142.785 166.933 143.953C166.076 144.778 165.164 145.032 164.035 145.435C163.226 145.813 162.421 146.198 161.62 146.592C161.017 146.886 161.017 146.886 160.403 147.187C160.101 147.335 159.799 147.484 159.488 147.637C158.201 145.143 159.319 142.054 159.488 139.27C146.435 139.27 133.382 139.27 119.933 139.27C120.683 141.159 121.433 143.049 122.206 144.995C122.206 145.431 122.206 145.867 122.206 146.316C122.506 146.462 122.806 146.607 123.115 146.757C123.486 147.782 123.486 147.782 123.826 149.069C123.939 149.489 124.052 149.909 124.168 150.342C124.372 151.166 124.547 151.997 124.691 152.833C124.771 153.153 124.851 153.473 124.934 153.803C125.234 153.948 125.534 154.094 125.843 154.243C126.182 155.176 126.182 155.176 126.497 156.39C126.613 156.824 126.729 157.258 126.848 157.704C127.088 158.627 127.327 159.549 127.566 160.471C127.682 160.904 127.798 161.338 127.918 161.785C128.021 162.186 128.125 162.587 128.232 162.999C128.475 164.013 128.475 164.013 129.481 164.372C129.666 165.395 129.819 166.423 129.935 167.455C128.896 167.958 128.324 167.949 127.17 167.945C126.596 167.945 126.596 167.945 126.011 167.945C125.392 167.942 125.392 167.942 124.76 167.938C124.337 167.938 123.915 167.937 123.479 167.936C122.127 167.934 120.774 167.928 119.421 167.923C118.505 167.921 117.589 167.919 116.674 167.917C114.426 167.912 112.178 167.904 109.93 167.895C109.733 167.473 109.733 167.473 109.532 167.042C109.099 166.067 109.099 166.067 108.111 165.693C107.96 164.666 107.808 163.638 107.657 162.611C107.357 162.465 107.057 162.32 106.747 162.17C106.897 161.88 107.047 161.589 107.202 161.289C106.902 161.144 106.602 160.999 106.293 160.849C105.996 160.09 105.996 160.09 105.716 159.06C105.123 157.031 104.438 155.044 103.702 153.06C103.592 152.763 103.482 152.466 103.369 152.16C102.91 150.923 102.45 149.687 101.989 148.45C101.65 147.538 101.311 146.624 100.974 145.711C100.773 145.171 100.572 144.632 100.365 144.076C99.9275 142.793 99.9275 142.793 99.9275 141.912C99.6274 141.767 99.3273 141.622 99.0181 141.472C99.0181 140.745 99.0181 140.019 99.0181 139.27C78.9879 139.488 78.9879 139.488 58.5531 139.71C56.4103 146.369 56.4103 146.369 54.269 153.029C53.4296 155.637 52.583 158.244 51.7332 160.849C51.6136 161.218 51.494 161.586 51.3708 161.966C51.0615 162.915 50.7475 163.863 50.4313 164.811C50.2629 165.32 50.0946 165.829 49.9211 166.353C49.4598 167.455 49.4598 167.455 48.5505 167.895C47.9329 167.935 47.3133 167.947 46.6943 167.945C46.121 167.945 46.121 167.945 45.536 167.945C44.9165 167.942 44.9165 167.942 44.2845 167.938C43.8619 167.938 43.4394 167.937 43.004 167.936C41.6512 167.934 40.2985 167.928 38.9458 167.923C38.0299 167.921 37.1141 167.919 36.1982 167.917C33.9504 167.912 31.7025 167.904 29.4547 167.895C29.1831 166.679 29 165.623 29 164.372C29.3001 164.372 29.6002 164.372 29.9093 164.372C29.7593 163.936 29.6092 163.5 29.4547 163.051C29.7547 163.051 30.0548 163.051 30.364 163.051C30.4519 162.643 30.5398 162.235 30.6304 161.814C30.7488 161.287 30.8672 160.759 30.9892 160.216C31.1052 159.69 31.2212 159.164 31.3408 158.621C31.4686 158.194 31.5963 157.766 31.728 157.326C32.0281 157.181 32.3281 157.035 32.6373 156.886C32.892 156.106 32.892 156.106 33.0458 155.162C33.5383 152.805 34.3415 150.607 35.1948 148.353C35.4868 147.58 35.777 146.806 36.065 146.031C36.1926 145.694 36.3201 145.357 36.4515 145.01C36.7947 144.059 36.7947 144.059 36.7293 142.793C37.0294 142.793 37.3294 142.793 37.6386 142.793C37.686 142.509 37.7335 142.224 37.7823 141.932C38.1939 140.157 38.8097 138.476 39.4306 136.762C39.6985 136.012 39.9664 135.263 40.2343 134.513C40.6567 133.337 41.0798 132.161 41.5036 130.985C41.9131 129.847 42.3201 128.708 42.7269 127.569C42.8548 127.216 42.9826 126.864 43.1144 126.501C43.6033 125.129 44.0039 123.997 44.0039 122.535C44.304 122.535 44.604 122.535 44.9132 122.535C45.0633 121.227 45.2133 119.919 45.3679 118.572C45.668 118.572 45.968 118.572 46.2772 118.572C46.3651 118.164 46.453 117.755 46.5436 117.335C46.662 116.807 46.7804 116.28 46.9024 115.737C47.0764 114.947 47.0764 114.947 47.254 114.142C47.4457 113.501 47.4457 113.501 47.6412 112.847C47.9413 112.701 48.2413 112.556 48.5505 112.406C48.4005 111.97 48.2504 111.534 48.0959 111.085C48.3959 111.085 48.696 111.085 49.0052 111.085C49.0736 110.82 49.1421 110.554 49.2126 110.281C50.3352 106.106 51.8293 102.068 53.3086 98.0029C53.649 97.0658 53.9868 96.1278 54.3244 95.1898C54.4295 94.9036 54.5346 94.6173 54.6429 94.3224C55.0852 93.0915 55.3705 92.1422 55.3705 90.8272C55.6705 90.8272 55.9706 90.8272 56.2798 90.8272C56.3509 90.2901 56.3509 90.2901 56.4235 89.742C56.7946 87.8835 57.4061 86.1847 58.0718 84.4089C58.2676 83.8767 58.2676 83.8767 58.4674 83.3337C58.8822 82.2068 59.2998 81.0808 59.7182 79.9551C60.2706 78.4679 60.8202 76.9798 61.3681 75.491C61.496 75.1497 61.6238 74.8084 61.7556 74.4567C62.2523 73.1067 62.6451 72.014 62.6451 70.5693C62.9452 70.5693 63.2452 70.5693 63.5544 70.5693C63.7044 69.2613 63.8545 67.9534 64.0091 66.6058C64.3091 66.6058 64.6092 66.6058 64.9184 66.6058C65.0063 66.2027 65.0942 65.7997 65.1848 65.3844C65.3032 64.861 65.4216 64.3376 65.5436 63.7983C65.7176 63.0166 65.7176 63.0166 65.8952 62.2191C66.3372 60.6912 66.5625 60.0629 68.2504 59.894ZM79.013 82.9002C79.4676 84.2214 79.4676 84.2214 79.4676 84.2214L79.013 82.9002ZM78.5583 84.2214C78.4757 84.4615 78.393 84.7016 78.3079 84.949C77.9367 86.0277 77.5655 87.1063 77.1943 88.1849C77.0097 88.7259 76.8251 89.2669 76.6349 89.8243C75.3618 93.5236 74.0415 97.2076 72.7334 100.895C72.3731 101.911 72.013 102.927 71.6531 103.943C71.5376 104.268 71.422 104.594 71.303 104.93C70.7462 106.503 70.1943 108.078 69.6568 109.657C69.1176 111.237 68.5436 112.804 67.9661 114.371C67.7838 114.869 67.6015 115.367 67.4137 115.88C67.0342 116.915 66.6517 117.949 66.2664 118.983C66.0865 119.477 65.9065 119.972 65.7212 120.481C65.4735 121.153 65.4735 121.153 65.2208 121.837C64.7947 123.015 64.7947 123.015 65.3731 124.297C74.6755 124.297 83.9779 124.297 93.5622 124.297C92.9549 121.944 92.3335 119.76 91.518 117.486C91.4115 117.188 91.305 116.889 91.1953 116.582C90.8585 115.639 90.5196 114.697 90.1806 113.755C89.8445 112.817 89.5088 111.878 89.1732 110.94C88.9569 110.335 88.7405 109.73 88.5239 109.126C87.7612 106.995 87.0165 104.859 86.2876 102.718C86.0605 102.057 85.8331 101.396 85.6056 100.736C85.1509 99.4148 84.6962 98.0936 84.2416 96.7725C84.1299 96.4487 84.0181 96.125 83.903 95.7915C83.6653 95.0987 83.43 94.405 83.1966 93.7108C83.0784 93.361 82.9603 93.0111 82.8385 92.6507C82.7328 92.3352 82.6271 92.0197 82.5182 91.6947C82.1732 90.7137 82.1732 90.7137 81.4568 89.3959C80.8519 88.2241 80.5919 87.2667 80.3769 85.9829C80.1519 85.3289 80.1519 85.3289 79.9223 84.6618C79.4722 84.5164 79.022 84.3711 78.5583 84.2214Z" fill="white"/>
</g>
<g filter="url(#filter1_d_1926_351)">
<path d="M244.511 90.3868C250.813 90.3868 257.114 90.3868 263.607 90.3868C263.832 93.0027 263.832 93.0027 264.062 95.6715C264.568 95.3081 265.074 94.9448 265.596 94.5705C267.131 93.4695 267.131 93.4695 268.154 93.4695C268.304 93.1789 268.454 92.8882 268.608 92.5887C269.599 92.2478 270.607 91.9522 271.62 91.6804C272.17 91.53 272.72 91.3796 273.286 91.2246C280.056 89.6301 287.386 89.889 294.069 91.708C294.595 91.8408 294.595 91.8408 295.131 91.9763C301.063 93.5241 307.094 98.7934 310.181 103.791C310.387 104.154 310.593 104.517 310.805 104.89C311.326 105.856 311.326 105.856 312.256 106.681C312.331 107.126 312.406 107.571 312.483 108.03C312.558 108.457 312.633 108.884 312.711 109.324C313.011 109.469 313.311 109.614 313.62 109.764C313.904 110.797 314.132 111.798 314.33 112.847C314.443 113.41 314.557 113.973 314.673 114.553C315.304 118.079 315.504 121.533 315.49 125.109C315.49 125.569 315.49 126.029 315.49 126.503C315.49 128.012 315.486 129.52 315.483 131.028C315.482 132.079 315.481 133.13 315.481 134.181C315.479 136.937 315.475 139.693 315.47 142.449C315.465 145.266 315.463 148.082 315.461 150.898C315.456 156.417 315.448 161.936 315.439 167.455C313.932 168.185 312.25 167.958 310.594 167.954C310.203 167.954 309.813 167.955 309.411 167.955C308.586 167.955 307.76 167.955 306.935 167.953C305.668 167.95 304.402 167.953 303.136 167.956C302.335 167.955 301.534 167.955 300.733 167.954C300.353 167.955 299.972 167.956 299.581 167.957C296.902 167.946 296.902 167.946 295.888 167.455C295.886 167.215 295.884 166.976 295.882 166.729C295.835 160.888 295.786 155.047 295.734 149.206C295.709 146.381 295.684 143.556 295.662 140.732C295.64 138.005 295.616 135.278 295.591 132.551C295.582 131.511 295.573 130.472 295.566 129.433C295.555 127.975 295.541 126.517 295.527 125.059C295.524 124.631 295.521 124.203 295.519 123.762C295.493 121.412 295.41 119.127 294.979 116.81C294.679 116.665 294.379 116.52 294.069 116.37C293.872 115.979 293.676 115.589 293.473 115.186C291.503 111.442 288.949 110.014 284.976 108.443C280.474 107.3 275.517 107.694 271.375 109.757C270.051 110.547 269.564 110.949 269.063 112.406C268.463 112.406 267.863 112.406 267.244 112.406C267.113 112.724 266.982 113.042 266.846 113.37C266.678 113.778 266.509 114.187 266.335 114.608C266.185 115.008 266.035 115.408 265.88 115.819C265.426 116.81 265.426 116.81 264.516 117.251C263.868 120.196 263.989 123.352 263.975 126.352C263.972 126.798 263.968 127.245 263.964 127.705C263.956 128.666 263.949 129.628 263.943 130.589C263.934 132.108 263.921 133.627 263.908 135.146C263.877 138.914 263.85 142.682 263.822 146.45C263.799 149.645 263.774 152.84 263.747 156.035C263.735 157.535 263.725 159.035 263.716 160.535C263.709 161.447 263.701 162.359 263.693 163.27C263.691 163.69 263.689 164.11 263.687 164.543C263.682 165.112 263.682 165.112 263.676 165.693C263.673 166.024 263.671 166.356 263.669 166.698C263.607 167.455 263.607 167.455 263.152 167.895C261.813 167.94 260.485 167.957 259.146 167.954C258.543 167.954 258.543 167.954 257.928 167.955C257.076 167.955 256.224 167.955 255.373 167.953C254.065 167.95 252.756 167.953 251.448 167.956C250.623 167.955 249.798 167.955 248.972 167.954C248.578 167.955 248.184 167.956 247.778 167.957C245.018 167.946 245.018 167.946 244.511 167.455C244.467 166.463 244.456 165.469 244.456 164.476C244.456 164.161 244.456 163.846 244.455 163.521C244.454 162.458 244.457 161.394 244.459 160.33C244.46 159.571 244.46 158.812 244.459 158.052C244.459 155.984 244.462 153.916 244.465 151.848C244.468 149.689 244.468 147.53 244.469 145.371C244.47 141.28 244.474 137.189 244.478 133.098C244.483 128.442 244.486 123.786 244.488 119.13C244.493 109.549 244.501 99.9678 244.511 90.3868Z" fill="white"/>
</g>
<g filter="url(#filter2_d_1926_351)">
<path d="M134.482 60C140.934 60 147.386 60 154.033 60C154.033 71.6263 154.033 83.2526 154.033 95.2311C154.633 94.7952 155.233 94.3592 155.851 93.91C156.457 93.7592 157.063 93.6116 157.67 93.4696C157.82 93.1789 157.97 92.8883 158.125 92.5888C167.436 88.4975 177.765 88.7173 187.223 92.1484C193.977 94.8191 200.159 100.123 203.136 106.681C203.136 106.972 203.136 107.263 203.136 107.562C203.437 107.707 203.737 107.853 204.046 108.002C204.197 109.03 204.349 110.058 204.5 111.085C204.801 111.23 205.101 111.376 205.41 111.526C205.681 112.489 205.681 112.489 205.893 113.727C205.964 114.127 206.035 114.527 206.108 114.939C206.612 118.356 206.846 121.697 206.867 125.149C206.872 125.614 206.876 126.078 206.881 126.557C206.895 128.079 206.906 129.602 206.918 131.125C206.927 132.185 206.937 133.246 206.946 134.307C206.971 137.089 206.994 139.871 207.016 142.653C207.039 145.496 207.064 148.339 207.089 151.182C207.138 156.753 207.184 162.324 207.228 167.895C204.72 167.906 202.211 167.914 199.702 167.92C198.849 167.922 197.995 167.925 197.141 167.929C195.915 167.934 194.69 167.936 193.464 167.938C193.081 167.941 192.698 167.943 192.303 167.945C189.6 167.946 189.6 167.946 188.587 167.455C188.584 166.898 188.58 166.342 188.576 165.769C188.541 160.508 188.501 155.247 188.456 149.986C188.434 147.282 188.413 144.578 188.395 141.873C188.379 139.261 188.357 136.648 188.333 134.035C188.325 133.042 188.318 132.048 188.313 131.054C188.508 123.85 188.508 123.85 187.223 116.81C186.923 116.665 186.623 116.52 186.314 116.37C186.145 115.92 186.145 115.92 185.973 115.462C184.598 112.332 182.441 110.22 179.494 108.443C178.819 108.225 178.819 108.225 178.13 108.002C177.624 107.775 177.117 107.548 176.595 107.314C172.953 105.98 168.717 106.549 164.945 107.122C164.72 107.776 164.72 107.776 164.49 108.443C164.16 108.479 163.83 108.514 163.49 108.551C161.931 108.958 161.199 109.607 160.029 110.672C159.669 110.995 159.31 111.318 158.94 111.651C158.671 111.9 158.402 112.15 158.125 112.406C158.275 112.697 158.425 112.988 158.579 113.287C158.152 113.443 158.152 113.443 157.716 113.602C156.488 114.329 156.387 114.851 156.022 116.177C155.72 117.252 155.72 117.252 155.397 118.131C155.097 118.277 154.797 118.422 154.487 118.572C154.318 119.302 154.166 120.036 154.033 120.774C153.07 121.707 150.92 121.286 149.587 121.288C149.187 121.29 148.786 121.291 148.373 121.293C147.523 121.295 146.673 121.296 145.824 121.296C144.52 121.297 143.217 121.305 141.914 121.313C141.09 121.314 140.267 121.315 139.443 121.316C139.051 121.319 138.659 121.322 138.256 121.325C135.496 121.315 135.496 121.315 134.482 120.333C134.37 119.283 134.37 119.283 134.373 117.937C134.371 117.174 134.371 117.174 134.369 116.395C134.372 115.834 134.376 115.273 134.379 114.695C134.379 114.1 134.379 113.506 134.379 112.911C134.378 111.295 134.384 109.678 134.39 108.061C134.396 106.372 134.396 104.684 134.397 102.995C134.4 99.7962 134.408 96.5974 134.417 93.3985C134.427 89.7572 134.432 86.1159 134.437 82.4746C134.446 74.9831 134.463 67.4915 134.482 60Z" fill="white"/>
</g>
<g filter="url(#filter3_d_1926_351)">
<path d="M216.775 60C223.077 60 229.379 60 235.871 60C235.871 95.4601 235.871 130.92 235.871 167.455C234.389 168.173 232.755 167.958 231.126 167.954C230.746 167.954 230.366 167.955 229.974 167.955C229.17 167.955 228.366 167.955 227.562 167.953C226.328 167.95 225.095 167.953 223.862 167.956C223.081 167.955 222.301 167.955 221.521 167.954C220.965 167.955 220.965 167.955 220.399 167.957C217.789 167.946 217.789 167.946 216.775 167.455C216.775 131.995 216.775 96.5347 216.775 60Z" fill="white"/>
</g>
<g filter="url(#filter4_d_1926_351)">
<path d="M136.741 144.064C137.547 144.065 138.352 144.067 139.158 144.071C139.581 144.072 140.005 144.073 140.441 144.073C141.798 144.076 143.155 144.081 144.513 144.087C145.431 144.089 146.349 144.091 147.267 144.093C149.522 144.098 151.777 144.105 154.032 144.114C154.044 147.43 154.052 150.746 154.057 154.062C154.06 155.192 154.063 156.321 154.067 157.45C154.072 159.069 154.075 160.687 154.077 162.306C154.079 162.815 154.081 163.323 154.084 163.847C154.084 164.314 154.084 164.781 154.084 165.262C154.085 165.676 154.086 166.09 154.087 166.516C154.032 167.455 154.032 167.455 153.578 167.895C152.244 167.945 150.921 167.968 149.587 167.969C149.186 167.971 148.785 167.972 148.372 167.974C147.523 167.976 146.673 167.977 145.823 167.977C144.52 167.978 143.217 167.986 141.914 167.994C141.09 167.996 140.266 167.997 139.442 167.997C139.051 168 138.659 168.003 138.255 168.007C135.495 167.996 135.495 167.996 134.482 167.015C134.369 166.059 134.369 166.059 134.371 164.86C134.37 164.412 134.369 163.964 134.367 163.502C134.37 163.016 134.374 162.531 134.377 162.031C134.377 161.535 134.378 161.039 134.378 160.527C134.379 159.477 134.383 158.427 134.388 157.377C134.397 155.762 134.398 154.148 134.398 152.534C134.4 151.516 134.402 150.498 134.406 149.48C134.406 148.994 134.407 148.507 134.407 148.007C134.41 147.56 134.413 147.113 134.416 146.653C134.418 146.06 134.418 146.06 134.421 145.455C134.532 143.806 134.94 144.114 136.741 144.064Z" fill="white"/>
</g>
<path d="M205.409 174.942C205.709 175.523 206.009 176.104 206.319 176.703C205.718 177.284 205.118 177.866 204.5 178.465C203.619 178.162 203.619 178.162 202.681 177.584C202.34 176.428 202.34 176.428 202.227 175.382C203.346 174.84 204.172 174.91 205.409 174.942Z" fill="white"/>
<path d="M172.219 140.591C173.128 141.032 173.128 141.032 173.128 141.032L172.219 140.591Z" fill="white"/>
<path d="M185.404 133.105C186.314 133.545 186.314 133.545 186.314 133.545L185.404 133.105Z" fill="white"/>
<path d="M165.398 119.012C166.308 119.453 166.308 119.453 166.308 119.453L165.398 119.012Z" fill="white"/>
<path d="M270.426 110.204C271.335 110.644 271.335 110.644 271.335 110.644L270.426 110.204Z" fill="white"/>
<path d="M160.398 110.204C161.308 110.644 161.308 110.644 161.308 110.644L160.398 110.204Z" fill="white"/>
<path d="M304.98 97.4331C305.89 97.8735 305.89 97.8735 305.89 97.8735L304.98 97.4331Z" fill="white"/>
<path d="M191.77 93.9099C192.679 94.3503 192.679 94.3503 192.679 94.3503L191.77 93.9099Z" fill="white"/>
</g>
<g filter="url(#filter5_d_1926_351)">
<path d="M361.76 66.9091H385.943L418.33 145.957H419.608L451.994 66.9091H476.178V176H457.214V101.053H456.202L426.053 175.68H411.884L381.735 100.893H380.723V176H361.76V66.9091ZM496.845 176V94.1818H516.128V176H496.845ZM506.54 82.5696C503.486 82.5696 500.858 81.5575 498.656 79.5334C496.455 77.4737 495.354 75.0057 495.354 72.1293C495.354 69.2173 496.455 66.7493 498.656 64.7251C500.858 62.6655 503.486 61.6357 506.54 61.6357C509.629 61.6357 512.257 62.6655 514.423 64.7251C516.625 66.7493 517.726 69.2173 517.726 72.1293C517.726 75.0057 516.625 77.4737 514.423 79.5334C512.257 81.5575 509.629 82.5696 506.54 82.5696ZM555.239 128.06V176H535.956V94.1818H554.387V108.085H555.346C557.228 103.504 560.229 99.8636 564.348 97.1648C568.503 94.4659 573.634 93.1165 579.742 93.1165C585.388 93.1165 590.307 94.3239 594.497 96.7386C598.723 99.1534 601.99 102.651 604.298 107.232C606.642 111.813 607.796 117.371 607.76 123.905V176H588.478V126.888C588.478 121.419 587.057 117.14 584.216 114.05C581.411 110.961 577.523 109.416 572.551 109.416C569.177 109.416 566.177 110.162 563.549 111.653C560.956 113.109 558.915 115.222 557.423 117.992C555.967 120.762 555.239 124.118 555.239 128.06ZM627.363 176V94.1818H646.645V176H627.363ZM637.057 82.5696C634.003 82.5696 631.376 81.5575 629.174 79.5334C626.972 77.4737 625.871 75.0057 625.871 72.1293C625.871 69.2173 626.972 66.7493 629.174 64.7251C631.376 62.6655 634.003 61.6357 637.057 61.6357C640.147 61.6357 642.775 62.6655 644.941 64.7251C647.143 66.7493 648.243 69.2173 648.243 72.1293C648.243 75.0057 647.143 77.4737 644.941 79.5334C642.775 81.5575 640.147 82.5696 637.057 82.5696Z" fill="white"/>
</g>
<defs>
<filter id="filter0_d_1926_351" x="17" y="54.894" width="181.312" height="132.052" filterUnits="userSpaceOnUse" color-interpolation-filters="sRGB">
<feFlood flood-opacity="0" result="BackgroundImageFix"/>
<feColorMatrix in="SourceAlpha" type="matrix" values="0 0 0 0 0 0 0 0 0 0 0 0 0 0 0 0 0 0 127 0" result="hardAlpha"/>
<feOffset dy="7"/>
<feGaussianBlur stdDeviation="6"/>
<feComposite in2="hardAlpha" operator="out"/>
<feColorMatrix type="matrix" values="0 0 0 0 0 0 0 0 0 0 0 0 0 0 0 0 0 0 0.5 0"/>
<feBlend mode="normal" in2="BackgroundImageFix" result="effect1_dropShadow_1926_351"/>
<feBlend mode="normal" in="SourceGraphic" in2="effect1_dropShadow_1926_351" result="shape"/>
</filter>
<filter id="filter1_d_1926_351" x="232.455" y="85.1711" width="95.0352" height="101.819" filterUnits="userSpaceOnUse" color-interpolation-filters="sRGB">
<feFlood flood-opacity="0" result="BackgroundImageFix"/>
<feColorMatrix in="SourceAlpha" type="matrix" values="0 0 0 0 0 0 0 0 0 0 0 0 0 0 0 0 0 0 127 0" result="hardAlpha"/>
<feOffset dy="7"/>
<feGaussianBlur stdDeviation="6"/>
<feComposite in2="hardAlpha" operator="out"/>
<feColorMatrix type="matrix" values="0 0 0 0 0 0 0 0 0 0 0 0 0 0 0 0 0 0 0.5 0"/>
<feBlend mode="normal" in2="BackgroundImageFix" result="effect1_dropShadow_1926_351"/>
<feBlend mode="normal" in="SourceGraphic" in2="effect1_dropShadow_1926_351" result="shape"/>
</filter>
<filter id="filter2_d_1926_351" x="122.369" y="55" width="96.8594" height="131.945" filterUnits="userSpaceOnUse" color-interpolation-filters="sRGB">
<feFlood flood-opacity="0" result="BackgroundImageFix"/>
<feColorMatrix in="SourceAlpha" type="matrix" values="0 0 0 0 0 0 0 0 0 0 0 0 0 0 0 0 0 0 127 0" result="hardAlpha"/>
<feOffset dy="7"/>
<feGaussianBlur stdDeviation="6"/>
<feComposite in2="hardAlpha" operator="out"/>
<feColorMatrix type="matrix" values="0 0 0 0 0 0 0 0 0 0 0 0 0 0 0 0 0 0 0.5 0"/>
<feBlend mode="normal" in2="BackgroundImageFix" result="effect1_dropShadow_1926_351"/>
<feBlend mode="normal" in="SourceGraphic" in2="effect1_dropShadow_1926_351" result="shape"/>
</filter>
<filter id="filter3_d_1926_351" x="204.775" y="55" width="43.0957" height="131.987" filterUnits="userSpaceOnUse" color-interpolation-filters="sRGB">
<feFlood flood-opacity="0" result="BackgroundImageFix"/>
<feColorMatrix in="SourceAlpha" type="matrix" values="0 0 0 0 0 0 0 0 0 0 0 0 0 0 0 0 0 0 127 0" result="hardAlpha"/>
<feOffset dy="7"/>
<feGaussianBlur stdDeviation="6"/>
<feComposite in2="hardAlpha" operator="out"/>
<feColorMatrix type="matrix" values="0 0 0 0 0 0 0 0 0 0 0 0 0 0 0 0 0 0 0.5 0"/>
<feBlend mode="normal" in2="BackgroundImageFix" result="effect1_dropShadow_1926_351"/>
<feBlend mode="normal" in="SourceGraphic" in2="effect1_dropShadow_1926_351" result="shape"/>
</filter>
<filter id="filter4_d_1926_351" x="122.367" y="139.064" width="43.7207" height="47.9421" filterUnits="userSpaceOnUse" color-interpolation-filters="sRGB">
<feFlood flood-opacity="0" result="BackgroundImageFix"/>
<feColorMatrix in="SourceAlpha" type="matrix" values="0 0 0 0 0 0 0 0 0 0 0 0 0 0 0 0 0 0 127 0" result="hardAlpha"/>
<feOffset dy="7"/>
<feGaussianBlur stdDeviation="6"/>
<feComposite in2="hardAlpha" operator="out"/>
<feColorMatrix type="matrix" values="0 0 0 0 0 0 0 0 0 0 0 0 0 0 0 0 0 0 0.5 0"/>
<feBlend mode="normal" in2="BackgroundImageFix" result="effect1_dropShadow_1926_351"/>
<feBlend mode="normal" in="SourceGraphic" in2="effect1_dropShadow_1926_351" result="shape"/>
</filter>
<filter id="filter5_d_1926_351" x="349.76" y="56.6357" width="310.484" height="138.364" filterUnits="userSpaceOnUse" color-interpolation-filters="sRGB">
<feFlood flood-opacity="0" result="BackgroundImageFix"/>
<feColorMatrix in="SourceAlpha" type="matrix" values="0 0 0 0 0 0 0 0 0 0 0 0 0 0 0 0 0 0 127 0" result="hardAlpha"/>
<feOffset dy="7"/>
<feGaussianBlur stdDeviation="6"/>
<feComposite in2="hardAlpha" operator="out"/>
<feColorMatrix type="matrix" values="0 0 0 0 0.15899 0 0 0 0 0.15899 0 0 0 0 0.15899 0 0 0 0.5 0"/>
<feBlend mode="normal" in2="BackgroundImageFix" result="effect1_dropShadow_1926_351"/>
<feBlend mode="normal" in="SourceGraphic" in2="effect1_dropShadow_1926_351" result="shape"/>
</filter>
<clipPath id="clip0_1926_351">
<rect width="351" height="123" fill="white" transform="translate(29 60)"/>
</clipPath>
</defs>
</svg>
