<svg width="43" height="49" viewBox="0 0 43 49" fill="none" xmlns="http://www.w3.org/2000/svg">
<g filter="url(#filter0_d_1403_6553)">
<path d="M36.7091 9.80425L24.2091 1.74635C22.5595 0.683011 20.4405 0.683009 18.7909 1.74635L6.29094 9.80425C4.86285 10.7248 4 12.3077 4 14.0068V26.9933C4 28.6923 4.86285 30.2752 6.29093 31.1957L18.7909 39.2537C20.4405 40.317 22.5595 40.317 24.2091 39.2537L36.7091 31.1957C38.1371 30.2752 39 28.6923 39 26.9932V14.0067C39 12.3077 38.1371 10.7248 36.7091 9.80425Z" fill="url(#paint0_linear_1403_6553)"/>
</g>
<path d="M15.6074 17.2858H27.3931M15.6074 21.0358H27.3931M21.5003 21.0358V27.4643M24.1789 23.7143V24.7858M18.8217 23.7143V24.7858M26.3217 13.5358H16.6789C16.3947 13.5358 16.1222 13.6486 15.9212 13.8496C15.7203 14.0505 15.6074 14.323 15.6074 14.6072V26.3929C15.6074 26.6771 15.7203 26.9496 15.9212 27.1505C16.1222 27.3515 16.3947 27.4643 16.6789 27.4643H26.3217C26.6059 27.4643 26.8784 27.3515 27.0793 27.1505C27.2803 26.9496 27.3931 26.6771 27.3931 26.3929V14.6072C27.3931 14.323 27.2803 14.0505 27.0793 13.8496C26.8784 13.6486 26.6059 13.5358 26.3217 13.5358Z" stroke="#D6D6D6" stroke-width="1.07143" stroke-linecap="round" stroke-linejoin="round"/>
<defs>
<filter id="filter0_d_1403_6553" x="0" y="0.948853" width="43" height="47.1023" filterUnits="userSpaceOnUse" color-interpolation-filters="sRGB">
<feFlood flood-opacity="0" result="BackgroundImageFix"/>
<feColorMatrix in="SourceAlpha" type="matrix" values="0 0 0 0 0 0 0 0 0 0 0 0 0 0 0 0 0 0 127 0" result="hardAlpha"/>
<feOffset dy="4"/>
<feGaussianBlur stdDeviation="2"/>
<feComposite in2="hardAlpha" operator="out"/>
<feColorMatrix type="matrix" values="0 0 0 0 0.163947 0 0 0 0 0.160847 0 0 0 0 0.160847 0 0 0 0.28 0"/>
<feBlend mode="normal" in2="BackgroundImageFix" result="effect1_dropShadow_1403_6553"/>
<feBlend mode="normal" in="SourceGraphic" in2="effect1_dropShadow_1403_6553" result="shape"/>
</filter>
<linearGradient id="paint0_linear_1403_6553" x1="22.5" y1="41.5" x2="22.5" y2="-20" gradientUnits="userSpaceOnUse">
<stop stop-color="#5161A2"/>
<stop offset="1" stop-color="#0C101F"/>
</linearGradient>
</defs>
</svg>
