
<svg width="16" height="15" viewBox="0 0 16 15" fill="none" xmlns="http://www.w3.org/2000/svg">
<path d="M11.9551 14.0625C11.3833 14.0625 10.5799 13.8556 9.37701 13.1836C7.91421 12.3633 6.78277 11.6059 5.32788 10.1549C3.92515 8.753 3.24253 7.84538 2.28716 6.10691C1.20787 4.14402 1.39185 3.11511 1.59751 2.67536C1.84244 2.14978 2.20396 1.83542 2.67124 1.52341C2.93666 1.34951 3.21753 1.20045 3.51031 1.0781C3.5396 1.0655 3.56685 1.05349 3.59117 1.04265C3.73619 0.977316 3.95591 0.878586 4.23423 0.984054C4.41997 1.05378 4.5858 1.19646 4.84537 1.4528C5.37769 1.9778 6.10513 3.14704 6.37349 3.72126C6.55367 4.10827 6.6729 4.36374 6.6732 4.65027C6.6732 4.98571 6.50445 5.24441 6.29966 5.5236C6.26128 5.57605 6.2232 5.62614 6.18628 5.67478C5.96333 5.96775 5.91441 6.05241 5.94663 6.20359C6.01197 6.50739 6.49917 7.41179 7.29986 8.21071C8.10054 9.00964 8.97886 9.46609 9.28384 9.53112C9.44146 9.56482 9.52789 9.51384 9.83023 9.28298C9.87359 9.24987 9.91812 9.2156 9.9647 9.18132C10.277 8.949 10.5237 8.78464 10.8512 8.78464H10.853C11.138 8.78464 11.3821 8.90827 11.7864 9.11218C12.3137 9.37819 13.5181 10.0963 14.0463 10.6292C14.3033 10.8882 14.4465 11.0534 14.5166 11.2388C14.622 11.518 14.5227 11.7369 14.458 11.8834C14.4471 11.9077 14.4351 11.9343 14.4225 11.9639C14.2992 12.2562 14.1492 12.5365 13.9746 12.8012C13.6631 13.2671 13.3476 13.6277 12.8209 13.8729C12.5504 14.0009 12.2543 14.0657 11.9551 14.0625Z" fill="#FEFEFE"/>
</svg>
