
<svg width="40" height="40" viewBox="0 0 40 40" fill="none" xmlns="http://www.w3.org/2000/svg">
<g clip-path="url(#clip0_1746_220)">
<path d="M21.667 26.6667V16.6667C21.667 16.2246 21.8426 15.8007 22.1551 15.4882C22.4677 15.1756 22.8916 15 23.3337 15H33.3337C33.7757 15 34.1996 15.1756 34.5122 15.4882C34.8247 15.8007 35.0003 16.2246 35.0003 16.6667V23.3333" stroke="#B2B2B2" stroke-width="2" stroke-linecap="round" stroke-linejoin="round"/>
<path d="M30 9.99996V8.33329C30 7.89127 29.8244 7.46734 29.5118 7.15478C29.1993 6.84222 28.7754 6.66663 28.3333 6.66663H6.66667C6.22464 6.66663 5.80072 6.84222 5.48816 7.15478C5.17559 7.46734 5 7.89127 5 8.33329V28.3333C5 28.7753 5.17559 29.1992 5.48816 29.5118C5.80072 29.8244 6.22464 30 6.66667 30H17.5" stroke="#B2B2B2" stroke-width="2" stroke-linecap="round" stroke-linejoin="round"/>
<path d="M27 17H30.3333" stroke="#B2B2B2" stroke-width="1.25" stroke-linecap="round" stroke-linejoin="round"/>
<path d="M30.3813 36.125C29.9671 36.125 29.6156 35.9802 29.3269 35.6906C29.0385 35.4006 28.8944 35.0485 28.8944 34.6344C28.8944 34.5719 28.9219 34.4142 28.9769 34.1613L24.4787 31.4906C24.3438 31.6465 24.1785 31.7688 23.9831 31.8575C23.7877 31.9462 23.5779 31.9906 23.3538 31.9906C22.9429 31.9906 22.5938 31.8444 22.3063 31.5519C22.0188 31.2594 21.875 30.9088 21.875 30.5C21.875 30.0912 22.0188 29.7406 22.3063 29.4481C22.5938 29.1556 22.9429 29.0094 23.3538 29.0094C23.5775 29.0094 23.7873 29.0538 23.9831 29.1425C24.179 29.2312 24.3442 29.3538 24.4787 29.51L28.9775 26.8506C28.9483 26.7698 28.9273 26.6896 28.9144 26.61C28.901 26.53 28.8944 26.4483 28.8944 26.365C28.8944 25.9512 29.0396 25.5994 29.33 25.3094C29.6204 25.0198 29.9729 24.875 30.3875 24.875C30.8021 24.875 31.1538 25.0202 31.4425 25.3106C31.7313 25.601 31.8754 25.9535 31.875 26.3681C31.8746 26.7827 31.7298 27.1344 31.4406 27.4231C31.1515 27.7119 30.7994 27.856 30.3844 27.8556C30.1585 27.8556 29.9502 27.8094 29.7594 27.7169C29.5685 27.6244 29.406 27.5 29.2719 27.3438L24.7725 30.0144C24.8017 30.0952 24.8227 30.1756 24.8356 30.2556C24.849 30.3352 24.8556 30.4167 24.8556 30.5C24.8556 30.5833 24.849 30.6648 24.8356 30.7444C24.8223 30.824 24.8015 30.9044 24.7731 30.9856L29.2719 33.6562C29.4065 33.5 29.569 33.3756 29.7594 33.2831C29.9502 33.1906 30.1585 33.1444 30.3844 33.1444C30.7985 33.1444 31.1506 33.2894 31.4406 33.5794C31.7302 33.8702 31.875 34.2229 31.875 34.6375C31.875 35.0521 31.7298 35.4038 31.4394 35.6925C31.149 35.9813 30.7958 36.1254 30.3813 36.125ZM30.3844 35.5C30.6298 35.5 30.8354 35.4171 31.0012 35.2512C31.1671 35.0854 31.25 34.88 31.25 34.635C31.25 34.39 31.1671 34.1844 31.0012 34.0181C30.8354 33.8519 30.63 33.769 30.385 33.7694C30.14 33.7698 29.9344 33.8527 29.7681 34.0181C29.6019 34.1835 29.519 34.389 29.5194 34.6344C29.5198 34.8798 29.6027 35.0854 29.7681 35.2512C29.9335 35.4171 30.1385 35.5 30.3844 35.5ZM23.3538 31.365C23.6021 31.365 23.8104 31.2821 23.9788 31.1163C24.1467 30.9504 24.2306 30.745 24.2306 30.5C24.2306 30.255 24.1467 30.0496 23.9788 29.8837C23.8108 29.7179 23.6025 29.635 23.3538 29.635C23.1117 29.635 22.909 29.7179 22.7456 29.8837C22.5823 30.0496 22.5004 30.255 22.5 30.5C22.4996 30.745 22.5815 30.9506 22.7456 31.1169C22.9098 31.2831 23.1125 31.3658 23.3538 31.365ZM30.385 27.2306C30.63 27.2306 30.8354 27.1477 31.0012 26.9819C31.1671 26.816 31.25 26.6104 31.25 26.365C31.25 26.1196 31.1671 25.9142 31.0012 25.7487C30.8354 25.5833 30.63 25.5004 30.385 25.5C30.14 25.4996 29.9344 25.5825 29.7681 25.7487C29.6019 25.915 29.519 26.1206 29.5194 26.3656C29.5198 26.6106 29.6027 26.816 29.7681 26.9819C29.9335 27.1477 30.1392 27.2306 30.385 27.2306Z" fill="#B2B2B2"/>
</g>
<defs>
<clipPath id="clip0_1746_220">
<rect width="40" height="40" fill="white"/>
</clipPath>
</defs>
</svg>
