
<svg width="16" height="15" viewBox="0 0 16 15" fill="none" xmlns="http://www.w3.org/2000/svg">
<path d="M1.75625 4.29594C1.79575 3.80672 2.01799 3.35031 2.37874 3.01753C2.7395 2.68474 3.21232 2.49998 3.70312 2.5H12.2969C12.7921 2.49998 13.2688 2.68805 13.6306 3.02617C13.9923 3.36428 14.2122 3.82719 14.2456 4.32125L8.00063 7.60938L1.75625 4.29594ZM1.75 5.17719V10.5469C1.75 11.0649 1.95578 11.5617 2.32206 11.9279C2.68834 12.2942 3.18512 12.5 3.70312 12.5H12.2969C12.8149 12.5 13.3117 12.2942 13.6779 11.9279C14.0442 11.5617 14.25 11.0649 14.25 10.5469V5.20187L8.18188 8.39688C8.12558 8.4265 8.06291 8.44193 7.9993 8.44182C7.93569 8.44171 7.87307 8.42606 7.81687 8.39625L1.75 5.17719Z" fill="#FEFEFE"/>
</svg>
