
<svg width="8" height="5" viewBox="0 0 8 15" fill="none" xmlns="http://www.w3.org/2000/svg">
<path d="M7.7891 0.108149V2.48815H6.37348C6.18583 2.46417 5.99523 2.48083 5.8146 2.53702C5.63396 2.5932 5.46753 2.68759 5.3266 2.81377L5.32785 2.81252C5.12536 3.09678 5.02974 3.4434 5.05785 3.79127V3.78627V5.49002H7.70098L7.35098 8.15877H5.0616V15H2.30098V8.15815H0.000976562V5.49002H2.30098V3.5244C2.27108 3.04965 2.33897 2.57381 2.50044 2.12637C2.66192 1.67892 2.91354 1.26939 3.23973 0.923149L3.23785 0.925024C3.57082 0.609619 3.96436 0.365113 4.39464 0.206326C4.82491 0.0475394 5.28294 -0.0222208 5.74098 0.00127422H5.73285C6.44428 -0.0107218 7.15566 0.0279175 7.8616 0.116899L7.78848 0.109399L7.7891 0.108149Z" fill="#FEFEFE"/>
</svg>
