<svg width="43" height="49" viewBox="0 0 43 49" fill="none" xmlns="http://www.w3.org/2000/svg">
<g filter="url(#filter0_d_1403_6546)">
<path d="M36.7091 9.80425L24.2091 1.74635C22.5595 0.683011 20.4405 0.683009 18.7909 1.74635L6.29094 9.80425C4.86285 10.7248 4 12.3077 4 14.0068V26.9933C4 28.6923 4.86285 30.2752 6.29093 31.1957L18.7909 39.2537C20.4405 40.317 22.5595 40.317 24.2091 39.2537L36.7091 31.1957C38.1371 30.2752 39 28.6923 39 26.9932V14.0067C39 12.3077 38.1371 10.7248 36.7091 9.80425Z" fill="url(#paint0_linear_1403_6546)"/>
</g>
<path d="M30.2285 27.4443C30.9303 27.7881 31.5104 28.2715 31.9688 28.8945C32.4271 29.5175 32.7171 30.2194 32.8389 31H31.6572C31.5785 30.5918 31.4316 30.2122 31.2168 29.8613C31.002 29.5104 30.7406 29.2096 30.4326 28.959C30.1247 28.7083 29.7773 28.5078 29.3906 28.3574C29.0039 28.207 28.6029 28.1354 28.1875 28.1425C27.765 28.1425 27.3639 28.2142 26.9844 28.3574C26.6048 28.5006 26.2575 28.6976 25.9424 28.9482C25.6273 29.1989 25.3659 29.5032 25.1582 29.8613C24.9505 30.2194 24.8037 30.5989 24.7178 31H23.5361C23.6507 30.2265 23.9372 29.5283 24.3955 28.9052C24.8538 28.2822 25.4375 27.7952 26.1465 27.4443C25.7383 27.122 25.4232 26.7317 25.2012 26.2734C24.9792 25.8151 24.8646 25.3281 24.8574 24.8125C24.8574 24.4902 24.9004 24.1787 24.9863 23.8779C25.0723 23.5771 25.2012 23.2942 25.373 23.0293C25.5449 22.7643 25.749 22.528 25.9854 22.3203C26.2217 22.1126 26.4867 21.9371 26.7803 21.7939C26.5869 21.5146 26.3649 21.2675 26.1143 21.0527C25.8636 20.8379 25.5915 20.6481 25.2979 20.4834C25.0042 20.3187 24.6963 20.2005 24.374 20.1289C24.0518 20.0573 23.7188 20.0143 23.375 20C22.8021 20 22.2542 20.111 21.7314 20.333C21.2087 20.555 20.7539 20.8808 20.3672 21.3105C20.5391 21.776 20.625 22.2558 20.625 22.75C20.625 23.4088 20.4782 24.0283 20.1846 24.6084C19.891 25.1884 19.4792 25.6754 18.9492 26.0693C19.4147 26.3056 19.8337 26.5957 20.2061 26.9394C20.5785 27.2832 20.9007 27.6699 21.1729 28.0996C21.445 28.5293 21.6491 28.9876 21.7852 29.4746C21.9212 29.9616 21.9928 30.47 22 31H20.625C20.625 30.4342 20.5176 29.9007 20.3027 29.3994C20.0879 28.8981 19.7943 28.4612 19.4219 28.0888C19.0495 27.7164 18.609 27.4192 18.1006 27.1972C17.5921 26.9752 17.0586 26.8678 16.5 26.875C15.9271 26.875 15.3936 26.9824 14.8994 27.1972C14.4053 27.4121 13.9684 27.7057 13.5889 28.0781C13.2093 28.4505 12.9121 28.8909 12.6973 29.3994C12.4824 29.9078 12.375 30.4414 12.375 31H11C11 30.4772 11.0716 29.9723 11.2148 29.4853C11.3581 28.9983 11.5622 28.54 11.8271 28.1103C12.0921 27.6806 12.4108 27.2939 12.7832 26.9502C13.1556 26.6064 13.5781 26.3128 14.0508 26.0693C13.5208 25.6754 13.109 25.1884 12.8154 24.6084C12.5218 24.0283 12.375 23.4088 12.375 22.75C12.375 22.1842 12.4824 21.6507 12.6973 21.1494C12.9121 20.6481 13.2057 20.2112 13.5781 19.8388C13.9505 19.4664 14.3874 19.1692 14.8887 18.9472C15.39 18.7252 15.9271 18.6178 16.5 18.625C17.1087 18.625 17.6852 18.7539 18.2295 19.0117C18.7738 19.2695 19.2464 19.6276 19.6475 20.0859C19.8337 19.9069 20.0342 19.7457 20.249 19.6025C20.4639 19.4593 20.6895 19.3232 20.9258 19.1943C20.3958 18.8004 19.984 18.3134 19.6904 17.7334C19.3968 17.1533 19.25 16.5338 19.25 15.875C19.25 15.3092 19.3574 14.7757 19.5723 14.2744C19.7871 13.7731 20.0807 13.3362 20.4531 12.9638C20.8255 12.5914 21.2624 12.2942 21.7637 12.0722C22.265 11.8502 22.8021 11.7428 23.375 11.75C23.9408 11.75 24.4743 11.8574 24.9756 12.0722C25.4769 12.2871 25.9137 12.5807 26.2861 12.9531C26.6585 13.3255 26.9557 13.7659 27.1777 14.2744C27.3997 14.7828 27.5072 15.3164 27.5 15.875C27.5 16.5338 27.3532 17.1533 27.0596 17.7334C26.766 18.3134 26.3542 18.8004 25.8242 19.1943C26.3255 19.4593 26.7767 19.7815 27.1777 20.1611C27.5788 20.5407 27.9189 20.9811 28.1982 21.4824C28.6566 21.4824 29.0863 21.5683 29.4873 21.7402C29.8883 21.9121 30.2428 22.152 30.5508 22.4599C30.8587 22.7679 31.0951 23.1188 31.2598 23.5127C31.4245 23.9065 31.5104 24.3398 31.5176 24.8125C31.5176 25.3281 31.4066 25.8151 31.1846 26.2734C30.9626 26.7317 30.6439 27.122 30.2285 27.4443ZM16.5 25.5C16.8796 25.5 17.234 25.4284 17.5635 25.2851C17.8929 25.1419 18.1865 24.945 18.4443 24.6943C18.7021 24.4437 18.8991 24.1536 19.0352 23.8242C19.1712 23.4948 19.2428 23.1367 19.25 22.75C19.25 22.3704 19.1784 22.0159 19.0352 21.6865C18.8919 21.3571 18.695 21.0634 18.4443 20.8056C18.1937 20.5478 17.9036 20.3509 17.5742 20.2148C17.2448 20.0787 16.8867 20.0071 16.5 20C16.1204 20 15.766 20.0716 15.4365 20.2148C15.1071 20.358 14.8135 20.555 14.5557 20.8056C14.2979 21.0563 14.1009 21.3463 13.9648 21.6758C13.8288 22.0052 13.7572 22.3633 13.75 22.75C13.75 23.1295 13.8216 23.484 13.9648 23.8134C14.1081 24.1429 14.305 24.4365 14.5557 24.6943C14.8063 24.9521 15.0964 25.1491 15.4258 25.2851C15.7552 25.4212 16.1133 25.4928 16.5 25.5ZM20.625 15.875C20.625 16.2545 20.6966 16.609 20.8398 16.9384C20.9831 17.2679 21.18 17.5615 21.4307 17.8193C21.6813 18.0771 21.9714 18.2741 22.3008 18.4101C22.6302 18.5462 22.9883 18.6178 23.375 18.625C23.7546 18.625 24.109 18.5534 24.4385 18.4101C24.7679 18.2669 25.0615 18.07 25.3193 17.8193C25.5771 17.5687 25.7741 17.2786 25.9102 16.9492C26.0462 16.6198 26.1178 16.2617 26.125 15.875C26.125 15.4954 26.0534 15.1409 25.9102 14.8115C25.7669 14.4821 25.57 14.1884 25.3193 13.9306C25.0687 13.6728 24.7786 13.4759 24.4492 13.3398C24.1198 13.2037 23.7617 13.1321 23.375 13.125C22.9954 13.125 22.641 13.1966 22.3115 13.3398C21.9821 13.483 21.6885 13.68 21.4307 13.9306C21.1729 14.1813 20.9759 14.4713 20.8398 14.8008C20.7038 15.1302 20.6322 15.4883 20.625 15.875ZM28.1875 22.6425C27.8867 22.6425 27.6074 22.6998 27.3496 22.8144C27.0918 22.929 26.8626 23.083 26.6621 23.2763C26.4616 23.4697 26.304 23.6989 26.1895 23.9638C26.0749 24.2288 26.0176 24.5117 26.0176 24.8125C26.0176 25.1133 26.0749 25.3925 26.1895 25.6504C26.304 25.9082 26.458 26.1373 26.6514 26.3379C26.8447 26.5384 27.0739 26.6959 27.3389 26.8105C27.6038 26.9251 27.8867 26.9824 28.1875 26.9824C28.4883 26.9824 28.7676 26.9251 29.0254 26.8105C29.2832 26.6959 29.5124 26.542 29.7129 26.3486C29.9134 26.1552 30.071 25.9261 30.1855 25.6611C30.3001 25.3961 30.3574 25.1133 30.3574 24.8125C30.3574 24.5117 30.3001 24.2324 30.1855 23.9746C30.071 23.7168 29.917 23.4876 29.7236 23.2871C29.5303 23.0866 29.3011 22.929 29.0361 22.8144C28.7712 22.6998 28.4883 22.6425 28.1875 22.6425Z" fill="#D6D6D6"/>
<defs>
<filter id="filter0_d_1403_6546" x="0" y="0.948853" width="43" height="47.1023" filterUnits="userSpaceOnUse" color-interpolation-filters="sRGB">
<feFlood flood-opacity="0" result="BackgroundImageFix"/>
<feColorMatrix in="SourceAlpha" type="matrix" values="0 0 0 0 0 0 0 0 0 0 0 0 0 0 0 0 0 0 127 0" result="hardAlpha"/>
<feOffset dy="4"/>
<feGaussianBlur stdDeviation="2"/>
<feComposite in2="hardAlpha" operator="out"/>
<feColorMatrix type="matrix" values="0 0 0 0 0.163947 0 0 0 0 0.160847 0 0 0 0 0.160847 0 0 0 0.28 0"/>
<feBlend mode="normal" in2="BackgroundImageFix" result="effect1_dropShadow_1403_6546"/>
<feBlend mode="normal" in="SourceGraphic" in2="effect1_dropShadow_1403_6546" result="shape"/>
</filter>
<linearGradient id="paint0_linear_1403_6546" x1="22.5" y1="41.5" x2="22.5" y2="-20" gradientUnits="userSpaceOnUse">
<stop stop-color="#5161A2"/>
<stop offset="1" stop-color="#0C101F"/>
</linearGradient>
</defs>
</svg>
