
<svg width="16" height="10" viewBox="0 0 16 15" fill="none" xmlns="http://www.w3.org/2000/svg">
<path d="M5.375 1.25H10.625C12.625 1.25 14.25 2.875 14.25 4.875V10.125C14.25 11.0864 13.8681 12.0084 13.1883 12.6883C12.5084 13.3681 11.5864 13.75 10.625 13.75H5.375C3.375 13.75 1.75 12.125 1.75 10.125V4.875C1.75 3.91359 2.13192 2.99156 2.81174 2.31174C3.49156 1.63192 4.41359 1.25 5.375 1.25ZM5.25 2.5C4.65326 2.5 4.08097 2.73705 3.65901 3.15901C3.23705 3.58097 3 4.15326 3 4.75V10.25C3 11.4937 4.00625 12.5 5.25 12.5H10.75C11.3467 12.5 11.919 12.2629 12.341 11.841C12.7629 11.419 13 10.8467 13 10.25V4.75C13 3.50625 11.9937 2.5 10.75 2.5H5.25ZM11.2812 3.4375C11.4885 3.4375 11.6872 3.51981 11.8337 3.66632C11.9802 3.81284 12.0625 4.01155 12.0625 4.21875C12.0625 4.42595 11.9802 4.62466 11.8337 4.77118C11.6872 4.91769 11.4885 5 11.2812 5C11.074 5 10.8753 4.91769 10.7288 4.77118C10.5823 4.62466 10.5 4.42595 10.5 4.21875C10.5 4.01155 10.5823 3.81284 10.7288 3.66632C10.8753 3.51981 11.074 3.4375 11.2812 3.4375ZM8 4.375C8.8288 4.375 9.62366 4.70424 10.2097 5.29029C10.7958 5.87634 11.125 6.6712 11.125 7.5C11.125 8.3288 10.7958 9.12366 10.2097 9.70971C9.62366 10.2958 8.8288 10.625 8 10.625C7.1712 10.625 6.37634 10.2958 5.79029 9.70971C5.20424 9.12366 4.875 8.3288 4.875 7.5C4.875 6.6712 5.20424 5.87634 5.79029 5.29029C6.37634 4.70424 7.1712 4.375 8 4.375ZM8 5.625C7.50272 5.625 7.02581 5.82254 6.67417 6.17417C6.32254 6.52581 6.125 7.00272 6.125 7.5C6.125 7.99728 6.32254 8.47419 6.67417 8.82583C7.02581 9.17746 7.50272 9.375 8 9.375C8.49728 9.375 8.97419 9.17746 9.32583 8.82583C9.67746 8.47419 9.875 7.99728 9.875 7.5C9.875 7.00272 9.67746 6.52581 9.32583 6.17417C8.97419 5.82254 8.49728 5.625 8 5.625Z" fill="#FEFEFE"/>
</svg>
