
<svg width="16" height="10" viewBox="0 0 16 15" fill="none" xmlns="http://www.w3.org/2000/svg">
<path fill-rule="evenodd" clip-rule="evenodd" d="M11.75 1.875C12.2473 1.875 12.7242 2.07254 13.0758 2.42417C13.4275 2.77581 13.625 3.25272 13.625 3.75V11.25C13.625 11.7473 13.4275 12.2242 13.0758 12.5758C12.7242 12.9275 12.2473 13.125 11.75 13.125H4.25C3.75272 13.125 3.27581 12.9275 2.92417 12.5758C2.57254 12.2242 2.375 11.7473 2.375 11.25V3.75C2.375 3.25272 2.57254 2.77581 2.92417 2.42417C3.27581 2.07254 3.75272 1.875 4.25 1.875H11.75ZM5.5 6.25C5.33424 6.25 5.17527 6.31585 5.05806 6.43306C4.94085 6.55027 4.875 6.70924 4.875 6.875V10C4.875 10.1658 4.94085 10.3247 5.05806 10.4419C5.17527 10.5592 5.33424 10.625 5.5 10.625C5.66576 10.625 5.82473 10.5592 5.94194 10.4419C6.05915 10.3247 6.125 10.1658 6.125 10V6.875C6.125 6.70924 6.05915 6.55027 5.94194 6.43306C5.82473 6.31585 5.66576 6.25 5.5 6.25ZM7.375 5.625C7.20924 5.625 7.05027 5.69085 6.93306 5.80806C6.81585 5.92527 6.75 6.08424 6.75 6.25V10C6.75 10.1658 6.81585 10.3247 6.93306 10.4419C7.05027 10.5592 7.20924 10.625 7.375 10.625C7.54076 10.625 7.69973 10.5592 7.81694 10.4419C7.93415 10.3247 8 10.1658 8 10V7.7125C8.19063 7.4975 8.5125 7.245 8.87062 7.09188C9.07875 7.00313 9.39187 6.96688 9.60938 7.03562C9.68153 7.05393 9.74579 7.09516 9.7925 7.15312C9.825 7.19687 9.875 7.29437 9.875 7.5V10C9.875 10.1658 9.94085 10.3247 10.0581 10.4419C10.1753 10.5592 10.3342 10.625 10.5 10.625C10.6658 10.625 10.8247 10.5592 10.9419 10.4419C11.0592 10.3247 11.125 10.1658 11.125 10V7.5C11.125 7.08125 11.0188 6.70875 10.7975 6.41C10.5939 6.1391 10.309 5.94045 9.98438 5.84312C9.42063 5.66625 8.79625 5.76437 8.37938 5.94312C8.24592 6.00053 8.1159 6.06564 7.99 6.13812C7.9638 5.99412 7.88789 5.86387 7.7755 5.7701C7.66311 5.67633 7.52137 5.62498 7.375 5.625ZM5.5 4.375C5.33424 4.375 5.17527 4.44085 5.05806 4.55806C4.94085 4.67527 4.875 4.83424 4.875 5C4.875 5.16576 4.94085 5.32473 5.05806 5.44194C5.17527 5.55915 5.33424 5.625 5.5 5.625C5.66576 5.625 5.82473 5.55915 5.94194 5.44194C6.05915 5.32473 6.125 5.16576 6.125 5C6.125 4.83424 6.05915 4.67527 5.94194 4.55806C5.82473 4.44085 5.66576 4.375 5.5 4.375Z" fill="#FEFEFE"/>
</svg>
