<svg width="31" height="31" viewBox="0 0 31 31" fill="none" xmlns="http://www.w3.org/2000/svg">
<path fill-rule="evenodd" clip-rule="evenodd" d="M18.3796 5.7301H6.81752C5.53983 5.7301 4.31448 6.23766 3.41102 7.14112C2.50756 8.04458 2 9.26994 2 10.5476V20.1827C2 21.4603 2.50756 22.6857 3.41102 23.5892C4.31448 24.4926 5.53983 25.0002 6.81752 25.0002H18.3796C19.6573 25.0002 20.8826 24.4926 21.7861 23.5892C22.6895 22.6857 23.1971 21.4603 23.1971 20.1827V10.5476C23.1971 9.26994 22.6895 8.04458 21.7861 7.14112C20.8826 6.23766 19.6573 5.7301 18.3796 5.7301ZM3.92701 10.5476C3.92701 9.78101 4.23154 9.0458 4.77362 8.50372C5.3157 7.96165 6.05091 7.65711 6.81752 7.65711H18.3796C19.1462 7.65711 19.8814 7.96165 20.4235 8.50372C20.9655 9.0458 21.2701 9.78101 21.2701 10.5476V20.1827C21.2701 20.9493 20.9655 21.6845 20.4235 22.2266C19.8814 22.7686 19.1462 23.0732 18.3796 23.0732H6.81752C6.05091 23.0732 5.3157 22.7686 4.77362 22.2266C4.23154 21.6845 3.92701 20.9493 3.92701 20.1827V10.5476Z" fill="#B2B2B2"/>
<path fill-rule="evenodd" clip-rule="evenodd" d="M27.4899 7.8112L21.7512 11.5438C21.6179 11.6303 21.508 11.7483 21.4313 11.8875C21.3547 12.0267 21.3136 12.1827 21.3119 12.3416L21.2598 17.3749C21.2579 17.5372 21.2969 17.6974 21.3734 17.8406C21.4499 17.9838 21.5613 18.1053 21.6973 18.1939L27.486 21.9554C27.6314 22.0502 27.7997 22.1039 27.9731 22.1109C28.1465 22.118 28.3186 22.078 28.4712 21.9953C28.6238 21.9126 28.7512 21.7902 28.84 21.6411C28.9288 21.4919 28.9756 21.3216 28.9756 21.148V8.62055C28.976 8.44682 28.9294 8.27623 28.8407 8.12682C28.7521 7.97741 28.6247 7.85474 28.4721 7.7718C28.3194 7.68886 28.1472 7.64874 27.9736 7.65568C27.8 7.66261 27.6315 7.71635 27.486 7.8112M27.0505 19.3732L23.1946 16.8662L23.235 12.8773L27.0505 10.3972V19.3732Z" fill="#B2B2B2"/>
</svg>
