
<svg width="31" height="31" viewBox="0 0 31 31" fill="none" xmlns="http://www.w3.org/2000/svg">
<path fill-rule="evenodd" clip-rule="evenodd" d="M16.8989 7.10364H7.73934C6.72714 7.10364 5.75641 7.50573 5.04068 8.22146C4.32494 8.93719 3.92285 9.90793 3.92285 10.9201V18.5531C3.92285 19.5653 4.32494 20.536 5.04068 21.2518C5.75641 21.9675 6.72714 22.3696 7.73934 22.3696H16.8989C17.9111 22.3696 18.8819 21.9675 19.5976 21.2518C20.3133 20.536 20.7154 19.5653 20.7154 18.5531V10.9201C20.7154 9.90793 20.3133 8.93719 19.5976 8.22146C18.8819 7.50573 17.9111 7.10364 16.8989 7.10364ZM5.44945 10.9201C5.44945 10.3128 5.6907 9.73037 6.12014 9.30093C6.54958 8.87149 7.13202 8.63023 7.73934 8.63023H16.8989C17.5062 8.63023 18.0887 8.87149 18.5181 9.30093C18.9476 9.73037 19.1888 10.3128 19.1888 10.9201V18.5531C19.1888 19.1604 18.9476 19.7429 18.5181 20.1723C18.0887 20.6017 17.5062 20.843 16.8989 20.843H7.73934C7.13202 20.843 6.54958 20.6017 6.12014 20.1723C5.6907 19.7429 5.44945 19.1604 5.44945 18.5531V10.9201Z" fill="#B2B2B2"/>
<path fill-rule="evenodd" clip-rule="evenodd" d="M24.1162 8.75236L19.57 11.7094C19.4644 11.7779 19.3773 11.8714 19.3166 11.9817C19.2559 12.0919 19.2233 12.2155 19.2219 12.3414L19.1807 16.3289C19.1792 16.4574 19.2101 16.5843 19.2707 16.6978C19.3313 16.8112 19.4195 16.9075 19.5273 16.9777L24.1132 19.9576C24.2283 20.0326 24.3617 20.0752 24.4991 20.0808C24.6364 20.0863 24.7728 20.0547 24.8937 19.9891C25.0145 19.9236 25.1155 19.8267 25.1858 19.7085C25.2561 19.5904 25.2932 19.4554 25.2932 19.3179V9.39353C25.2935 9.2559 25.2566 9.12076 25.1864 9.00239C25.1162 8.88403 25.0153 8.78685 24.8943 8.72115C24.7734 8.65544 24.637 8.62365 24.4994 8.62915C24.3619 8.63464 24.2285 8.67722 24.1132 8.75236M23.7681 17.9119L20.7134 15.9258L20.7455 12.7658L23.7681 10.8011V17.9119Z" fill="#B2B2B2"/>
</svg>
