
<svg width="16" height="15" viewBox="0 0 16 15" fill="none" xmlns="http://www.w3.org/2000/svg">
<path d="M8 7.1875C7.5856 7.1875 7.18817 7.02288 6.89515 6.72985C6.60212 6.43683 6.4375 6.0394 6.4375 5.625C6.4375 5.2106 6.60212 4.81317 6.89515 4.52015C7.18817 4.22712 7.5856 4.0625 8 4.0625C8.4144 4.0625 8.81183 4.22712 9.10485 4.52015C9.39788 4.81317 9.5625 5.2106 9.5625 5.625C9.5625 5.83019 9.52208 6.03337 9.44356 6.22294C9.36504 6.41251 9.24995 6.58476 9.10485 6.72985C8.95976 6.87495 8.78751 6.99004 8.59794 7.06856C8.40837 7.14708 8.20519 7.1875 8 7.1875ZM8 1.25C6.83968 1.25 5.72688 1.71094 4.90641 2.53141C4.08594 3.35188 3.625 4.46468 3.625 5.625C3.625 8.90625 8 13.75 8 13.75C8 13.75 12.375 8.90625 12.375 5.625C12.375 4.46468 11.9141 3.35188 11.0936 2.53141C10.2731 1.71094 9.16032 1.25 8 1.25Z" fill="#FEFEFE"/>
</svg>
