
<svg width="31" height="31" viewBox="0 0 31 31" fill="none" xmlns="http://www.w3.org/2000/svg">
<path d="M20.8247 4.05054H9.91975C8.71628 4.05054 7.73926 5.0759 7.73926 6.34043V24.6596C7.73926 25.9241 8.71628 26.9495 9.91975 26.9495H20.8247C22.0295 26.9495 23.0052 25.9241 23.0052 24.6596V6.34043C23.0052 5.0759 22.0295 4.05054 20.8247 4.05054ZM13.464 7.86703H17.2805H13.464Z" fill="#010919"/>
<path d="M13.464 7.86703H17.2805M20.8247 4.05054H9.91975C8.71628 4.05054 7.73926 5.0759 7.73926 6.34043V24.6596C7.73926 25.9241 8.71628 26.9495 9.91975 26.9495H20.8247C22.0295 26.9495 23.0052 25.9241 23.0052 24.6596V6.34043C23.0052 5.0759 22.0295 4.05054 20.8247 4.05054Z" stroke="#B2B2B2" stroke-width="2.5625" stroke-linecap="round" stroke-linejoin="round"/>
</svg>
