<svg width="43" height="49" viewBox="0 0 43 49" fill="none" xmlns="http://www.w3.org/2000/svg">
<g filter="url(#filter0_d_1403_6534)">
<path d="M36.7091 9.80425L24.2091 1.74635C22.5595 0.683011 20.4405 0.683009 18.7909 1.74635L6.29094 9.80425C4.86285 10.7248 4 12.3077 4 14.0068V26.9933C4 28.6923 4.86285 30.2752 6.29093 31.1957L18.7909 39.2537C20.4405 40.317 22.5595 40.317 24.2091 39.2537L36.7091 31.1957C38.1371 30.2752 39 28.6923 39 26.9932V14.0067C39 12.3077 38.1371 10.7248 36.7091 9.80425Z" fill="url(#paint0_linear_1403_6534)"/>
</g>
<path d="M30.7361 22.2639L28.875 20.4029V17.9375C28.8729 16.2338 28.2391 14.5913 27.0962 13.3278C25.9533 12.0643 24.3825 11.2694 22.6875 11.0969V9.6875H21.3125V11.0969C19.6175 11.2694 18.0467 12.0643 16.9038 13.3278C15.7609 14.5913 15.1271 16.2338 15.125 17.9375V20.4029L13.2639 22.2639C13.135 22.3928 13.0625 22.5677 13.0625 22.75V24.8125C13.0625 24.9948 13.1349 25.1697 13.2639 25.2986C13.3928 25.4276 13.5677 25.5 13.75 25.5H18.5625V26.0342C18.5472 26.9065 18.8546 27.7537 19.4255 28.4133C19.9964 29.0729 20.7908 29.4985 21.6562 29.6085C22.1342 29.6559 22.6167 29.6027 23.0729 29.4524C23.5291 29.3021 23.9487 29.058 24.3049 28.7358C24.661 28.4136 24.9458 28.0204 25.1408 27.5815C25.3359 27.1426 25.437 26.6678 25.4375 26.1875V25.5H30.25C30.4323 25.5 30.6072 25.4276 30.7361 25.2986C30.8651 25.1697 30.9375 24.9948 30.9375 24.8125V22.75C30.9375 22.5677 30.865 22.3928 30.7361 22.2639ZM24.0625 26.1875C24.0625 26.7345 23.8452 27.2591 23.4584 27.6459C23.0716 28.0327 22.547 28.25 22 28.25C21.453 28.25 20.9284 28.0327 20.5416 27.6459C20.1548 27.2591 19.9375 26.7345 19.9375 26.1875V25.5H24.0625V26.1875ZM29.5625 24.125H14.4375V23.0346L16.2986 21.1736C16.4275 21.0447 16.5 20.8698 16.5 20.6875V17.9375C16.5 16.4788 17.0795 15.0799 18.1109 14.0484C19.1424 13.017 20.5413 12.4375 22 12.4375C23.4587 12.4375 24.8576 13.017 25.8891 14.0484C26.9205 15.0799 27.5 16.4788 27.5 17.9375V20.6875C27.5 20.8698 27.5725 21.0447 27.7014 21.1736L29.5625 23.0346V24.125Z" fill="#D6D6D6"/>
<defs>
<filter id="filter0_d_1403_6534" x="0" y="0.948853" width="43" height="47.1023" filterUnits="userSpaceOnUse" color-interpolation-filters="sRGB">
<feFlood flood-opacity="0" result="BackgroundImageFix"/>
<feColorMatrix in="SourceAlpha" type="matrix" values="0 0 0 0 0 0 0 0 0 0 0 0 0 0 0 0 0 0 127 0" result="hardAlpha"/>
<feOffset dy="4"/>
<feGaussianBlur stdDeviation="2"/>
<feComposite in2="hardAlpha" operator="out"/>
<feColorMatrix type="matrix" values="0 0 0 0 0.163947 0 0 0 0 0.160847 0 0 0 0 0.160847 0 0 0 0.28 0"/>
<feBlend mode="normal" in2="BackgroundImageFix" result="effect1_dropShadow_1403_6534"/>
<feBlend mode="normal" in="SourceGraphic" in2="effect1_dropShadow_1403_6534" result="shape"/>
</filter>
<linearGradient id="paint0_linear_1403_6534" x1="22.5" y1="41.5" x2="22.5" y2="-20" gradientUnits="userSpaceOnUse">
<stop stop-color="#5161A2"/>
<stop offset="1" stop-color="#0C101F"/>
</linearGradient>
</defs>
</svg>
