
<svg width="31" height="31" viewBox="0 0 31 31" fill="none" xmlns="http://www.w3.org/2000/svg">
<g clip-path="url(#clip0_1746_173)">
<path d="M27.6786 23.8369C26.8608 23.1078 26.1448 22.272 25.5499 21.3519C24.8998 20.0821 24.5105 18.6951 24.4049 17.2725V13.0828C24.4106 10.8486 23.6001 8.68919 22.1259 7.01035C20.6516 5.33152 18.615 4.24882 16.3988 3.96567V2.87161C16.3988 2.57132 16.2795 2.28333 16.0672 2.071C15.8548 1.85867 15.5669 1.73938 15.2666 1.73938C14.9663 1.73938 14.6783 1.85867 14.466 2.071C14.2536 2.28333 14.1343 2.57132 14.1343 2.87161V3.98263C11.938 4.28619 9.92601 5.37544 8.47112 7.04863C7.01624 8.72182 6.21702 10.8656 6.22149 13.0828V17.2725C6.11595 18.6951 5.72665 20.0821 5.07654 21.3519C4.4921 22.2698 3.78758 23.1056 2.98172 23.8369C2.89125 23.9163 2.81874 24.0142 2.76903 24.1238C2.71931 24.2335 2.69351 24.3525 2.69336 24.4729V25.6264C2.69336 25.8513 2.78271 26.067 2.94176 26.2261C3.10082 26.3851 3.31654 26.4745 3.54147 26.4745H27.1189C27.3438 26.4745 27.5595 26.3851 27.7186 26.2261C27.8776 26.067 27.967 25.8513 27.967 25.6264V24.4729C27.9668 24.3525 27.9411 24.2335 27.8913 24.1238C27.8416 24.0142 27.7691 23.9163 27.6786 23.8369ZM4.45743 24.7783C5.24633 24.0158 5.94108 23.1616 6.52681 22.2339C7.3459 20.7005 7.8233 19.0079 7.92619 17.2725V13.0828C7.89255 12.0889 8.05928 11.0983 8.41643 10.1701C8.77359 9.24197 9.31387 8.39515 10.0051 7.68013C10.6964 6.9651 11.5244 6.39649 12.44 6.00814C13.3555 5.6198 14.3399 5.41967 15.3344 5.41967C16.3289 5.41967 17.3133 5.6198 18.2289 6.00814C19.1444 6.39649 19.9725 6.9651 20.6637 7.68013C21.355 8.39515 21.8952 9.24197 22.2524 10.1701C22.6096 11.0983 22.7763 12.0889 22.7426 13.0828V17.2725C22.8455 19.0079 23.3229 20.7005 24.142 22.2339C24.7278 23.1616 25.4225 24.0158 26.2114 24.7783H4.45743Z" fill="#B2B2B2"/>
<path d="M15.3725 29.3072C15.9068 29.2949 16.4195 29.0941 16.8199 28.7402C17.2204 28.3863 17.4827 27.9022 17.5607 27.3735H13.0996C13.1797 27.9166 13.4544 28.4121 13.8725 28.7677C14.2906 29.1234 14.8237 29.3152 15.3725 29.3072Z" fill="#B2B2B2"/>
</g>
<defs>
<clipPath id="clip0_1746_173">
<rect width="30.5319" height="30.5319" fill="white" transform="translate(0.106445 0.234009)"/>
</clipPath>
</defs>
</svg>
