<svg width="43" height="49" viewBox="0 0 43 49" fill="none" xmlns="http://www.w3.org/2000/svg">
<g filter="url(#filter0_d_1403_6568)">
<path d="M36.7091 9.80425L24.2091 1.74635C22.5595 0.683011 20.4405 0.683009 18.7909 1.74635L6.29094 9.80425C4.86285 10.7248 4 12.3077 4 14.0068V26.9933C4 28.6923 4.86285 30.2752 6.29093 31.1957L18.7909 39.2537C20.4405 40.317 22.5595 40.317 24.2091 39.2537L36.7091 31.1957C38.1371 30.2752 39 28.6923 39 26.9932V14.0067C39 12.3077 38.1371 10.7248 36.7091 9.80425Z" fill="url(#paint0_linear_1403_6568)"/>
</g>
<path d="M22.6663 22.4999C22.6663 23.4249 21.9247 24.1666 20.9997 24.1666C20.5576 24.1666 20.1337 23.991 19.8212 23.6784C19.5086 23.3659 19.333 22.9419 19.333 22.4999C19.333 21.5749 20.0747 20.8333 20.9997 20.8333C21.4417 20.8333 21.8656 21.0088 22.1782 21.3214C22.4907 21.634 22.6663 22.0579 22.6663 22.4999ZM21.908 26.6666C22.008 27.2666 22.2163 27.8249 22.508 28.3333H15.9997C15.5576 28.3333 15.1337 28.1577 14.8212 27.8451C14.5086 27.5325 14.333 27.1086 14.333 26.6666V18.3333C14.333 17.4083 15.0747 16.6666 15.9997 16.6666H16.833V14.9999C16.833 12.6999 18.6997 10.8333 20.9997 10.8333C23.2997 10.8333 25.1663 12.6999 25.1663 14.9999V16.6666H25.9997C26.4417 16.6666 26.8656 16.8422 27.1782 17.1547C27.4907 17.4673 27.6663 17.8912 27.6663 18.3333V20.9083C27.3913 20.8666 27.1163 20.8333 26.833 20.8333C26.5497 20.8333 26.2747 20.8666 25.9997 20.9083V18.3333H15.9997V26.6666H21.908ZM18.4997 16.6666H23.4997V14.9999C23.4997 13.6166 22.383 12.4999 20.9997 12.4999C19.6163 12.4999 18.4997 13.6166 18.4997 14.9999V16.6666Z" fill="#D6D6D6"/>
<path d="M25.2144 24.6133C24.5233 24.8445 24 25.3922 24 26.25C24 27.2812 24.8438 28 25.875 28H28.7558M31.0597 27.6522C31.3319 27.4266 31.5 27.0877 31.5 26.625C31.5 25.6903 30.6719 25.285 30 25.25C29.8611 23.8509 28.8906 23 27.75 23C27.3413 23 26.9877 23.1083 26.6937 23.2834" stroke="#D6D6D6" stroke-width="0.8" stroke-linecap="round" stroke-linejoin="round"/>
<path d="M31 29L25 23" stroke="#D6D6D6" stroke-width="0.5" stroke-miterlimit="10" stroke-linecap="round"/>
<defs>
<filter id="filter0_d_1403_6568" x="0" y="0.948853" width="43" height="47.1023" filterUnits="userSpaceOnUse" color-interpolation-filters="sRGB">
<feFlood flood-opacity="0" result="BackgroundImageFix"/>
<feColorMatrix in="SourceAlpha" type="matrix" values="0 0 0 0 0 0 0 0 0 0 0 0 0 0 0 0 0 0 127 0" result="hardAlpha"/>
<feOffset dy="4"/>
<feGaussianBlur stdDeviation="2"/>
<feComposite in2="hardAlpha" operator="out"/>
<feColorMatrix type="matrix" values="0 0 0 0 0.163947 0 0 0 0 0.160847 0 0 0 0 0.160847 0 0 0 0.28 0"/>
<feBlend mode="normal" in2="BackgroundImageFix" result="effect1_dropShadow_1403_6568"/>
<feBlend mode="normal" in="SourceGraphic" in2="effect1_dropShadow_1403_6568" result="shape"/>
</filter>
<linearGradient id="paint0_linear_1403_6568" x1="22.5" y1="41.5" x2="22.5" y2="-20" gradientUnits="userSpaceOnUse">
<stop stop-color="#5161A2"/>
<stop offset="1" stop-color="#0C101F"/>
</linearGradient>
</defs>
</svg>
