
<svg width="31" height="31" viewBox="0 0 31 31" fill="none" xmlns="http://www.w3.org/2000/svg">
<path d="M12.5423 23.65L14.9352 21.2571C15.0777 21.2355 15.2233 21.2246 15.3722 21.2246C15.957 21.2249 16.5276 21.4042 17.0074 21.7385C17.4872 22.0728 17.8531 22.546 18.0559 23.0945C18.2586 23.643 18.2885 24.2404 18.1416 24.8064C17.9946 25.3724 17.6778 25.8798 17.2338 26.2604C16.7897 26.6409 16.2398 26.8763 15.658 26.935C15.0762 26.9936 14.4904 26.8726 13.9794 26.5883C13.4684 26.3039 13.0567 25.8699 12.7998 25.3446C12.5429 24.8193 12.453 24.2279 12.5423 23.65ZM18.162 18.0321L19.5741 16.62C20.263 17.017 20.8985 17.5112 21.4576 18.0932C21.6329 18.2757 21.7286 18.5203 21.7236 18.7733C21.7186 19.0263 21.6133 19.267 21.4309 19.4423C21.2484 19.6177 21.0038 19.7134 20.7508 19.7084C20.4978 19.7034 20.2571 19.5981 20.0817 19.4156C19.5321 18.8407 18.8813 18.3717 18.162 18.0321ZM22.2877 13.9046L23.654 12.5402C24.243 12.9842 24.7964 13.4753 25.3141 14.0134C25.4009 14.1039 25.4689 14.2105 25.5144 14.3273C25.5599 14.444 25.5819 14.5686 25.5792 14.6939C25.5766 14.8192 25.5493 14.9427 25.4989 15.0574C25.4485 15.1721 25.376 15.2758 25.2855 15.3625C25.1951 15.4492 25.0884 15.5173 24.9716 15.5627C24.8549 15.6082 24.7303 15.6303 24.605 15.6276C24.4797 15.625 24.3562 15.5977 24.2415 15.5473C24.1268 15.4969 24.0231 15.4244 23.9364 15.3339C23.4313 14.8085 22.8794 14.3301 22.2877 13.9046ZM13.5803 11.817C11.0222 12.2057 8.66208 13.4223 6.86142 15.2805C6.68439 15.4589 6.44408 15.5603 6.19271 15.5626C5.94134 15.5649 5.69922 15.4679 5.51897 15.2927C5.33873 15.1174 5.23491 14.8782 5.23009 14.6268C5.22526 14.3755 5.31982 14.1324 5.49321 13.9504C6.80526 12.597 8.38176 11.5281 10.1246 10.8102C11.8675 10.0922 13.7395 9.74055 15.6241 9.77708L13.5803 11.817ZM26.3122 9.88204L27.667 8.52718C28.1899 8.96735 28.6898 9.43551 29.1669 9.93165C29.3315 10.116 29.4181 10.357 29.4086 10.6039C29.3991 10.8508 29.2942 11.0844 29.1159 11.2555C28.9376 11.4266 28.6999 11.5219 28.4528 11.5213C28.2057 11.5206 27.9685 11.4242 27.791 11.2522C27.3253 10.7669 26.8315 10.3094 26.3122 9.88204ZM19.0475 6.35178C17.8401 6.08892 16.6079 5.95712 15.3722 5.95869C13.0699 5.9565 10.7907 6.41722 8.67009 7.31347C6.54944 8.20972 4.63064 9.5232 3.02776 11.1758C2.94077 11.2671 2.83655 11.3403 2.72112 11.3911C2.60569 11.4418 2.48133 11.4692 2.35525 11.4717C2.22916 11.4741 2.10385 11.4515 1.98655 11.4052C1.86925 11.3589 1.7623 11.2898 1.67188 11.2019C1.58145 11.114 1.50935 11.009 1.45974 10.8931C1.41013 10.7771 1.384 10.6525 1.38285 10.5264C1.38171 10.4003 1.40557 10.2752 1.45306 10.1584C1.50055 10.0416 1.57074 9.93531 1.65955 9.84578C3.44026 8.01021 5.57176 6.5513 7.92741 5.55574C10.2831 4.56017 12.8148 4.04827 15.3722 4.05044C17.1736 4.05044 18.9368 4.30042 20.6199 4.77939L19.0475 6.35178ZM15.3722 25.0411C15.6252 25.0411 15.8679 24.9406 16.0469 24.7617C16.2258 24.5827 16.3263 24.3401 16.3263 24.087C16.3263 23.834 16.2258 23.5913 16.0469 23.4123C15.8679 23.2334 15.6252 23.1329 15.3722 23.1329C15.1191 23.1329 14.8765 23.2334 14.6975 23.4123C14.5186 23.5913 14.4181 23.834 14.4181 24.087C14.4181 24.3401 14.5186 24.5827 14.6975 24.7617C14.8765 24.9406 15.1191 25.0411 15.3722 25.0411ZM5.02187 26.9494C4.84192 27.1232 4.60091 27.2193 4.35074 27.2172C4.10057 27.215 3.86127 27.1147 3.68437 26.9378C3.50746 26.7609 3.40712 26.5215 3.40495 26.2714C3.40277 26.0212 3.49894 25.7802 3.67274 25.6002L27.1003 2.4208C27.2794 2.24164 27.5224 2.14099 27.7758 2.14099C28.0292 2.14099 28.2721 2.24164 28.4513 2.4208C28.6305 2.59996 28.7311 2.84295 28.7311 3.09632C28.7311 3.34969 28.6305 3.59268 28.4513 3.77184L5.02187 26.9494Z" fill="#B2B2B2"/>
</svg>
