<svg width="43" height="49" viewBox="0 0 43 49" fill="none" xmlns="http://www.w3.org/2000/svg">
<g filter="url(#filter0_d_1403_6546)">
<path d="M36.7091 9.80425L24.2091 1.74635C22.5595 0.683011 20.4405 0.683009 18.7909 1.74635L6.29094 9.80425C4.86285 10.7248 4 12.3077 4 14.0068V26.9933C4 28.6923 4.86285 30.2752 6.29093 31.1957L18.7909 39.2537C20.4405 40.317 22.5595 40.317 24.2091 39.2537L36.7091 31.1957C38.1371 30.2752 39 28.6923 39 26.9932V14.0067C39 12.3077 38.1371 10.7248 36.7091 9.80425Z" fill="url(#paint0_linear_1403_6546)"/>
</g>
<path d="M28.6667 21.6667C28.8791 21.6669 29.0834 21.7483 29.2379 21.8941C29.3923 22.0399 29.4852 22.2392 29.4977 22.4512C29.5101 22.6632 29.4412 22.872 29.3048 23.0349C29.1685 23.1978 28.9751 23.3025 28.7642 23.3275L28.6667 23.3334H17.3451L19.2559 25.2442C19.4053 25.3942 19.4921 25.5954 19.4986 25.807C19.505 26.0187 19.4307 26.2248 19.2907 26.3836C19.1507 26.5424 18.9554 26.642 18.7447 26.662C18.5339 26.6821 18.3234 26.6212 18.1559 26.4917L18.0776 26.4225L14.8859 23.2309C14.3317 22.6775 14.6867 21.745 15.4384 21.6717L15.5342 21.6667H28.6667ZM24.7442 13.5775C24.8877 13.4341 25.0786 13.3479 25.2812 13.3351C25.4837 13.3224 25.6839 13.384 25.8442 13.5084L25.9226 13.5775L29.1142 16.7692C29.6684 17.3225 29.3134 18.255 28.5617 18.3284L28.4659 18.3334H15.3334C15.121 18.3331 14.9167 18.2518 14.7622 18.106C14.6078 17.9602 14.5149 17.7609 14.5024 17.5489C14.49 17.3368 14.5589 17.1281 14.6953 16.9652C14.8316 16.8023 15.025 16.6976 15.2359 16.6725L15.3334 16.6667H26.6551L24.7442 14.7559C24.588 14.5996 24.5002 14.3877 24.5002 14.1667C24.5002 13.9457 24.588 13.7338 24.7442 13.5775Z" fill="#D6D6D6"/>
<defs>
<filter id="filter0_d_1403_6546" x="0" y="0.948853" width="43" height="47.1023" filterUnits="userSpaceOnUse" color-interpolation-filters="sRGB">
<feFlood flood-opacity="0" result="BackgroundImageFix"/>
<feColorMatrix in="SourceAlpha" type="matrix" values="0 0 0 0 0 0 0 0 0 0 0 0 0 0 0 0 0 0 127 0" result="hardAlpha"/>
<feOffset dy="4"/>
<feGaussianBlur stdDeviation="2"/>
<feComposite in2="hardAlpha" operator="out"/>
<feColorMatrix type="matrix" values="0 0 0 0 0.163947 0 0 0 0 0.160847 0 0 0 0 0.160847 0 0 0 0.28 0"/>
<feBlend mode="normal" in2="BackgroundImageFix" result="effect1_dropShadow_1403_6546"/>
<feBlend mode="normal" in="SourceGraphic" in2="effect1_dropShadow_1403_6546" result="shape"/>
</filter>
<linearGradient id="paint0_linear_1403_6546" x1="22.5" y1="41.5" x2="22.5" y2="-20" gradientUnits="userSpaceOnUse">
<stop stop-color="#5161A2"/>
<stop offset="1" stop-color="#0C101F"/>
</linearGradient>
</defs>
</svg>
