
<svg width="31" height="31" viewBox="0 0 31 31" fill="none" xmlns="http://www.w3.org/2000/svg">
<path d="M14.0999 28.2216C13.0592 28.2216 12.0644 27.8018 10.076 26.9621C5.12602 24.8707 2.65039 23.8237 2.65039 22.0643V9.13914M14.0999 28.2216V14.6794M14.0999 28.2216C14.5324 28.2216 14.9217 28.1491 15.372 28.0028M25.5493 9.13914V14.8639M6.46688 15.5L9.01121 16.7721M20.4607 5.32265L7.73904 11.6835M25.7173 25.8795L28.0937 28.2216M9.42593 12.5625L5.70994 10.765C3.67067 9.77776 2.65039 9.28416 2.65039 8.50305C2.65039 7.72195 3.67067 7.22835 5.70994 6.24115L9.42466 4.44358C11.7209 3.33298 12.8659 2.77832 14.0999 2.77832C15.3339 2.77832 16.4801 3.33298 18.7738 4.44358L22.4898 6.24115C24.5291 7.22835 25.5493 7.72195 25.5493 8.50305C25.5493 9.28416 24.5291 9.77776 22.4898 10.765L18.7751 12.5625C16.4788 13.6731 15.3339 14.2278 14.0999 14.2278C12.8659 14.2278 11.7196 13.6731 9.42593 12.5625ZM27.0848 22.619C27.0843 23.2204 26.9654 23.8158 26.7348 24.3713C26.5041 24.9267 26.1664 25.4313 25.7407 25.8563C25.3151 26.2812 24.81 26.6181 24.2541 26.8478C23.6983 27.0775 23.1027 27.1955 22.5012 27.1949C21.8997 27.1956 21.3039 27.0778 20.7479 26.8482C20.1919 26.6185 19.6866 26.2816 19.2609 25.8567C18.8351 25.4318 18.4972 24.9271 18.2665 24.3716C18.0358 23.8161 17.9168 23.2205 17.9163 22.619C17.917 22.0176 18.0361 21.4221 18.2669 20.8668C18.4977 20.3114 18.8356 19.8069 19.2613 19.3821C19.6871 18.9573 20.1923 18.6205 20.7482 18.3909C21.3041 18.1614 21.8998 18.0436 22.5012 18.0443C23.7156 18.0433 24.8807 18.5246 25.7403 19.3825C26.5998 20.2404 27.0835 21.4046 27.0848 22.619Z" stroke="#B2B2B2" stroke-width="2" stroke-linecap="round" stroke-linejoin="round"/>
</svg>
