<svg width="15" height="15" viewBox="0 0 15 15" fill="none" xmlns="http://www.w3.org/2000/svg">
<path d="M7.49873 1.25C5.61873 1.25 4.39998 2.51188 2.95873 2.97188C2.37248 3.15938 2.07936 3.2525 1.96061 3.38437C1.84186 3.51562 1.80748 3.70875 1.73811 4.09375C0.994356 8.21625 2.61936 12.0275 6.49436 13.5113C6.90998 13.6706 7.11811 13.75 7.50061 13.75C7.88311 13.75 8.09186 13.67 8.50811 13.5106C12.3825 12.0275 14.0056 8.21625 13.2619 4.09375C13.1925 3.70875 13.1575 3.51563 13.0387 3.38375C12.92 3.25188 12.6275 3.15875 12.0412 2.97188C10.5994 2.51188 9.37873 1.25 7.49873 1.25Z" stroke="#B2B2B2" stroke-width="0.9375" stroke-linecap="round" stroke-linejoin="round"/>
<path d="M6.40634 6.2243C6.40634 6.1868 6.41134 5.97055 6.41259 5.6993C6.41259 5.45055 6.39134 5.2118 6.51009 4.99305C6.95384 4.1093 8.22884 4.1993 8.54384 5.0993C8.59821 5.24742 8.60196 5.4818 8.60009 5.6993C8.59821 5.97617 8.60384 6.2243 8.60384 6.2243M6.46071 6.48742C5.78571 6.48742 5.44821 6.97492 5.37321 7.27492C5.29821 7.57492 5.29821 8.66242 5.34321 9.11242C5.49321 9.67492 5.86821 9.90742 6.23571 9.98242C6.57321 10.0124 7.99821 10.0012 8.41071 10.0012C9.01071 10.0124 9.46071 9.78742 9.64821 9.11242C9.68571 8.88742 9.72321 7.64992 9.62946 7.27492C9.43071 6.67492 8.93571 6.48742 8.56071 6.48742H6.46071Z" stroke="#B2B2B2" stroke-width="0.9375" stroke-linecap="round" stroke-linejoin="round"/>
</svg>
