
<svg width="16" height="10" viewBox="0 0 16 15" fill="none" xmlns="http://www.w3.org/2000/svg">
<path d="M14.5379 3.75C14.0566 3.96875 13.5379 4.1125 13.0004 4.18125C13.5504 3.85 13.9754 3.325 14.1754 2.69375C13.6566 3.00625 13.0816 3.225 12.4754 3.35C11.9816 2.8125 11.2879 2.5 10.5004 2.5C9.03164 2.5 7.83164 3.7 7.83164 5.18125C7.83164 5.39375 7.85664 5.6 7.90039 5.79375C5.67539 5.68125 3.69414 4.6125 2.37539 2.99375C2.14414 3.3875 2.01289 3.85 2.01289 4.3375C2.01289 5.26875 2.48164 6.09375 3.20664 6.5625C2.76289 6.5625 2.35039 6.4375 1.98789 6.25V6.26875C1.98789 7.56875 2.91289 8.65625 4.13789 8.9C3.74466 9.00808 3.33166 9.02306 2.93164 8.94375C3.10139 9.47655 3.43385 9.94275 3.88228 10.2768C4.3307 10.6109 4.87255 10.7961 5.43164 10.8063C4.48393 11.5566 3.30915 11.9621 2.10039 11.9562C1.88789 11.9562 1.67539 11.9437 1.46289 11.9187C2.65039 12.6812 4.06289 13.125 5.57539 13.125C10.5004 13.125 13.2066 9.0375 13.2066 5.49375C13.2066 5.375 13.2066 5.2625 13.2004 5.14375C13.7254 4.76875 14.1754 4.29375 14.5379 3.75Z" fill="#FEFEFE"/>
</svg>
