
<svg width="1512" height="297" viewBox="0 0 1512 297" fill="none" xmlns="http://www.w3.org/2000/svg">
<g opacity="0.1">
<g opacity="0.3">
<path d="M132.74 239.048H197.674V105.102H199.519V101.273H195.492V96.3729H163.544V88.9269H151.338L149.515 84.0649H146.499V75.3779H145.826H145.154V84.0649H139.559V88.9269V94.5309V96.3729H134.923V101.273H130.895V105.102H132.74V239.048Z" fill="url(#paint0_linear_1493_8113)"/>
<path d="M147.034 74.1699C147.034 73.5019 146.493 72.9609 145.825 72.9609C145.158 72.9609 144.617 73.5019 144.617 74.1699C144.617 74.8369 145.158 75.3779 145.825 75.3779C146.493 75.3779 147.034 74.8369 147.034 74.1699Z" fill="url(#paint1_linear_1493_8113)"/>
<path d="M735.388 246.89V66.812L655.44 50.217L664.2 246.89H429.603V135.63H425.285V69.052H414.137V51.219H410.155V25.063H388.213V5.84H386.261V25.063H381.963V1H380.01V25.063H366.139V69.052H358.974V135.63H352.832V246.89H290.447V98.786H291.524V97.074H283.846V86.783H284.839V85.135H277.791V79.219H278.424V77.954H275.389V72.365H272.493H272.042V52.414H271.728H271.329H270.927V72.365H269.573V61.243H269.259H268.86H268.458V72.365H265.11V77.954H261.608V79.219H262.708V85.135H255.661V86.783H256.653V97.074H248.975V98.786H250.053V246.89H41.9893V267.089H891.247V246.89H735.388Z" fill="url(#paint2_linear_1493_8113)"/>
</g>
<path d="M875.977 265.072V246.889H850.417L840.743 175.318H839.291V166.72H834.209V175.318H832.95V172.102H829.393V175.318H822.024V167.822H819.991V162.613H805.508V167.822H803.475V175.318H801.442V218.304H788.568V109.236H784.333V85.316H782.978V109.236H779.759V76.055H778.404V109.236H775.609V91.275H774.254V109.236H749.269V186.654H721.489V236.808H695.545L674.944 198.836C678.417 196.836 681.682 194.431 684.679 191.643L688.904 196.151C687.997 196.944 687.423 198.108 687.423 199.407C687.423 201.795 689.359 203.731 691.747 203.731C694.135 203.731 696.071 201.795 696.071 199.407C696.071 197.019 694.135 195.083 691.747 195.083C690.831 195.083 689.983 195.368 689.284 195.854L685.029 191.314C685.389 190.973 685.746 190.627 686.098 190.275C690.556 185.816 694.126 180.707 696.721 175.161L701.426 177.333C701.34 177.672 701.295 178.026 701.295 178.392C701.295 180.78 703.231 182.716 705.619 182.716C708.007 182.716 709.943 180.78 709.943 178.392C709.943 176.004 708.007 174.068 705.619 174.068C703.767 174.068 702.187 175.233 701.571 176.871L696.923 174.725C699.789 168.452 701.412 161.633 701.667 154.572L706.732 154.737C706.794 157.071 708.704 158.944 711.053 158.944C713.441 158.944 715.377 157.008 715.377 154.62C715.377 152.232 713.441 150.296 711.053 150.296C708.787 150.296 706.93 152.039 706.745 154.257L701.681 154.092C701.694 153.596 701.702 153.099 701.702 152.601C701.702 146.298 700.614 140.163 698.529 134.409L702.76 132.851C703.424 134.384 704.951 135.457 706.728 135.457C709.116 135.457 711.052 133.521 711.052 131.133C711.052 128.745 709.116 126.809 706.728 126.809C704.34 126.809 702.404 128.745 702.404 131.133C702.404 131.573 702.47 131.999 702.593 132.4L698.364 133.957C695.954 127.493 692.279 121.52 687.466 116.346L690.776 113.244C691.552 113.985 692.603 114.441 693.761 114.441C696.149 114.441 698.085 112.506 698.085 110.117C698.085 107.729 696.149 105.793 693.761 105.793C691.373 105.793 689.437 107.729 689.437 110.117C689.437 111.174 689.817 112.142 690.447 112.893L687.137 115.995C686.796 115.635 686.45 115.278 686.098 114.926C681.086 109.913 675.25 106.023 668.897 103.38L670.718 98.946C671.131 99.077 671.571 99.149 672.027 99.149C674.415 99.149 676.351 97.213 676.351 94.825C676.351 92.437 674.415 90.501 672.027 90.501C669.639 90.501 667.703 92.437 667.703 94.825C667.703 96.587 668.757 98.101 670.269 98.775L668.453 103.198C662.768 100.894 656.678 99.583 650.396 99.356L650.593 93.296C650.639 93.297 650.684 93.299 650.73 93.299C653.118 93.299 655.054 91.363 655.054 88.975C655.054 86.587 653.118 84.651 650.73 84.651C648.342 84.651 646.406 86.587 646.406 88.975C646.406 91.154 648.017 92.955 650.113 93.254L649.915 99.34C649.419 99.326 648.922 99.319 648.424 99.319C642.376 99.319 636.482 100.32 630.931 102.244L629.188 97.298C630.761 96.651 631.868 95.105 631.868 93.298C631.868 90.91 629.932 88.974 627.544 88.974C625.156 88.974 623.22 90.91 623.22 93.298C623.22 95.686 625.156 97.622 627.544 97.622C627.957 97.622 628.356 97.563 628.734 97.455L630.478 102.403C623.746 104.804 617.53 108.569 612.17 113.555L609.01 110.183C609.717 109.413 610.149 108.387 610.149 107.26C610.149 104.872 608.213 102.936 605.825 102.936C603.437 102.936 601.501 104.871 601.501 107.26C601.501 109.648 603.437 111.584 605.825 111.584C606.913 111.584 607.906 111.182 608.666 110.519L611.82 113.885C611.46 114.226 611.103 114.573 610.751 114.925C606.293 119.383 602.723 124.493 600.128 130.039L596.113 128.185C596.259 127.752 596.338 127.289 596.338 126.808C596.338 124.42 594.402 122.484 592.014 122.484C589.626 122.484 587.69 124.42 587.69 126.808C587.69 129.196 589.626 131.132 592.014 131.132C593.75 131.132 595.246 130.109 595.934 128.632L599.926 130.475C597.061 136.748 595.437 143.568 595.182 150.628L590.028 150.461C589.964 148.128 588.055 146.257 585.707 146.257C583.319 146.257 581.383 148.193 581.383 150.581C581.383 152.969 583.319 154.905 585.707 154.905C587.974 154.905 589.832 153.161 590.015 150.942L595.168 151.109C595.155 151.605 595.147 152.102 595.147 152.6C595.147 158.902 596.235 165.038 598.32 170.791L594.089 172.349C593.425 170.816 591.898 169.743 590.12 169.743C587.732 169.743 585.796 171.679 585.796 174.067C585.796 176.455 587.732 178.391 590.12 178.391C592.508 178.391 594.444 176.455 594.444 174.067C594.444 173.627 594.378 173.201 594.255 172.801L598.484 171.244C600.893 177.708 604.568 183.68 609.382 188.855L606.072 191.957C605.296 191.216 604.245 190.76 603.087 190.76C600.699 190.76 598.763 192.695 598.763 195.084C598.763 197.472 600.699 199.408 603.087 199.408C605.475 199.408 607.411 197.472 607.411 195.084C607.411 194.027 607.031 193.059 606.401 192.308L609.712 189.206C610.053 189.566 610.399 189.923 610.751 190.275C614.127 193.65 617.876 196.517 621.905 198.836L601.304 236.808H584.619V211.065H577.818V162.183H580.463V161.12H522.019V162.183H524.664V186.835H518.935L513.468 214.931V122.788H511.069V89.418H498.994V76.713H492.534V66.042H490.267V47.748H489.681V66.042H487.414V76.7141H480.954V89.419H468.972V122.789H466.481V183.372H447.902V236.808H386.263V133.486H391.217V131.86H386.263V128.949H379.984V124.168H328.63V128.949H322.351V131.86H317.397V133.486H322.351V197.805H313.951V185.736H262.132V200.473H250.834V227.915H232.54V138.222H226.442V132.123H221.614V115.989H220.597V132.123H218.31V111.923H217.294V132.123H214.483V138.222H212.974V227.915H175.115V175.318H176.894V171.761H165.206V162.106H159.616V171.761H154.534V162.106H149.452V171.761H139.567V162.106H109.306V171.761H102.24V175.318H106.257V195.137H95.0766V239.857H79.7306V227.915H62.6466V253.959H41.9886V265.072H11.5186V296.921H903.201V265.072H875.977ZM674.258 197.568L667.123 184.416C669.41 183.067 671.54 181.478 673.477 179.685L683.696 190.591C680.79 193.294 677.624 195.627 674.258 197.568ZM647.549 155.372C647.724 155.427 647.906 155.466 648.093 155.488L647.011 188.762C642.745 188.597 638.667 187.691 634.901 186.168L647.549 155.372ZM634.457 185.986C633.239 185.474 632.055 184.897 630.909 184.26L646.784 154.999C646.886 155.069 646.993 155.132 647.104 155.189L634.457 185.986ZM648.573 155.504C648.776 155.494 648.974 155.463 649.164 155.413L660.231 186.813C656.53 188.094 652.558 188.791 648.427 188.791C648.114 188.791 647.802 188.787 647.491 188.779L648.573 155.504ZM649.616 155.253C649.775 155.181 649.927 155.096 650.069 154.999L665.944 184.26C664.267 185.192 662.509 185.994 660.683 186.654L649.616 155.253ZM652.288 157.071L672.985 179.159C671.092 180.91 669.012 182.462 666.779 183.782L652.288 157.071ZM651.382 155.403L650.784 154.3C650.846 154.214 650.903 154.124 650.956 154.032L681.18 167.984C679.25 172.075 676.578 175.75 673.336 178.831L651.382 155.403ZM651.159 153.597C651.236 153.387 651.288 153.165 651.315 152.935L684.589 154.017C684.403 158.826 683.276 163.397 681.385 167.551L651.159 153.597ZM651.33 152.455C651.319 152.238 651.284 152.027 651.228 151.825L682.472 140.322C683.86 144.158 684.618 148.293 684.618 152.601C684.618 152.914 684.614 153.225 684.606 153.537L651.33 152.455ZM651.063 151.374C650.966 151.167 650.846 150.973 650.705 150.795L674.986 128.043C678.136 131.447 680.64 135.454 682.305 139.871L651.063 151.374ZM650.377 150.444C650.189 150.274 649.978 150.129 649.75 150.011L662.397 119.214C667.058 121.172 671.227 124.078 674.658 127.691L650.377 150.444ZM649.305 149.829C649.13 149.774 648.948 149.735 648.761 149.713L649.843 116.44C654.108 116.604 658.187 117.511 661.953 119.034L649.305 149.829ZM648.281 149.697C648.078 149.707 647.88 149.738 647.69 149.787L636.623 118.387C640.324 117.106 644.295 116.409 648.427 116.409C648.74 116.409 649.052 116.413 649.363 116.421L648.281 149.697ZM647.238 149.948C647.017 150.047 646.81 150.174 646.622 150.323L623.869 126.042C627.394 122.781 631.566 120.21 636.17 118.548L647.238 149.948ZM646.271 150.65C646.128 150.808 646.003 150.982 645.898 151.168L615.674 137.215C617.603 133.124 620.276 129.449 623.519 126.368L646.271 150.65ZM645.695 151.604C645.618 151.815 645.566 152.036 645.539 152.266L612.265 151.184C612.451 146.375 613.578 141.804 615.469 137.65L645.695 151.604ZM645.524 152.747C645.535 152.964 645.57 153.174 645.626 153.376L614.382 164.879C612.994 161.043 612.236 156.909 612.236 152.6C612.236 152.287 612.24 151.975 612.248 151.664L645.524 152.747ZM645.791 153.827C645.869 153.995 645.962 154.153 646.07 154.301L645.872 154.666L621.868 177.158C618.718 173.754 616.214 169.747 614.549 165.33L645.791 153.827ZM645.145 156.004L630.075 183.781C627.163 182.061 624.511 179.946 622.195 177.509L645.145 156.004ZM630.565 184.893C631.734 185.542 632.941 186.131 634.183 186.652L628.502 200.485C626.77 199.764 625.078 198.948 623.432 198.04L630.565 184.893ZM634.628 186.835C638.471 188.39 642.634 189.314 646.988 189.482L646.503 204.402C640.396 204.181 634.475 202.906 628.948 200.667L634.628 186.835ZM647.468 189.5C647.787 189.508 648.106 189.513 648.427 189.513C652.642 189.513 656.694 188.801 660.47 187.493L665.44 201.594C660.041 203.464 654.309 204.438 648.427 204.438C647.945 204.438 647.463 204.431 646.983 204.417L647.468 189.5ZM660.924 187.333C662.786 186.661 664.579 185.843 666.289 184.893L673.422 198.041C671.005 199.374 668.489 200.509 665.894 201.435L660.924 187.333ZM685.081 189.254C684.74 189.595 684.395 189.93 684.046 190.261L673.829 179.357C677.139 176.213 679.867 172.462 681.836 168.287L695.415 174.556C692.89 179.949 689.417 184.919 685.081 189.254ZM695.616 174.12L682.038 167.852C683.969 163.613 685.119 158.948 685.308 154.039L700.229 154.524C699.98 161.39 698.401 168.021 695.616 174.12ZM700.264 152.601C700.264 153.083 700.257 153.564 700.244 154.045L685.327 153.56C685.335 153.241 685.339 152.921 685.339 152.601C685.339 148.204 684.565 143.986 683.149 140.073L697.179 134.908C699.206 140.504 700.264 146.471 700.264 152.601ZM686.417 117.332C691.097 122.364 694.67 128.171 697.013 134.456L682.981 139.623C681.282 135.115 678.726 131.025 675.511 127.551L686.417 117.332ZM685.081 115.946C685.422 116.287 685.757 116.632 686.088 116.981L675.184 127.198C671.682 123.511 667.428 120.545 662.671 118.548L668.352 104.715C674.53 107.287 680.206 111.071 685.081 115.946ZM650.351 100.798C656.458 101.019 662.379 102.294 667.906 104.533L662.225 118.366C658.382 116.811 654.219 115.887 649.865 115.719L650.351 100.798ZM648.427 100.764C648.909 100.764 649.391 100.771 649.871 100.784L649.386 115.701C649.067 115.693 648.748 115.689 648.427 115.689C644.212 115.689 640.16 116.401 636.384 117.708L631.414 103.607C636.813 101.737 642.545 100.764 648.427 100.764ZM630.96 103.766L635.93 117.868C631.232 119.564 626.974 122.187 623.377 125.516L613.158 114.61C618.37 109.763 624.415 106.102 630.96 103.766ZM611.773 115.946C612.114 115.605 612.46 115.27 612.808 114.939L623.026 125.843C619.716 128.987 616.988 132.738 615.019 136.914L601.44 130.645C603.964 125.252 607.437 120.282 611.773 115.946ZM601.238 131.081L614.816 137.349C612.885 141.588 611.735 146.254 611.546 151.162L596.625 150.677C596.874 143.812 598.453 137.181 601.238 131.081ZM596.59 152.601C596.59 152.119 596.597 151.637 596.61 151.157L611.527 151.642C611.519 151.96 611.515 152.28 611.515 152.601C611.515 156.997 612.289 161.215 613.705 165.129L599.675 170.295C597.648 164.697 596.59 158.73 596.59 152.601ZM610.437 187.869C605.757 182.837 602.184 177.03 599.84 170.745L613.872 165.578C615.571 170.086 618.127 174.176 621.342 177.65L610.437 187.869ZM611.773 189.254C611.432 188.913 611.097 188.568 610.766 188.219L621.67 178.002C624.038 180.496 626.752 182.658 629.732 184.416L622.597 197.568C618.687 195.314 615.049 192.531 611.773 189.254ZM622.745 199.308C624.437 200.242 626.176 201.079 627.955 201.82L626.134 206.254C625.721 206.123 625.281 206.052 624.825 206.052C622.437 206.052 620.501 207.988 620.501 210.376C620.501 212.764 622.437 214.7 624.825 214.7C627.213 214.7 629.149 212.764 629.149 210.376C629.149 208.614 628.095 207.1 626.583 206.426L628.399 202.003C634.084 204.307 640.174 205.618 646.456 205.845L646.308 210.379C643.967 210.432 642.084 212.346 642.084 214.7C642.084 217.088 644.02 219.024 646.408 219.024C648.796 219.024 650.732 217.088 650.732 214.7C650.732 212.44 648.998 210.587 646.788 210.394L646.936 205.859C647.432 205.873 647.929 205.88 648.427 205.88C654.475 205.88 660.369 204.879 665.92 202.955L667.474 207.363C666.003 208.053 664.983 209.547 664.983 211.279C664.983 213.667 666.919 215.603 669.307 215.603C671.695 215.603 673.631 213.667 673.631 211.279C673.631 208.891 671.695 206.955 669.307 206.955C668.822 206.955 668.356 207.036 667.92 207.184L666.373 202.796C669.04 201.844 671.625 200.679 674.109 199.309L694.454 236.809H602.399L622.745 199.308Z" fill="#D5D5D5"/>
<path d="M774.543 132.043C774.543 131.376 774.089 130.835 773.529 130.835C772.969 130.835 772.515 131.376 772.515 132.043C772.515 132.711 772.969 133.251 773.529 133.251C774.089 133.252 774.543 132.711 774.543 132.043Z" fill="url(#paint3_linear_1493_8113)"/>
<path d="M885.103 278.913L878.809 236.808H865.935V201.869H867.527V198.708H861.277V185.099H860.514V198.708H856.195V187.559H855.433V198.708H829.394V201.869H831.173V272.76H801.444V241.006H784.514V162.975H786.062V159.147H782.681V154.246H778.79V152.404V146.801V141.939H774.094V133.252H773.529H772.964V141.939H770.433L768.903 146.801H758.657V154.246H731.84V159.147H728.459V162.975H730.008V213.745H707.57V263.629L682.672 252.597V204.179H686.69V200.622H679.623V190.966H649.363V200.622H639.477V190.966H634.395V200.622H629.314V190.966H623.724V200.622H612.036V204.179H613.814V271.289H602.464V270.585H600.41V251.461H602.464V249.927H600.41V230.802H602.464V229.269H600.41V210.144H602.464V208.611H600.41V189.486H602.464V187.952H600.41V168.828H602.464V167.294H600.41V147.502H603.93V145.963H605.72V141.767H572.294V137.101H573.381V135.753H555.183V137.101H556.27V141.767H547.986V145.963H549.777V147.502H553.297V167.294H551.242V168.828H553.297V187.952H551.242V189.486H553.297V208.611H551.242V210.144H553.297V229.269H551.242V230.802H553.297V249.927H551.242V251.461H553.297V270.585H551.242V272.119H553.297V287.747H541.888V227.357H495.982V271.289H488.529V134.435H483.014V137.958L472.839 140.447V138.159H467.324V141.796L457.149 144.284V141.661H451.635V145.633L441.459 148.122V145.958H435.945V149.471L425.77 151.96V150.095H420.256V284.488H412.498V212.84H383.764V256.899H354.307V219.327H350.678V206.988H352.832V205.749H343.3V201.869H342.283V205.749H339.234V185.834H338.472V205.749H334.501V206.988H336.837V219.327H317.396V247.988H298.47L288.585 284.488H268.752V165.314H242.493V161.045H243.985V159.547H224.096V161.045H225.66V165.314V172.18V253.799H213.278V222.961H217.679V220.169H186.524V201.539H180.581V197.711H167.315V201.539H156.52V268.061H121.107V218.724H91.288V257.693H65.411V282.626H46.753V251.281H22.216V278.005H0V296.922H22.216H29.724H41.989H46.753H65.411H91.288H99.984H104.64H121.107H156.52H167.315H180.581H186.524H209.766H213.278H225.66H246.424H256.653H268.752H317.396H328.63H347.594H354.307H384.267H392.317H420.256H423.013H425.77H435.945H441.459H451.635H456.244H457.149H467.324H472.839H481.586H483.014H485.771H488.529H495.982H533.926H539.346H541.888H553.297H573.381H591.768H600.41H613.814H647.104H682.305H682.672H707.57H721.491H730.008H735.388H777.052H784.514H793.435H801.444H831.173H853.279H857.804H865.935H915.397V278.913H885.103Z" fill="url(#paint4_linear_1493_8113)"/>
</g>
<g opacity="0.1">
<g opacity="0.3">
<path d="M1042.74 238.048H1107.67V104.102H1109.52V100.273H1105.49V95.3729H1073.54V87.9269H1061.34L1059.51 83.0649H1056.5V74.3779H1055.83H1055.15V83.0649H1049.56V87.9269V93.5309V95.3729H1044.92V100.273H1040.89V104.102H1042.74V238.048Z" fill="url(#paint5_linear_1493_8113)"/>
<path d="M1057.03 73.1699C1057.03 72.5019 1056.49 71.9609 1055.83 71.9609C1055.16 71.9609 1054.62 72.5019 1054.62 73.1699C1054.62 73.8369 1055.16 74.3779 1055.83 74.3779C1056.49 74.3779 1057.03 73.8369 1057.03 73.1699Z" fill="url(#paint6_linear_1493_8113)"/>
<path d="M1645.39 245.89V65.812L1565.44 49.217L1574.2 245.89H1339.6V134.63H1335.29V68.052H1324.14V50.219H1320.16V24.063H1298.21V4.84H1296.26V24.063H1291.96V0H1290.01V24.063H1276.14V68.052H1268.97V134.63H1262.83V245.89H1200.45V97.786H1201.52V96.074H1193.85V85.783H1194.84V84.135H1187.79V78.219H1188.42V76.954H1185.39V71.365H1182.49H1182.04V51.414H1181.73H1181.33H1180.93V71.365H1179.57V60.243H1179.26H1178.86H1178.46V71.365H1175.11V76.954H1171.61V78.219H1172.71V84.135H1165.66V85.783H1166.65V96.074H1158.98V97.786H1160.05V245.89H951.989V266.089H1801.25V245.89H1645.39Z" fill="url(#paint7_linear_1493_8113)"/>
</g>
<path d="M1785.98 264.072V245.889H1760.42L1750.74 174.318H1749.29V165.72H1744.21V174.318H1742.95V171.102H1739.39V174.318H1732.02V166.822H1729.99V161.613H1715.51V166.822H1713.47V174.318H1711.44V217.304H1698.57V108.236H1694.33V84.316H1692.98V108.236H1689.76V75.055H1688.4V108.236H1685.61V90.275H1684.25V108.236H1659.27V185.654H1631.49V235.808H1605.54L1584.94 197.836C1588.42 195.836 1591.68 193.431 1594.68 190.643L1598.9 195.151C1598 195.944 1597.42 197.108 1597.42 198.407C1597.42 200.795 1599.36 202.731 1601.75 202.731C1604.13 202.731 1606.07 200.795 1606.07 198.407C1606.07 196.019 1604.13 194.083 1601.75 194.083C1600.83 194.083 1599.98 194.368 1599.28 194.854L1595.03 190.314C1595.39 189.973 1595.75 189.627 1596.1 189.275C1600.56 184.816 1604.13 179.707 1606.72 174.161L1611.43 176.333C1611.34 176.672 1611.29 177.026 1611.29 177.392C1611.29 179.78 1613.23 181.716 1615.62 181.716C1618.01 181.716 1619.94 179.78 1619.94 177.392C1619.94 175.004 1618.01 173.068 1615.62 173.068C1613.77 173.068 1612.19 174.233 1611.57 175.871L1606.92 173.725C1609.79 167.452 1611.41 160.633 1611.67 153.572L1616.73 153.737C1616.79 156.071 1618.7 157.944 1621.05 157.944C1623.44 157.944 1625.38 156.008 1625.38 153.62C1625.38 151.232 1623.44 149.296 1621.05 149.296C1618.79 149.296 1616.93 151.039 1616.74 153.257L1611.68 153.092C1611.69 152.596 1611.7 152.099 1611.7 151.601C1611.7 145.298 1610.61 139.163 1608.53 133.409L1612.76 131.851C1613.42 133.384 1614.95 134.457 1616.73 134.457C1619.12 134.457 1621.05 132.521 1621.05 130.133C1621.05 127.745 1619.12 125.809 1616.73 125.809C1614.34 125.809 1612.4 127.745 1612.4 130.133C1612.4 130.573 1612.47 130.999 1612.59 131.4L1608.36 132.957C1605.95 126.493 1602.28 120.52 1597.47 115.346L1600.78 112.244C1601.55 112.985 1602.6 113.441 1603.76 113.441C1606.15 113.441 1608.08 111.506 1608.08 109.117C1608.08 106.729 1606.15 104.793 1603.76 104.793C1601.37 104.793 1599.44 106.729 1599.44 109.117C1599.44 110.174 1599.82 111.142 1600.45 111.893L1597.14 114.995C1596.8 114.635 1596.45 114.278 1596.1 113.926C1591.09 108.913 1585.25 105.023 1578.9 102.38L1580.72 97.946C1581.13 98.077 1581.57 98.149 1582.03 98.149C1584.41 98.149 1586.35 96.213 1586.35 93.825C1586.35 91.437 1584.41 89.501 1582.03 89.501C1579.64 89.501 1577.7 91.437 1577.7 93.825C1577.7 95.587 1578.76 97.101 1580.27 97.775L1578.45 102.198C1572.77 99.894 1566.68 98.583 1560.4 98.356L1560.59 92.296C1560.64 92.297 1560.68 92.299 1560.73 92.299C1563.12 92.299 1565.05 90.363 1565.05 87.975C1565.05 85.587 1563.12 83.651 1560.73 83.651C1558.34 83.651 1556.41 85.587 1556.41 87.975C1556.41 90.154 1558.02 91.955 1560.11 92.254L1559.91 98.34C1559.42 98.326 1558.92 98.319 1558.42 98.319C1552.38 98.319 1546.48 99.32 1540.93 101.244L1539.19 96.298C1540.76 95.651 1541.87 94.105 1541.87 92.298C1541.87 89.91 1539.93 87.974 1537.54 87.974C1535.16 87.974 1533.22 89.91 1533.22 92.298C1533.22 94.686 1535.16 96.622 1537.54 96.622C1537.96 96.622 1538.36 96.563 1538.73 96.455L1540.48 101.403C1533.75 103.804 1527.53 107.569 1522.17 112.555L1519.01 109.183C1519.72 108.413 1520.15 107.387 1520.15 106.26C1520.15 103.872 1518.21 101.936 1515.82 101.936C1513.44 101.936 1511.5 103.871 1511.5 106.26C1511.5 108.648 1513.44 110.584 1515.82 110.584C1516.91 110.584 1517.91 110.182 1518.67 109.519L1521.82 112.885C1521.46 113.226 1521.1 113.573 1520.75 113.925C1516.29 118.383 1512.72 123.493 1510.13 129.039L1506.11 127.185C1506.26 126.752 1506.34 126.289 1506.34 125.808C1506.34 123.42 1504.4 121.484 1502.01 121.484C1499.63 121.484 1497.69 123.42 1497.69 125.808C1497.69 128.196 1499.63 130.132 1502.01 130.132C1503.75 130.132 1505.25 129.109 1505.93 127.632L1509.93 129.475C1507.06 135.748 1505.44 142.568 1505.18 149.628L1500.03 149.461C1499.96 147.128 1498.05 145.257 1495.71 145.257C1493.32 145.257 1491.38 147.193 1491.38 149.581C1491.38 151.969 1493.32 153.905 1495.71 153.905C1497.97 153.905 1499.83 152.161 1500.01 149.942L1505.17 150.109C1505.15 150.605 1505.15 151.102 1505.15 151.6C1505.15 157.902 1506.23 164.038 1508.32 169.791L1504.09 171.349C1503.42 169.816 1501.9 168.743 1500.12 168.743C1497.73 168.743 1495.8 170.679 1495.8 173.067C1495.8 175.455 1497.73 177.391 1500.12 177.391C1502.51 177.391 1504.44 175.455 1504.44 173.067C1504.44 172.627 1504.38 172.201 1504.25 171.801L1508.48 170.244C1510.89 176.708 1514.57 182.68 1519.38 187.855L1516.07 190.957C1515.3 190.216 1514.24 189.76 1513.09 189.76C1510.7 189.76 1508.76 191.695 1508.76 194.084C1508.76 196.472 1510.7 198.408 1513.09 198.408C1515.47 198.408 1517.41 196.472 1517.41 194.084C1517.41 193.027 1517.03 192.059 1516.4 191.308L1519.71 188.206C1520.05 188.566 1520.4 188.923 1520.75 189.275C1524.13 192.65 1527.88 195.517 1531.9 197.836L1511.3 235.808H1494.62V210.065H1487.82V161.183H1490.46V160.12H1432.02V161.183H1434.66V185.835H1428.93L1423.47 213.931V121.788H1421.07V88.418H1408.99V75.713H1402.53V65.042H1400.27V46.748H1399.68V65.042H1397.41V75.7141H1390.95V88.419H1378.97V121.789H1376.48V182.372H1357.9V235.808H1296.26V132.486H1301.22V130.86H1296.26V127.949H1289.98V123.168H1238.63V127.949H1232.35V130.86H1227.4V132.486H1232.35V196.805H1223.95V184.736H1172.13V199.473H1160.83V226.915H1142.54V137.222H1136.44V131.123H1131.61V114.989H1130.6V131.123H1128.31V110.923H1127.29V131.123H1124.48V137.222H1122.97V226.915H1085.11V174.318H1086.89V170.761H1075.21V161.106H1069.62V170.761H1064.53V161.106H1059.45V170.761H1049.57V161.106H1019.31V170.761H1012.24V174.318H1016.26V194.137H1005.08V238.857H989.731V226.915H972.647V252.959H951.989V264.072H921.519V295.921H1813.2V264.072H1785.98ZM1584.26 196.568L1577.12 183.416C1579.41 182.067 1581.54 180.478 1583.48 178.685L1593.7 189.591C1590.79 192.294 1587.62 194.627 1584.26 196.568ZM1557.55 154.372C1557.72 154.427 1557.91 154.466 1558.09 154.488L1557.01 187.762C1552.74 187.597 1548.67 186.691 1544.9 185.168L1557.55 154.372ZM1544.46 184.986C1543.24 184.474 1542.05 183.897 1540.91 183.26L1556.78 153.999C1556.89 154.069 1556.99 154.132 1557.1 154.189L1544.46 184.986ZM1558.57 154.504C1558.78 154.494 1558.97 154.463 1559.16 154.413L1570.23 185.813C1566.53 187.094 1562.56 187.791 1558.43 187.791C1558.11 187.791 1557.8 187.787 1557.49 187.779L1558.57 154.504ZM1559.62 154.253C1559.77 154.181 1559.93 154.096 1560.07 153.999L1575.94 183.26C1574.27 184.192 1572.51 184.994 1570.68 185.654L1559.62 154.253ZM1562.29 156.071L1582.98 178.159C1581.09 179.91 1579.01 181.462 1576.78 182.782L1562.29 156.071ZM1561.38 154.403L1560.78 153.3C1560.85 153.214 1560.9 153.124 1560.96 153.032L1591.18 166.984C1589.25 171.075 1586.58 174.75 1583.34 177.831L1561.38 154.403ZM1561.16 152.597C1561.24 152.387 1561.29 152.165 1561.31 151.935L1594.59 153.017C1594.4 157.826 1593.28 162.397 1591.38 166.551L1561.16 152.597ZM1561.33 151.455C1561.32 151.238 1561.28 151.027 1561.23 150.825L1592.47 139.322C1593.86 143.158 1594.62 147.293 1594.62 151.601C1594.62 151.914 1594.61 152.225 1594.61 152.537L1561.33 151.455ZM1561.06 150.374C1560.97 150.167 1560.85 149.973 1560.7 149.795L1584.99 127.043C1588.14 130.447 1590.64 134.454 1592.3 138.871L1561.06 150.374ZM1560.38 149.444C1560.19 149.274 1559.98 149.129 1559.75 149.011L1572.4 118.214C1577.06 120.172 1581.23 123.078 1584.66 126.691L1560.38 149.444ZM1559.3 148.829C1559.13 148.774 1558.95 148.735 1558.76 148.713L1559.84 115.44C1564.11 115.604 1568.19 116.511 1571.95 118.034L1559.3 148.829ZM1558.28 148.697C1558.08 148.707 1557.88 148.738 1557.69 148.787L1546.62 117.387C1550.32 116.106 1554.29 115.409 1558.43 115.409C1558.74 115.409 1559.05 115.413 1559.36 115.421L1558.28 148.697ZM1557.24 148.948C1557.02 149.047 1556.81 149.174 1556.62 149.323L1533.87 125.042C1537.39 121.781 1541.57 119.21 1546.17 117.548L1557.24 148.948ZM1556.27 149.65C1556.13 149.808 1556 149.982 1555.9 150.168L1525.67 136.215C1527.6 132.124 1530.28 128.449 1533.52 125.368L1556.27 149.65ZM1555.69 150.604C1555.62 150.815 1555.57 151.036 1555.54 151.266L1522.26 150.184C1522.45 145.375 1523.58 140.804 1525.47 136.65L1555.69 150.604ZM1555.52 151.747C1555.53 151.964 1555.57 152.174 1555.63 152.376L1524.38 163.879C1522.99 160.043 1522.24 155.909 1522.24 151.6C1522.24 151.287 1522.24 150.975 1522.25 150.664L1555.52 151.747ZM1555.79 152.827C1555.87 152.995 1555.96 153.153 1556.07 153.301L1555.87 153.666L1531.87 176.158C1528.72 172.754 1526.21 168.747 1524.55 164.33L1555.79 152.827ZM1555.14 155.004L1540.07 182.781C1537.16 181.061 1534.51 178.946 1532.19 176.509L1555.14 155.004ZM1540.56 183.893C1541.73 184.542 1542.94 185.131 1544.18 185.652L1538.5 199.485C1536.77 198.764 1535.08 197.948 1533.43 197.04L1540.56 183.893ZM1544.63 185.835C1548.47 187.39 1552.63 188.314 1556.99 188.482L1556.5 203.402C1550.4 203.181 1544.47 201.906 1538.95 199.667L1544.63 185.835ZM1557.47 188.5C1557.79 188.508 1558.11 188.513 1558.43 188.513C1562.64 188.513 1566.69 187.801 1570.47 186.493L1575.44 200.594C1570.04 202.464 1564.31 203.438 1558.43 203.438C1557.94 203.438 1557.46 203.431 1556.98 203.417L1557.47 188.5ZM1570.92 186.333C1572.79 185.661 1574.58 184.843 1576.29 183.893L1583.42 197.041C1581 198.374 1578.49 199.509 1575.89 200.435L1570.92 186.333ZM1595.08 188.254C1594.74 188.595 1594.39 188.93 1594.05 189.261L1583.83 178.357C1587.14 175.213 1589.87 171.462 1591.84 167.287L1605.41 173.556C1602.89 178.949 1599.42 183.919 1595.08 188.254ZM1605.62 173.12L1592.04 166.852C1593.97 162.613 1595.12 157.948 1595.31 153.039L1610.23 153.524C1609.98 160.39 1608.4 167.021 1605.62 173.12ZM1610.26 151.601C1610.26 152.083 1610.26 152.564 1610.24 153.045L1595.33 152.56C1595.33 152.241 1595.34 151.921 1595.34 151.601C1595.34 147.204 1594.56 142.986 1593.15 139.073L1607.18 133.908C1609.21 139.504 1610.26 145.471 1610.26 151.601ZM1596.42 116.332C1601.1 121.364 1604.67 127.171 1607.01 133.456L1592.98 138.623C1591.28 134.115 1588.73 130.025 1585.51 126.551L1596.42 116.332ZM1595.08 114.946C1595.42 115.287 1595.76 115.632 1596.09 115.981L1585.18 126.198C1581.68 122.511 1577.43 119.545 1572.67 117.548L1578.35 103.715C1584.53 106.287 1590.21 110.071 1595.08 114.946ZM1560.35 99.798C1566.46 100.019 1572.38 101.294 1577.91 103.533L1572.22 117.366C1568.38 115.811 1564.22 114.887 1559.86 114.719L1560.35 99.798ZM1558.43 99.764C1558.91 99.764 1559.39 99.771 1559.87 99.784L1559.39 114.701C1559.07 114.693 1558.75 114.689 1558.43 114.689C1554.21 114.689 1550.16 115.401 1546.38 116.708L1541.41 102.607C1546.81 100.737 1552.54 99.764 1558.43 99.764ZM1540.96 102.766L1545.93 116.868C1541.23 118.564 1536.97 121.187 1533.38 124.516L1523.16 113.61C1528.37 108.763 1534.41 105.102 1540.96 102.766ZM1521.77 114.946C1522.11 114.605 1522.46 114.27 1522.81 113.939L1533.03 124.843C1529.72 127.987 1526.99 131.738 1525.02 135.914L1511.44 129.645C1513.96 124.252 1517.44 119.282 1521.77 114.946ZM1511.24 130.081L1524.82 136.349C1522.88 140.588 1521.73 145.254 1521.55 150.162L1506.62 149.677C1506.87 142.812 1508.45 136.181 1511.24 130.081ZM1506.59 151.601C1506.59 151.119 1506.6 150.637 1506.61 150.157L1521.53 150.642C1521.52 150.96 1521.51 151.28 1521.51 151.601C1521.51 155.997 1522.29 160.215 1523.7 164.129L1509.67 169.295C1507.65 163.697 1506.59 157.73 1506.59 151.601ZM1520.44 186.869C1515.76 181.837 1512.18 176.03 1509.84 169.745L1523.87 164.578C1525.57 169.086 1528.13 173.176 1531.34 176.65L1520.44 186.869ZM1521.77 188.254C1521.43 187.913 1521.1 187.568 1520.77 187.219L1531.67 177.002C1534.04 179.496 1536.75 181.658 1539.73 183.416L1532.6 196.568C1528.69 194.314 1525.05 191.531 1521.77 188.254ZM1532.74 198.308C1534.44 199.242 1536.18 200.079 1537.95 200.82L1536.13 205.254C1535.72 205.123 1535.28 205.052 1534.82 205.052C1532.44 205.052 1530.5 206.988 1530.5 209.376C1530.5 211.764 1532.44 213.7 1534.82 213.7C1537.21 213.7 1539.15 211.764 1539.15 209.376C1539.15 207.614 1538.09 206.1 1536.58 205.426L1538.4 201.003C1544.08 203.307 1550.17 204.618 1556.46 204.845L1556.31 209.379C1553.97 209.432 1552.08 211.346 1552.08 213.7C1552.08 216.088 1554.02 218.024 1556.41 218.024C1558.8 218.024 1560.73 216.088 1560.73 213.7C1560.73 211.44 1559 209.587 1556.79 209.394L1556.94 204.859C1557.43 204.873 1557.93 204.88 1558.43 204.88C1564.47 204.88 1570.37 203.879 1575.92 201.955L1577.47 206.363C1576 207.053 1574.98 208.547 1574.98 210.279C1574.98 212.667 1576.92 214.603 1579.31 214.603C1581.69 214.603 1583.63 212.667 1583.63 210.279C1583.63 207.891 1581.69 205.955 1579.31 205.955C1578.82 205.955 1578.36 206.036 1577.92 206.184L1576.37 201.796C1579.04 200.844 1581.62 199.679 1584.11 198.309L1604.45 235.809H1512.4L1532.74 198.308Z" fill="#D5D5D5"/>
<path d="M1795.1 277.913L1788.81 235.808H1775.93V200.869H1777.53V197.708H1771.28V184.099H1770.51V197.708H1766.19V186.559H1765.43V197.708H1739.39V200.869H1741.17V271.76H1711.44V240.006H1694.51V161.975H1696.06V158.147H1692.68V153.246H1688.79V151.404V145.801V140.939H1684.09V132.252H1683.53H1682.96V140.939H1680.43L1678.9 145.801H1668.66V153.246H1641.84V158.147H1638.46V161.975H1640.01V212.745H1617.57V262.629L1592.67 251.597V203.179H1596.69V199.622H1589.62V189.966H1559.36V199.622H1549.48V189.966H1544.39V199.622H1539.31V189.966H1533.72V199.622H1522.04V203.179H1523.81V270.289H1512.46V269.585H1510.41V250.461H1512.46V248.927H1510.41V229.802H1512.46V228.269H1510.41V209.144H1512.46V207.611H1510.41V188.486H1512.46V186.952H1510.41V167.828H1512.46V166.294H1510.41V146.502H1513.93V144.963H1515.72V140.767H1482.29V136.101H1483.38V134.753H1465.18V136.101H1466.27V140.767H1457.99V144.963H1459.78V146.502H1463.3V166.294H1461.24V167.828H1463.3V186.952H1461.24V188.486H1463.3V207.611H1461.24V209.144H1463.3V228.269H1461.24V229.802H1463.3V248.927H1461.24V250.461H1463.3V269.585H1461.24V271.119H1463.3V286.747H1451.89V226.357H1405.98V270.289H1398.53V133.435H1393.01V136.958L1382.84 139.447V137.159H1377.32V140.796L1367.15 143.284V140.661H1361.64V144.633L1351.46 147.122V144.958H1345.95V148.471L1335.77 150.96V149.095H1330.26V283.488H1322.5V211.84H1293.76V255.899H1264.31V218.327H1260.68V205.988H1262.83V204.749H1253.3V200.869H1252.28V204.749H1249.23V184.834H1248.47V204.749H1244.5V205.988H1246.84V218.327H1227.4V246.988H1208.47L1198.58 283.488H1178.75V164.314H1152.49V160.045H1153.99V158.547H1134.1V160.045H1135.66V164.314V171.18V252.799H1123.28V221.961H1127.68V219.169H1096.52V200.539H1090.58V196.711H1077.32V200.539H1066.52V267.061H1031.11V217.724H1001.29V256.693H975.411V281.626H956.753V250.281H932.216V277.005H910V295.922H932.216H939.724H951.989H956.753H975.411H1001.29H1009.98H1014.64H1031.11H1066.52H1077.32H1090.58H1096.52H1119.77H1123.28H1135.66H1156.42H1166.65H1178.75H1227.4H1238.63H1257.59H1264.31H1294.27H1302.32H1330.26H1333.01H1335.77H1345.95H1351.46H1361.64H1366.24H1367.15H1377.32H1382.84H1391.59H1393.01H1395.77H1398.53H1405.98H1443.93H1449.35H1451.89H1463.3H1483.38H1501.77H1510.41H1523.81H1557.1H1592.3H1592.67H1617.57H1631.49H1640.01H1645.39H1687.05H1694.51H1703.43H1711.44H1741.17H1763.28H1767.8H1775.93H1825.4V277.913H1795.1Z" fill="url(#paint8_linear_1493_8113)"/>
</g>
<defs>
<linearGradient id="paint0_linear_1493_8113" x1="165.207" y1="239.048" x2="165.207" y2="75.378" gradientUnits="userSpaceOnUse">
<stop stop-color="#403E40"/>
<stop offset="0.1275" stop-color="#4E4D4E"/>
<stop offset="0.3124" stop-color="#5A5A5A"/>
<stop offset="0.5479" stop-color="#626262"/>
<stop offset="1" stop-color="#646464"/>
</linearGradient>
<linearGradient id="paint1_linear_1493_8113" x1="145.826" y1="75.378" x2="145.826" y2="72.961" gradientUnits="userSpaceOnUse">
<stop stop-color="#403E40"/>
<stop offset="0.1275" stop-color="#4E4D4E"/>
<stop offset="0.3124" stop-color="#5A5A5A"/>
<stop offset="0.5479" stop-color="#626262"/>
<stop offset="1" stop-color="#646464"/>
</linearGradient>
<linearGradient id="paint2_linear_1493_8113" x1="466.619" y1="267.088" x2="466.619" y2="0.999603" gradientUnits="userSpaceOnUse">
<stop stop-color="#403E40"/>
<stop offset="0.1275" stop-color="#4E4D4E"/>
<stop offset="0.3124" stop-color="#5A5A5A"/>
<stop offset="0.5479" stop-color="#626262"/>
<stop offset="1" stop-color="#646464"/>
</linearGradient>
<linearGradient id="paint3_linear_1493_8113" x1="773.529" y1="130.835" x2="773.529" y2="133.252" gradientUnits="userSpaceOnUse">
<stop stop-color="white"/>
<stop offset="1" stop-color="#727272"/>
</linearGradient>
<linearGradient id="paint4_linear_1493_8113" x1="457.699" y1="133.252" x2="457.699" y2="296.921" gradientUnits="userSpaceOnUse">
<stop stop-color="white"/>
<stop offset="1" stop-color="#7A7A7A"/>
</linearGradient>
<linearGradient id="paint5_linear_1493_8113" x1="1075.21" y1="238.048" x2="1075.21" y2="74.378" gradientUnits="userSpaceOnUse">
<stop stop-color="#403E40"/>
<stop offset="0.1275" stop-color="#4E4D4E"/>
<stop offset="0.3124" stop-color="#5A5A5A"/>
<stop offset="0.5479" stop-color="#626262"/>
<stop offset="1" stop-color="#646464"/>
</linearGradient>
<linearGradient id="paint6_linear_1493_8113" x1="1055.83" y1="74.378" x2="1055.83" y2="71.961" gradientUnits="userSpaceOnUse">
<stop stop-color="#403E40"/>
<stop offset="0.1275" stop-color="#4E4D4E"/>
<stop offset="0.3124" stop-color="#5A5A5A"/>
<stop offset="0.5479" stop-color="#626262"/>
<stop offset="1" stop-color="#646464"/>
</linearGradient>
<linearGradient id="paint7_linear_1493_8113" x1="1376.62" y1="266.088" x2="1376.62" y2="-0.000396503" gradientUnits="userSpaceOnUse">
<stop stop-color="#403E40"/>
<stop offset="0.1275" stop-color="#4E4D4E"/>
<stop offset="0.3124" stop-color="#5A5A5A"/>
<stop offset="0.5479" stop-color="#626262"/>
<stop offset="1" stop-color="#646464"/>
</linearGradient>
<linearGradient id="paint8_linear_1493_8113" x1="1367.7" y1="132.252" x2="1367.7" y2="295.921" gradientUnits="userSpaceOnUse">
<stop stop-color="white"/>
<stop offset="1" stop-color="#7A7A7A"/>
</linearGradient>
</defs>
</svg>
