<svg width="1512" height="296" viewBox="0 0 1512 296" fill="none" xmlns="http://www.w3.org/2000/svg">
<g opacity="0.1">
<g opacity="0.3">
<path d="M132.74 238.048H197.674V104.102H199.519V100.273H195.492V95.3729H163.544V87.9269H151.338L149.515 83.0649H146.499V74.3779H145.826H145.154V83.0649H139.559V87.9269V93.5309V95.3729H134.923V100.273H130.895V104.102H132.74V238.048Z" fill="url(#paint0_linear_1688_297)"/>
<path d="M147.034 73.1699C147.034 72.5019 146.493 71.9609 145.825 71.9609C145.158 71.9609 144.617 72.5019 144.617 73.1699C144.617 73.8369 145.158 74.3779 145.825 74.3779C146.493 74.3779 147.034 73.8369 147.034 73.1699Z" fill="url(#paint1_linear_1688_297)"/>
<path d="M735.387 245.89V65.812L655.439 49.217L664.199 245.89H429.602V134.63H425.284V68.052H414.136V50.219H410.154V24.063H388.212V4.84H386.26V24.063H381.962V0H380.009V24.063H366.138V68.052H358.973V134.63H352.831V245.89H290.446V97.786H291.523V96.074H283.845V85.783H284.838V84.135H277.79V78.219H278.423V76.954H275.388V71.365H272.492H272.041V51.414H271.727H271.328H270.926V71.365H269.572V60.243H269.258H268.859H268.457V71.365H265.109V76.954H261.607V78.219H262.707V84.135H255.66V85.783H256.652V96.074H248.974V97.786H250.052V245.89H41.9883V266.089H891.246V245.89H735.387Z" fill="url(#paint2_linear_1688_297)"/>
</g>
<path d="M875.978 264.072V245.889H850.418L840.744 174.318H839.292V165.72H834.21V174.318H832.951V171.102H829.393V174.318H822.025V166.822H819.992V161.613H805.509V166.822H803.476V174.318H801.443V217.304H788.569V108.236H784.333V84.316H782.979V108.236H779.76V75.055H778.405V108.236H775.609V90.275H774.255V108.236H749.27V185.654H721.49V235.808H695.546L674.945 197.836C678.418 195.836 681.682 193.431 684.68 190.643L688.905 195.151C687.998 195.944 687.424 197.108 687.424 198.407C687.424 200.795 689.359 202.731 691.747 202.731C694.135 202.731 696.072 200.795 696.072 198.407C696.072 196.019 694.135 194.083 691.747 194.083C690.831 194.083 689.984 194.368 689.285 194.854L685.03 190.314C685.39 189.973 685.747 189.627 686.099 189.275C690.557 184.816 694.127 179.707 696.721 174.161L701.427 176.333C701.341 176.672 701.296 177.026 701.296 177.392C701.296 179.78 703.232 181.716 705.62 181.716C708.008 181.716 709.944 179.78 709.944 177.392C709.944 175.004 708.008 173.068 705.62 173.068C703.768 173.068 702.188 174.233 701.572 175.871L696.924 173.725C699.79 167.452 701.413 160.633 701.668 153.572L706.733 153.737C706.795 156.071 708.705 157.944 711.054 157.944C713.442 157.944 715.378 156.008 715.378 153.62C715.378 151.232 713.442 149.296 711.054 149.296C708.788 149.296 706.931 151.039 706.746 153.257L701.682 153.092C701.695 152.596 701.703 152.099 701.703 151.601C701.703 145.298 700.615 139.163 698.53 133.409L702.76 131.851C703.424 133.384 704.952 134.457 706.729 134.457C709.117 134.457 711.053 132.521 711.053 130.133C711.053 127.745 709.117 125.809 706.729 125.809C704.341 125.809 702.405 127.745 702.405 130.133C702.405 130.573 702.471 130.999 702.594 131.4L698.365 132.957C695.955 126.493 692.28 120.52 687.467 115.346L690.777 112.244C691.553 112.985 692.604 113.441 693.762 113.441C696.15 113.441 698.086 111.506 698.086 109.117C698.086 106.729 696.15 104.793 693.762 104.793C691.374 104.793 689.438 106.729 689.438 109.117C689.438 110.174 689.818 111.142 690.448 111.893L687.138 114.995C686.797 114.635 686.451 114.278 686.099 113.926C681.086 108.913 675.251 105.023 668.898 102.38L670.719 97.946C671.132 98.077 671.572 98.149 672.028 98.149C674.416 98.149 676.352 96.213 676.352 93.825C676.352 91.437 674.416 89.501 672.028 89.501C669.64 89.501 667.704 91.437 667.704 93.825C667.704 95.587 668.758 97.101 670.27 97.775L668.454 102.198C662.769 99.894 656.679 98.583 650.397 98.356L650.594 92.296C650.64 92.297 650.685 92.299 650.731 92.299C653.119 92.299 655.055 90.363 655.055 87.975C655.055 85.587 653.119 83.651 650.731 83.651C648.343 83.651 646.406 85.587 646.406 87.975C646.406 90.154 648.018 91.955 650.114 92.254L649.916 98.34C649.42 98.326 648.922 98.319 648.424 98.319C642.377 98.319 636.483 99.32 630.932 101.244L629.189 96.298C630.762 95.6511 631.869 94.105 631.869 92.298C631.869 89.91 629.932 87.974 627.544 87.974C625.156 87.974 623.221 89.91 623.221 92.298C623.221 94.6861 625.156 96.622 627.544 96.622C627.958 96.622 628.357 96.563 628.734 96.455L630.479 101.403C623.747 103.804 617.531 107.569 612.171 112.555L609.01 109.183C609.717 108.413 610.15 107.387 610.15 106.26C610.15 103.872 608.214 101.936 605.826 101.936C603.438 101.936 601.502 103.871 601.502 106.26C601.502 108.648 603.438 110.584 605.826 110.584C606.914 110.584 607.906 110.182 608.667 109.519L611.82 112.885C611.461 113.226 611.104 113.573 610.752 113.925C606.294 118.383 602.724 123.493 600.129 129.039L596.114 127.185C596.26 126.752 596.339 126.289 596.339 125.808C596.339 123.42 594.403 121.484 592.015 121.484C589.627 121.484 587.691 123.42 587.691 125.808C587.691 128.196 589.627 130.132 592.015 130.132C593.751 130.132 595.247 129.109 595.935 127.632L599.927 129.475C597.062 135.748 595.438 142.568 595.182 149.628L590.029 149.461C589.964 147.128 588.056 145.257 585.708 145.257C583.32 145.257 581.384 147.193 581.384 149.581C581.384 151.969 583.32 153.905 585.708 153.905C587.975 153.905 589.833 152.161 590.016 149.942L595.169 150.109C595.156 150.605 595.148 151.102 595.148 151.6C595.148 157.902 596.235 164.038 598.32 169.791L594.09 171.349C593.426 169.816 591.899 168.743 590.121 168.743C587.733 168.743 585.797 170.679 585.797 173.067C585.797 175.455 587.733 177.391 590.121 177.391C592.509 177.391 594.445 175.455 594.445 173.067C594.445 172.627 594.379 172.201 594.256 171.801L598.484 170.244C600.893 176.708 604.568 182.68 609.383 187.855L606.073 190.957C605.297 190.216 604.246 189.76 603.088 189.76C600.7 189.76 598.764 191.695 598.764 194.084C598.764 196.472 600.7 198.408 603.088 198.408C605.476 198.408 607.411 196.472 607.411 194.084C607.411 193.027 607.032 192.059 606.402 191.308L609.713 188.206C610.054 188.566 610.4 188.923 610.752 189.275C614.128 192.65 617.877 195.517 621.906 197.836L601.305 235.808H584.62V210.065H577.819V161.183H580.464V160.12H522.02V161.183H524.665V185.835H518.936L513.469 213.931V121.788H511.07V88.418H498.995V75.713H492.535V65.042H490.268V46.748H489.682V65.042H487.415V75.7141H480.955V88.419H468.973V121.789H466.482V182.372H447.903V235.808H386.264V132.486H391.218V130.86H386.264V127.949H379.985V123.168H328.631V127.949H322.352V130.86H317.398V132.486H322.352V196.805H313.952V184.736H262.133V199.473H250.835V226.915H232.541V137.222H226.443V131.123H221.615V114.989H220.598V131.123H218.311V110.923H217.295V131.123H214.484V137.222H212.975V226.915H175.116V174.318H176.895V170.761H165.207V161.106H159.617V170.761H154.535V161.106H149.453V170.761H139.568V161.106H109.307V170.761H102.241V174.318H106.258V194.137H95.0775V238.857H79.7315V226.915H62.6475V252.959H41.9895V264.072H11.5195V295.921H903.202V264.072H875.978ZM674.259 196.568L667.124 183.416C669.411 182.067 671.541 180.478 673.478 178.685L683.697 189.591C680.791 192.294 677.625 194.627 674.259 196.568ZM647.549 154.372C647.724 154.427 647.906 154.466 648.094 154.488L647.012 187.762C642.746 187.597 638.668 186.691 634.902 185.168L647.549 154.372ZM634.458 184.986C633.24 184.474 632.056 183.897 630.91 183.26L646.785 153.999C646.887 154.069 646.994 154.132 647.105 154.189L634.458 184.986ZM648.574 154.504C648.777 154.494 648.975 154.463 649.165 154.413L660.232 185.813C656.531 187.094 652.559 187.791 648.428 187.791C648.115 187.791 647.802 187.787 647.492 187.779L648.574 154.504ZM649.617 154.253C649.776 154.181 649.927 154.096 650.07 153.999L665.945 183.26C664.268 184.192 662.51 184.994 660.684 185.654L649.617 154.253ZM652.289 156.071L672.986 178.159C671.093 179.91 669.013 181.462 666.78 182.782L652.289 156.071ZM651.383 154.403L650.785 153.3C650.847 153.214 650.904 153.124 650.957 153.032L681.181 166.984C679.251 171.075 676.579 174.75 673.337 177.831L651.383 154.403ZM651.16 152.597C651.237 152.387 651.289 152.165 651.316 151.935L684.59 153.017C684.404 157.826 683.276 162.397 681.385 166.551L651.16 152.597ZM651.331 151.455C651.32 151.238 651.285 151.027 651.229 150.825L682.473 139.322C683.861 143.158 684.619 147.293 684.619 151.601C684.619 151.914 684.615 152.225 684.607 152.537L651.331 151.455ZM651.064 150.374C650.967 150.167 650.846 149.973 650.706 149.795L674.987 127.043C678.137 130.447 680.641 134.454 682.306 138.871L651.064 150.374ZM650.378 149.444C650.19 149.274 649.979 149.129 649.751 149.011L662.398 118.214C667.059 120.172 671.227 123.078 674.659 126.691L650.378 149.444ZM649.306 148.829C649.131 148.774 648.949 148.735 648.762 148.713L649.844 115.44C654.109 115.604 658.188 116.511 661.954 118.034L649.306 148.829ZM648.281 148.697C648.078 148.707 647.881 148.738 647.691 148.787L636.624 117.387C640.325 116.106 644.296 115.409 648.428 115.409C648.741 115.409 649.053 115.413 649.364 115.421L648.281 148.697ZM647.239 148.948C647.018 149.047 646.81 149.174 646.622 149.323L623.87 125.042C627.395 121.781 631.567 119.21 636.171 117.548L647.239 148.948ZM646.272 149.65C646.129 149.808 646.003 149.982 645.898 150.168L615.674 136.215C617.604 132.124 620.277 128.449 623.52 125.368L646.272 149.65ZM645.695 150.604C645.618 150.815 645.567 151.036 645.54 151.266L612.266 150.184C612.451 145.375 613.579 140.804 615.47 136.65L645.695 150.604ZM645.525 151.747C645.536 151.964 645.57 152.174 645.627 152.376L614.383 163.879C612.995 160.043 612.237 155.909 612.237 151.6C612.237 151.287 612.241 150.975 612.249 150.664L645.525 151.747ZM645.792 152.827C645.87 152.995 645.963 153.153 646.07 153.301L645.872 153.666L621.869 176.158C618.719 172.754 616.214 168.747 614.549 164.33L645.792 152.827ZM645.146 155.004L630.076 182.781C627.164 181.061 624.511 178.946 622.195 176.509L645.146 155.004ZM630.566 183.893C631.735 184.542 632.942 185.131 634.184 185.652L628.503 199.485C626.771 198.764 625.078 197.948 623.432 197.04L630.566 183.893ZM634.629 185.835C638.472 187.39 642.635 188.314 646.989 188.482L646.504 203.402C640.397 203.181 634.476 201.906 628.949 199.667L634.629 185.835ZM647.469 188.5C647.787 188.508 648.107 188.513 648.428 188.513C652.643 188.513 656.695 187.801 660.471 186.493L665.441 200.594C660.042 202.464 654.31 203.438 648.428 203.438C647.946 203.438 647.464 203.431 646.984 203.417L647.469 188.5ZM660.924 186.333C662.786 185.661 664.58 184.843 666.29 183.893L673.423 197.041C671.006 198.374 668.49 199.509 665.895 200.435L660.924 186.333ZM685.082 188.254C684.741 188.595 684.396 188.93 684.047 189.261L673.83 178.357C677.14 175.213 679.868 171.462 681.837 167.287L695.416 173.556C692.891 178.949 689.418 183.919 685.082 188.254ZM695.617 173.12L682.039 166.852C683.97 162.613 685.12 157.948 685.309 153.039L700.23 153.524C699.981 160.39 698.401 167.021 695.617 173.12ZM700.265 151.601C700.265 152.083 700.258 152.564 700.245 153.045L685.328 152.56C685.336 152.241 685.34 151.921 685.34 151.601C685.34 147.204 684.566 142.986 683.15 139.073L697.18 133.908C699.206 139.504 700.265 145.471 700.265 151.601ZM686.418 116.332C691.098 121.364 694.671 127.171 697.014 133.456L682.982 138.623C681.283 134.115 678.727 130.025 675.512 126.551L686.418 116.332ZM685.082 114.946C685.423 115.287 685.758 115.632 686.089 115.981L675.185 126.198C671.682 122.511 667.429 119.545 662.672 117.548L668.353 103.715C674.531 106.287 680.207 110.071 685.082 114.946ZM650.352 99.798C656.458 100.019 662.38 101.294 667.906 103.533L662.226 117.366C658.383 115.811 654.22 114.887 649.866 114.719L650.352 99.798ZM648.428 99.764C648.91 99.764 649.392 99.771 649.872 99.784L649.387 114.701C649.068 114.693 648.749 114.689 648.428 114.689C644.213 114.689 640.161 115.401 636.385 116.708L631.415 102.607C636.814 100.737 642.546 99.764 648.428 99.764ZM630.961 102.766L635.931 116.868C631.233 118.564 626.974 121.187 623.378 124.516L613.159 113.61C618.37 108.763 624.416 105.102 630.961 102.766ZM611.773 114.946C612.115 114.605 612.461 114.27 612.809 113.939L623.027 124.843C619.717 127.987 616.989 131.738 615.02 135.914L601.441 129.645C603.965 124.252 607.438 119.282 611.773 114.946ZM601.239 130.081L614.817 136.349C612.885 140.588 611.736 145.254 611.547 150.162L596.626 149.677C596.875 142.812 598.454 136.181 601.239 130.081ZM596.591 151.601C596.591 151.119 596.598 150.637 596.611 150.157L611.528 150.642C611.52 150.96 611.516 151.28 611.516 151.601C611.516 155.997 612.289 160.215 613.706 164.129L599.676 169.295C597.649 163.697 596.591 157.73 596.591 151.601ZM610.438 186.869C605.758 181.837 602.185 176.03 599.841 169.745L613.872 164.578C615.571 169.086 618.128 173.176 621.343 176.65L610.438 186.869ZM611.773 188.254C611.432 187.913 611.098 187.568 610.767 187.219L621.671 177.002C624.039 179.496 626.753 181.658 629.733 183.416L622.598 196.568C618.688 194.314 615.049 191.531 611.773 188.254ZM622.746 198.308C624.438 199.242 626.177 200.079 627.956 200.82L626.135 205.254C625.721 205.123 625.281 205.052 624.826 205.052C622.438 205.052 620.502 206.988 620.502 209.376C620.502 211.764 622.438 213.7 624.826 213.7C627.214 213.7 629.15 211.764 629.15 209.376C629.15 207.614 628.096 206.1 626.583 205.426L628.4 201.003C634.085 203.307 640.175 204.618 646.457 204.845L646.309 209.379C643.968 209.432 642.085 211.346 642.085 213.7C642.085 216.088 644.021 218.024 646.409 218.024C648.797 218.024 650.733 216.088 650.733 213.7C650.733 211.44 648.999 209.587 646.789 209.394L646.937 204.859C647.432 204.873 647.93 204.88 648.428 204.88C654.476 204.88 660.37 203.879 665.921 201.955L667.475 206.363C666.004 207.053 664.984 208.547 664.984 210.279C664.984 212.667 666.919 214.603 669.307 214.603C671.695 214.603 673.632 212.667 673.632 210.279C673.632 207.891 671.695 205.955 669.307 205.955C668.823 205.955 668.357 206.036 667.921 206.184L666.374 201.796C669.041 200.844 671.625 199.679 674.109 198.309L694.455 235.809H602.4L622.746 198.308Z" fill="#D5D5D5"/>
<path d="M774.544 131.043C774.544 130.376 774.09 129.835 773.53 129.835C772.97 129.835 772.516 130.376 772.516 131.043C772.516 131.711 772.97 132.251 773.53 132.251C774.09 132.252 774.544 131.711 774.544 131.043Z" fill="url(#paint3_linear_1688_297)"/>
<path d="M885.103 277.913L878.809 235.808H865.935V200.869H867.527V197.708H861.277V184.099H860.514V197.708H856.195V186.559H855.433V197.708H829.394V200.869H831.173V271.76H801.444V240.006H784.514V161.975H786.062V158.147H782.681V153.246H778.79V151.404V145.801V140.939H774.094V132.252H773.529H772.964V140.939H770.433L768.903 145.801H758.657V153.246H731.84V158.147H728.459V161.975H730.008V212.745H707.57V262.629L682.672 251.597V203.179H686.69V199.622H679.623V189.966H649.363V199.622H639.477V189.966H634.395V199.622H629.314V189.966H623.724V199.622H612.036V203.179H613.814V270.289H602.464V269.585H600.41V250.461H602.464V248.927H600.41V229.802H602.464V228.269H600.41V209.144H602.464V207.611H600.41V188.486H602.464V186.952H600.41V167.828H602.464V166.294H600.41V146.502H603.93V144.963H605.72V140.767H572.294V136.101H573.381V134.753H555.183V136.101H556.27V140.767H547.986V144.963H549.777V146.502H553.297V166.294H551.242V167.828H553.297V186.952H551.242V188.486H553.297V207.611H551.242V209.144H553.297V228.269H551.242V229.802H553.297V248.927H551.242V250.461H553.297V269.585H551.242V271.119H553.297V286.747H541.888V226.357H495.982V270.289H488.529V133.435H483.014V136.958L472.839 139.447V137.159H467.324V140.796L457.149 143.284V140.661H451.635V144.633L441.459 147.122V144.958H435.945V148.471L425.77 150.96V149.095H420.256V283.488H412.498V211.84H383.764V255.899H354.307V218.327H350.678V205.988H352.832V204.749H343.3V200.869H342.283V204.749H339.234V184.834H338.472V204.749H334.501V205.988H336.837V218.327H317.396V246.988H298.47L288.585 283.488H268.752V164.314H242.493V160.045H243.985V158.547H224.096V160.045H225.66V164.314V171.18V252.799H213.278V221.961H217.679V219.169H186.524V200.539H180.581V196.711H167.315V200.539H156.52V267.061H121.107V217.724H91.288V256.693H65.411V281.626H46.753V250.281H22.216V277.005H0V295.922H22.216H29.724H41.989H46.753H65.411H91.288H99.984H104.64H121.107H156.52H167.315H180.581H186.524H209.766H213.278H225.66H246.424H256.653H268.752H317.396H328.63H347.594H354.307H384.267H392.317H420.256H423.013H425.77H435.945H441.459H451.635H456.244H457.149H467.324H472.839H481.586H483.014H485.771H488.529H495.982H533.926H539.346H541.888H553.297H573.381H591.768H600.41H613.814H647.104H682.305H682.672H707.57H721.491H730.008H735.388H777.052H784.514H793.435H801.444H831.173H853.279H857.804H865.935H915.397V277.913H885.103Z" fill="url(#paint4_linear_1688_297)"/>
</g>
<g opacity="0.1">
<g opacity="0.3">
<path d="M1042.74 238.048H1107.67V104.102H1109.52V100.273H1105.49V95.3729H1073.54V87.9269H1061.34L1059.51 83.0649H1056.5V74.3779H1055.83H1055.15V83.0649H1049.56V87.9269V93.5309V95.3729H1044.92V100.273H1040.89V104.102H1042.74V238.048Z" fill="url(#paint5_linear_1688_297)"/>
<path d="M1057.03 73.1699C1057.03 72.5019 1056.49 71.9609 1055.83 71.9609C1055.16 71.9609 1054.62 72.5019 1054.62 73.1699C1054.62 73.8369 1055.16 74.3779 1055.83 74.3779C1056.49 74.3779 1057.03 73.8369 1057.03 73.1699Z" fill="url(#paint6_linear_1688_297)"/>
<path d="M1645.39 245.89V65.812L1565.44 49.217L1574.2 245.89H1339.6V134.63H1335.28V68.052H1324.14V50.219H1320.15V24.063H1298.21V4.84H1296.26V24.063H1291.96V0H1290.01V24.063H1276.14V68.052H1268.97V134.63H1262.83V245.89H1200.45V97.786H1201.52V96.074H1193.85V85.783H1194.84V84.135H1187.79V78.219H1188.42V76.954H1185.39V71.365H1182.49H1182.04V51.414H1181.73H1181.33H1180.93V71.365H1179.57V60.243H1179.26H1178.86H1178.46V71.365H1175.11V76.954H1171.61V78.219H1172.71V84.135H1165.66V85.783H1166.65V96.074H1158.97V97.786H1160.05V245.89H951.988V266.089H1801.25V245.89H1645.39Z" fill="url(#paint7_linear_1688_297)"/>
</g>
<path d="M1785.98 264.072V245.889H1760.42L1750.74 174.318H1749.29V165.72H1744.21V174.318H1742.95V171.102H1739.39V174.318H1732.02V166.822H1729.99V161.613H1715.51V166.822H1713.48V174.318H1711.44V217.304H1698.57V108.236H1694.33V84.316H1692.98V108.236H1689.76V75.055H1688.4V108.236H1685.61V90.275H1684.25V108.236H1659.27V185.654H1631.49V235.808H1605.55L1584.94 197.836C1588.42 195.836 1591.68 193.431 1594.68 190.643L1598.9 195.151C1598 195.944 1597.42 197.108 1597.42 198.407C1597.42 200.795 1599.36 202.731 1601.75 202.731C1604.14 202.731 1606.07 200.795 1606.07 198.407C1606.07 196.019 1604.14 194.083 1601.75 194.083C1600.83 194.083 1599.98 194.368 1599.28 194.854L1595.03 190.314C1595.39 189.973 1595.75 189.627 1596.1 189.275C1600.56 184.816 1604.13 179.707 1606.72 174.161L1611.43 176.333C1611.34 176.672 1611.3 177.026 1611.3 177.392C1611.3 179.78 1613.23 181.716 1615.62 181.716C1618.01 181.716 1619.94 179.78 1619.94 177.392C1619.94 175.004 1618.01 173.068 1615.62 173.068C1613.77 173.068 1612.19 174.233 1611.57 175.871L1606.92 173.725C1609.79 167.452 1611.41 160.633 1611.67 153.572L1616.73 153.737C1616.79 156.071 1618.7 157.944 1621.05 157.944C1623.44 157.944 1625.38 156.008 1625.38 153.62C1625.38 151.232 1623.44 149.296 1621.05 149.296C1618.79 149.296 1616.93 151.039 1616.75 153.257L1611.68 153.092C1611.69 152.596 1611.7 152.099 1611.7 151.601C1611.7 145.298 1610.61 139.163 1608.53 133.409L1612.76 131.851C1613.42 133.384 1614.95 134.457 1616.73 134.457C1619.12 134.457 1621.05 132.521 1621.05 130.133C1621.05 127.745 1619.12 125.809 1616.73 125.809C1614.34 125.809 1612.4 127.745 1612.4 130.133C1612.4 130.573 1612.47 130.999 1612.59 131.4L1608.36 132.957C1605.95 126.493 1602.28 120.52 1597.47 115.346L1600.78 112.244C1601.55 112.985 1602.6 113.441 1603.76 113.441C1606.15 113.441 1608.09 111.506 1608.09 109.117C1608.09 106.729 1606.15 104.793 1603.76 104.793C1601.37 104.793 1599.44 106.729 1599.44 109.117C1599.44 110.174 1599.82 111.142 1600.45 111.893L1597.14 114.995C1596.8 114.635 1596.45 114.278 1596.1 113.926C1591.09 108.913 1585.25 105.023 1578.9 102.38L1580.72 97.946C1581.13 98.077 1581.57 98.149 1582.03 98.149C1584.42 98.149 1586.35 96.213 1586.35 93.825C1586.35 91.437 1584.42 89.501 1582.03 89.501C1579.64 89.501 1577.7 91.437 1577.7 93.825C1577.7 95.587 1578.76 97.101 1580.27 97.775L1578.45 102.198C1572.77 99.894 1566.68 98.583 1560.4 98.356L1560.59 92.296C1560.64 92.297 1560.68 92.299 1560.73 92.299C1563.12 92.299 1565.05 90.363 1565.05 87.975C1565.05 85.587 1563.12 83.651 1560.73 83.651C1558.34 83.651 1556.41 85.587 1556.41 87.975C1556.41 90.154 1558.02 91.955 1560.11 92.254L1559.92 98.34C1559.42 98.326 1558.92 98.319 1558.42 98.319C1552.38 98.319 1546.48 99.32 1540.93 101.244L1539.19 96.298C1540.76 95.6511 1541.87 94.105 1541.87 92.298C1541.87 89.91 1539.93 87.974 1537.54 87.974C1535.16 87.974 1533.22 89.91 1533.22 92.298C1533.22 94.6861 1535.16 96.622 1537.54 96.622C1537.96 96.622 1538.36 96.563 1538.73 96.455L1540.48 101.403C1533.75 103.804 1527.53 107.569 1522.17 112.555L1519.01 109.183C1519.72 108.413 1520.15 107.387 1520.15 106.26C1520.15 103.872 1518.21 101.936 1515.83 101.936C1513.44 101.936 1511.5 103.871 1511.5 106.26C1511.5 108.648 1513.44 110.584 1515.83 110.584C1516.91 110.584 1517.91 110.182 1518.67 109.519L1521.82 112.885C1521.46 113.226 1521.1 113.573 1520.75 113.925C1516.29 118.383 1512.72 123.493 1510.13 129.039L1506.11 127.185C1506.26 126.752 1506.34 126.289 1506.34 125.808C1506.34 123.42 1504.4 121.484 1502.01 121.484C1499.63 121.484 1497.69 123.42 1497.69 125.808C1497.69 128.196 1499.63 130.132 1502.01 130.132C1503.75 130.132 1505.25 129.109 1505.93 127.632L1509.93 129.475C1507.06 135.748 1505.44 142.568 1505.18 149.628L1500.03 149.461C1499.96 147.128 1498.06 145.257 1495.71 145.257C1493.32 145.257 1491.38 147.193 1491.38 149.581C1491.38 151.969 1493.32 153.905 1495.71 153.905C1497.97 153.905 1499.83 152.161 1500.02 149.942L1505.17 150.109C1505.16 150.605 1505.15 151.102 1505.15 151.6C1505.15 157.902 1506.24 164.038 1508.32 169.791L1504.09 171.349C1503.43 169.816 1501.9 168.743 1500.12 168.743C1497.73 168.743 1495.8 170.679 1495.8 173.067C1495.8 175.455 1497.73 177.391 1500.12 177.391C1502.51 177.391 1504.44 175.455 1504.44 173.067C1504.44 172.627 1504.38 172.201 1504.26 171.801L1508.48 170.244C1510.89 176.708 1514.57 182.68 1519.38 187.855L1516.07 190.957C1515.3 190.216 1514.25 189.76 1513.09 189.76C1510.7 189.76 1508.76 191.695 1508.76 194.084C1508.76 196.472 1510.7 198.408 1513.09 198.408C1515.48 198.408 1517.41 196.472 1517.41 194.084C1517.41 193.027 1517.03 192.059 1516.4 191.308L1519.71 188.206C1520.05 188.566 1520.4 188.923 1520.75 189.275C1524.13 192.65 1527.88 195.517 1531.91 197.836L1511.3 235.808H1494.62V210.065H1487.82V161.183H1490.46V160.12H1432.02V161.183H1434.66V185.835H1428.94L1423.47 213.931V121.788H1421.07V88.418H1408.99V75.713H1402.53V65.042H1400.27V46.748H1399.68V65.042H1397.41V75.7141H1390.95V88.419H1378.97V121.789H1376.48V182.372H1357.9V235.808H1296.26V132.486H1301.22V130.86H1296.26V127.949H1289.98V123.168H1238.63V127.949H1232.35V130.86H1227.4V132.486H1232.35V196.805H1223.95V184.736H1172.13V199.473H1160.83V226.915H1142.54V137.222H1136.44V131.123H1131.61V114.989H1130.6V131.123H1128.31V110.923H1127.29V131.123H1124.48V137.222H1122.97V226.915H1085.12V174.318H1086.89V170.761H1075.21V161.106H1069.62V170.761H1064.53V161.106H1059.45V170.761H1049.57V161.106H1019.31V170.761H1012.24V174.318H1016.26V194.137H1005.08V238.857H989.732V226.915H972.648V252.959H951.99V264.072H921.52V295.921H1813.2V264.072H1785.98ZM1584.26 196.568L1577.12 183.416C1579.41 182.067 1581.54 180.478 1583.48 178.685L1593.7 189.591C1590.79 192.294 1587.62 194.627 1584.26 196.568ZM1557.55 154.372C1557.72 154.427 1557.91 154.466 1558.09 154.488L1557.01 187.762C1552.75 187.597 1548.67 186.691 1544.9 185.168L1557.55 154.372ZM1544.46 184.986C1543.24 184.474 1542.06 183.897 1540.91 183.26L1556.78 153.999C1556.89 154.069 1556.99 154.132 1557.1 154.189L1544.46 184.986ZM1558.57 154.504C1558.78 154.494 1558.97 154.463 1559.16 154.413L1570.23 185.813C1566.53 187.094 1562.56 187.791 1558.43 187.791C1558.11 187.791 1557.8 187.787 1557.49 187.779L1558.57 154.504ZM1559.62 154.253C1559.78 154.181 1559.93 154.096 1560.07 153.999L1575.94 183.26C1574.27 184.192 1572.51 184.994 1570.68 185.654L1559.62 154.253ZM1562.29 156.071L1582.99 178.159C1581.09 179.91 1579.01 181.462 1576.78 182.782L1562.29 156.071ZM1561.38 154.403L1560.78 153.3C1560.85 153.214 1560.9 153.124 1560.96 153.032L1591.18 166.984C1589.25 171.075 1586.58 174.75 1583.34 177.831L1561.38 154.403ZM1561.16 152.597C1561.24 152.387 1561.29 152.165 1561.32 151.935L1594.59 153.017C1594.4 157.826 1593.28 162.397 1591.39 166.551L1561.16 152.597ZM1561.33 151.455C1561.32 151.238 1561.28 151.027 1561.23 150.825L1592.47 139.322C1593.86 143.158 1594.62 147.293 1594.62 151.601C1594.62 151.914 1594.61 152.225 1594.61 152.537L1561.33 151.455ZM1561.06 150.374C1560.97 150.167 1560.85 149.973 1560.71 149.795L1584.99 127.043C1588.14 130.447 1590.64 134.454 1592.31 138.871L1561.06 150.374ZM1560.38 149.444C1560.19 149.274 1559.98 149.129 1559.75 149.011L1572.4 118.214C1577.06 120.172 1581.23 123.078 1584.66 126.691L1560.38 149.444ZM1559.31 148.829C1559.13 148.774 1558.95 148.735 1558.76 148.713L1559.84 115.44C1564.11 115.604 1568.19 116.511 1571.95 118.034L1559.31 148.829ZM1558.28 148.697C1558.08 148.707 1557.88 148.738 1557.69 148.787L1546.62 117.387C1550.32 116.106 1554.3 115.409 1558.43 115.409C1558.74 115.409 1559.05 115.413 1559.36 115.421L1558.28 148.697ZM1557.24 148.948C1557.02 149.047 1556.81 149.174 1556.62 149.323L1533.87 125.042C1537.39 121.781 1541.57 119.21 1546.17 117.548L1557.24 148.948ZM1556.27 149.65C1556.13 149.808 1556 149.982 1555.9 150.168L1525.67 136.215C1527.6 132.124 1530.28 128.449 1533.52 125.368L1556.27 149.65ZM1555.7 150.604C1555.62 150.815 1555.57 151.036 1555.54 151.266L1522.27 150.184C1522.45 145.375 1523.58 140.804 1525.47 136.65L1555.7 150.604ZM1555.52 151.747C1555.54 151.964 1555.57 152.174 1555.63 152.376L1524.38 163.879C1522.99 160.043 1522.24 155.909 1522.24 151.6C1522.24 151.287 1522.24 150.975 1522.25 150.664L1555.52 151.747ZM1555.79 152.827C1555.87 152.995 1555.96 153.153 1556.07 153.301L1555.87 153.666L1531.87 176.158C1528.72 172.754 1526.21 168.747 1524.55 164.33L1555.79 152.827ZM1555.15 155.004L1540.08 182.781C1537.16 181.061 1534.51 178.946 1532.2 176.509L1555.15 155.004ZM1540.57 183.893C1541.73 184.542 1542.94 185.131 1544.18 185.652L1538.5 199.485C1536.77 198.764 1535.08 197.948 1533.43 197.04L1540.57 183.893ZM1544.63 185.835C1548.47 187.39 1552.63 188.314 1556.99 188.482L1556.5 203.402C1550.4 203.181 1544.48 201.906 1538.95 199.667L1544.63 185.835ZM1557.47 188.5C1557.79 188.508 1558.11 188.513 1558.43 188.513C1562.64 188.513 1566.69 187.801 1570.47 186.493L1575.44 200.594C1570.04 202.464 1564.31 203.438 1558.43 203.438C1557.95 203.438 1557.46 203.431 1556.98 203.417L1557.47 188.5ZM1570.92 186.333C1572.79 185.661 1574.58 184.843 1576.29 183.893L1583.42 197.041C1581.01 198.374 1578.49 199.509 1575.89 200.435L1570.92 186.333ZM1595.08 188.254C1594.74 188.595 1594.4 188.93 1594.05 189.261L1583.83 178.357C1587.14 175.213 1589.87 171.462 1591.84 167.287L1605.42 173.556C1602.89 178.949 1599.42 183.919 1595.08 188.254ZM1605.62 173.12L1592.04 166.852C1593.97 162.613 1595.12 157.948 1595.31 153.039L1610.23 153.524C1609.98 160.39 1608.4 167.021 1605.62 173.12ZM1610.26 151.601C1610.26 152.083 1610.26 152.564 1610.24 153.045L1595.33 152.56C1595.34 152.241 1595.34 151.921 1595.34 151.601C1595.34 147.204 1594.57 142.986 1593.15 139.073L1607.18 133.908C1609.21 139.504 1610.26 145.471 1610.26 151.601ZM1596.42 116.332C1601.1 121.364 1604.67 127.171 1607.01 133.456L1592.98 138.623C1591.28 134.115 1588.73 130.025 1585.51 126.551L1596.42 116.332ZM1595.08 114.946C1595.42 115.287 1595.76 115.632 1596.09 115.981L1585.18 126.198C1581.68 122.511 1577.43 119.545 1572.67 117.548L1578.35 103.715C1584.53 106.287 1590.21 110.071 1595.08 114.946ZM1560.35 99.798C1566.46 100.019 1572.38 101.294 1577.91 103.533L1572.23 117.366C1568.38 115.811 1564.22 114.887 1559.87 114.719L1560.35 99.798ZM1558.43 99.764C1558.91 99.764 1559.39 99.771 1559.87 99.784L1559.39 114.701C1559.07 114.693 1558.75 114.689 1558.43 114.689C1554.21 114.689 1550.16 115.401 1546.38 116.708L1541.41 102.607C1546.81 100.737 1552.55 99.764 1558.43 99.764ZM1540.96 102.766L1545.93 116.868C1541.23 118.564 1536.97 121.187 1533.38 124.516L1523.16 113.61C1528.37 108.763 1534.42 105.102 1540.96 102.766ZM1521.77 114.946C1522.11 114.605 1522.46 114.27 1522.81 113.939L1533.03 124.843C1529.72 127.987 1526.99 131.738 1525.02 135.914L1511.44 129.645C1513.96 124.252 1517.44 119.282 1521.77 114.946ZM1511.24 130.081L1524.82 136.349C1522.89 140.588 1521.74 145.254 1521.55 150.162L1506.63 149.677C1506.87 142.812 1508.45 136.181 1511.24 130.081ZM1506.59 151.601C1506.59 151.119 1506.6 150.637 1506.61 150.157L1521.53 150.642C1521.52 150.96 1521.52 151.28 1521.52 151.601C1521.52 155.997 1522.29 160.215 1523.71 164.129L1509.68 169.295C1507.65 163.697 1506.59 157.73 1506.59 151.601ZM1520.44 186.869C1515.76 181.837 1512.18 176.03 1509.84 169.745L1523.87 164.578C1525.57 169.086 1528.13 173.176 1531.34 176.65L1520.44 186.869ZM1521.77 188.254C1521.43 187.913 1521.1 187.568 1520.77 187.219L1531.67 177.002C1534.04 179.496 1536.75 181.658 1539.73 183.416L1532.6 196.568C1528.69 194.314 1525.05 191.531 1521.77 188.254ZM1532.75 198.308C1534.44 199.242 1536.18 200.079 1537.96 200.82L1536.13 205.254C1535.72 205.123 1535.28 205.052 1534.83 205.052C1532.44 205.052 1530.5 206.988 1530.5 209.376C1530.5 211.764 1532.44 213.7 1534.83 213.7C1537.21 213.7 1539.15 211.764 1539.15 209.376C1539.15 207.614 1538.1 206.1 1536.58 205.426L1538.4 201.003C1544.08 203.307 1550.17 204.618 1556.46 204.845L1556.31 209.379C1553.97 209.432 1552.08 211.346 1552.08 213.7C1552.08 216.088 1554.02 218.024 1556.41 218.024C1558.8 218.024 1560.73 216.088 1560.73 213.7C1560.73 211.44 1559 209.587 1556.79 209.394L1556.94 204.859C1557.43 204.873 1557.93 204.88 1558.43 204.88C1564.48 204.88 1570.37 203.879 1575.92 201.955L1577.47 206.363C1576 207.053 1574.98 208.547 1574.98 210.279C1574.98 212.667 1576.92 214.603 1579.31 214.603C1581.7 214.603 1583.63 212.667 1583.63 210.279C1583.63 207.891 1581.7 205.955 1579.31 205.955C1578.82 205.955 1578.36 206.036 1577.92 206.184L1576.37 201.796C1579.04 200.844 1581.63 199.679 1584.11 198.309L1604.45 235.809H1512.4L1532.75 198.308Z" fill="#D5D5D5"/>
<path d="M1795.1 277.913L1788.81 235.808H1775.93V200.869H1777.53V197.708H1771.28V184.099H1770.51V197.708H1766.19V186.559H1765.43V197.708H1739.39V200.869H1741.17V271.76H1711.44V240.006H1694.51V161.975H1696.06V158.147H1692.68V153.246H1688.79V151.404V145.801V140.939H1684.09V132.252H1683.53H1682.96V140.939H1680.43L1678.9 145.801H1668.66V153.246H1641.84V158.147H1638.46V161.975H1640.01V212.745H1617.57V262.629L1592.67 251.597V203.179H1596.69V199.622H1589.62V189.966H1559.36V199.622H1549.48V189.966H1544.39V199.622H1539.31V189.966H1533.72V199.622H1522.04V203.179H1523.81V270.289H1512.46V269.585H1510.41V250.461H1512.46V248.927H1510.41V229.802H1512.46V228.269H1510.41V209.144H1512.46V207.611H1510.41V188.486H1512.46V186.952H1510.41V167.828H1512.46V166.294H1510.41V146.502H1513.93V144.963H1515.72V140.767H1482.29V136.101H1483.38V134.753H1465.18V136.101H1466.27V140.767H1457.99V144.963H1459.78V146.502H1463.3V166.294H1461.24V167.828H1463.3V186.952H1461.24V188.486H1463.3V207.611H1461.24V209.144H1463.3V228.269H1461.24V229.802H1463.3V248.927H1461.24V250.461H1463.3V269.585H1461.24V271.119H1463.3V286.747H1451.89V226.357H1405.98V270.289H1398.53V133.435H1393.01V136.958L1382.84 139.447V137.159H1377.32V140.796L1367.15 143.284V140.661H1361.64V144.633L1351.46 147.122V144.958H1345.95V148.471L1335.77 150.96V149.095H1330.26V283.488H1322.5V211.84H1293.76V255.899H1264.31V218.327H1260.68V205.988H1262.83V204.749H1253.3V200.869H1252.28V204.749H1249.23V184.834H1248.47V204.749H1244.5V205.988H1246.84V218.327H1227.4V246.988H1208.47L1198.58 283.488H1178.75V164.314H1152.49V160.045H1153.99V158.547H1134.1V160.045H1135.66V164.314V171.18V252.799H1123.28V221.961H1127.68V219.169H1096.52V200.539H1090.58V196.711H1077.32V200.539H1066.52V267.061H1031.11V217.724H1001.29V256.693H975.411V281.626H956.753V250.281H932.216V277.005H910V295.922H932.216H939.724H951.989H956.753H975.411H1001.29H1009.98H1014.64H1031.11H1066.52H1077.32H1090.58H1096.52H1119.77H1123.28H1135.66H1156.42H1166.65H1178.75H1227.4H1238.63H1257.59H1264.31H1294.27H1302.32H1330.26H1333.01H1335.77H1345.95H1351.46H1361.64H1366.24H1367.15H1377.32H1382.84H1391.59H1393.01H1395.77H1398.53H1405.98H1443.93H1449.35H1451.89H1463.3H1483.38H1501.77H1510.41H1523.81H1557.1H1592.3H1592.67H1617.57H1631.49H1640.01H1645.39H1687.05H1694.51H1703.43H1711.44H1741.17H1763.28H1767.8H1775.93H1825.4V277.913H1795.1Z" fill="url(#paint8_linear_1688_297)"/>
</g>
<defs>
<linearGradient id="paint0_linear_1688_297" x1="165.207" y1="238.048" x2="165.207" y2="74.378" gradientUnits="userSpaceOnUse">
<stop stop-color="#403E40"/>
<stop offset="0.1275" stop-color="#4E4D4E"/>
<stop offset="0.3124" stop-color="#5A5A5A"/>
<stop offset="0.5479" stop-color="#626262"/>
<stop offset="1" stop-color="#646464"/>
</linearGradient>
<linearGradient id="paint1_linear_1688_297" x1="145.826" y1="74.378" x2="145.826" y2="71.961" gradientUnits="userSpaceOnUse">
<stop stop-color="#403E40"/>
<stop offset="0.1275" stop-color="#4E4D4E"/>
<stop offset="0.3124" stop-color="#5A5A5A"/>
<stop offset="0.5479" stop-color="#626262"/>
<stop offset="1" stop-color="#646464"/>
</linearGradient>
<linearGradient id="paint2_linear_1688_297" x1="466.618" y1="266.088" x2="466.618" y2="-0.000396503" gradientUnits="userSpaceOnUse">
<stop stop-color="#403E40"/>
<stop offset="0.1275" stop-color="#4E4D4E"/>
<stop offset="0.3124" stop-color="#5A5A5A"/>
<stop offset="0.5479" stop-color="#626262"/>
<stop offset="1" stop-color="#646464"/>
</linearGradient>
<linearGradient id="paint3_linear_1688_297" x1="773.53" y1="129.835" x2="773.53" y2="132.252" gradientUnits="userSpaceOnUse">
<stop stop-color="white"/>
<stop offset="1" stop-color="#727272"/>
</linearGradient>
<linearGradient id="paint4_linear_1688_297" x1="457.699" y1="132.252" x2="457.699" y2="295.921" gradientUnits="userSpaceOnUse">
<stop stop-color="white"/>
<stop offset="1" stop-color="#7A7A7A"/>
</linearGradient>
<linearGradient id="paint5_linear_1688_297" x1="1075.21" y1="238.048" x2="1075.21" y2="74.378" gradientUnits="userSpaceOnUse">
<stop stop-color="#403E40"/>
<stop offset="0.1275" stop-color="#4E4D4E"/>
<stop offset="0.3124" stop-color="#5A5A5A"/>
<stop offset="0.5479" stop-color="#626262"/>
<stop offset="1" stop-color="#646464"/>
</linearGradient>
<linearGradient id="paint6_linear_1688_297" x1="1055.83" y1="74.378" x2="1055.83" y2="71.961" gradientUnits="userSpaceOnUse">
<stop stop-color="#403E40"/>
<stop offset="0.1275" stop-color="#4E4D4E"/>
<stop offset="0.3124" stop-color="#5A5A5A"/>
<stop offset="0.5479" stop-color="#626262"/>
<stop offset="1" stop-color="#646464"/>
</linearGradient>
<linearGradient id="paint7_linear_1688_297" x1="1376.62" y1="266.088" x2="1376.62" y2="-0.000396503" gradientUnits="userSpaceOnUse">
<stop stop-color="#403E40"/>
<stop offset="0.1275" stop-color="#4E4D4E"/>
<stop offset="0.3124" stop-color="#5A5A5A"/>
<stop offset="0.5479" stop-color="#626262"/>
<stop offset="1" stop-color="#646464"/>
</linearGradient>
<linearGradient id="paint8_linear_1688_297" x1="1367.7" y1="132.252" x2="1367.7" y2="295.921" gradientUnits="userSpaceOnUse">
<stop stop-color="white"/>
<stop offset="1" stop-color="#7A7A7A"/>
</linearGradient>
</defs>
</svg>
