<svg width="536" height="174" viewBox="0 0 536 174" fill="none" xmlns="http://www.w3.org/2000/svg">
<g opacity="0.1">
<g opacity="0.3">
<path d="M77.7229 139.448H115.744V61.0178H116.825V58.7758H114.467V55.9067H95.7598V51.5467H88.6127L87.5453 48.6999H85.7793V43.6133H85.3853H84.9918V48.6999H81.7157V51.5467V54.8281V55.9067H79.0011V58.7758H76.6426V61.0178H77.7229V139.448Z" fill="url(#paint0_linear_1825_1253)"/>
<path d="M86.0949 42.9052C86.0949 42.514 85.7782 42.1973 85.387 42.1973C84.9965 42.1973 84.6797 42.514 84.6797 42.9052C84.6797 43.2957 84.9965 43.6125 85.387 43.6125C85.7782 43.6125 86.0949 43.2957 86.0949 42.9052Z" fill="url(#paint1_linear_1825_1253)"/>
<path d="M430.596 144.04V38.5975L383.783 28.8804L388.912 144.04H251.547V78.893H249.018V39.9091H242.491V29.4672H240.159V14.1518H227.311V2.89602H226.168V14.1518H223.652V0.0620117H222.508V14.1518H214.386V39.9091H210.191V78.893H206.594V144.04H170.066V57.3195H170.696V56.317H166.201V50.2912H166.782V49.3263H162.655V45.8622H163.026V45.1215H161.249V41.8489H159.553H159.289V30.1669H159.105H158.871H158.636V41.8489H157.843V35.3366H157.659H157.426H157.19V41.8489H155.23V45.1215H153.179V45.8622H153.823V49.3263H149.697V50.2912H150.278V56.317H145.782V57.3195H146.413V144.04H24.584V155.867H521.857V144.04H430.596Z" fill="url(#paint2_linear_1825_1253)"/>
</g>
<path d="M512.919 154.687V144.04H497.953L492.289 102.133H491.438V97.0982H488.463V102.133H487.725V100.25H485.643V102.133H481.328V97.7435H480.137V94.6934H471.657V97.7435H470.467V102.133H469.276V127.303H461.738V63.4391H459.258V49.433H458.465V63.4391H456.58V44.0104H455.787V63.4391H454.15V52.9223H453.357V63.4391H438.727V108.77H422.461V138.137H407.27L395.207 115.903C397.24 114.732 399.152 113.324 400.907 111.692L403.381 114.331C402.85 114.796 402.514 115.477 402.514 116.238C402.514 117.636 403.647 118.77 405.046 118.77C406.444 118.77 407.578 117.636 407.578 116.238C407.578 114.839 406.444 113.706 405.046 113.706C404.509 113.706 404.013 113.873 403.603 114.157L401.112 111.499C401.323 111.299 401.532 111.097 401.738 110.891C404.348 108.28 406.439 105.288 407.958 102.041L410.713 103.313C410.663 103.511 410.636 103.718 410.636 103.933C410.636 105.331 411.77 106.464 413.168 106.464C414.566 106.464 415.7 105.331 415.7 103.933C415.7 102.534 414.566 101.401 413.168 101.401C412.084 101.401 411.159 102.083 410.798 103.042L408.076 101.785C409.755 98.1124 410.705 94.1196 410.854 89.9851L413.82 90.0817C413.856 91.4484 414.975 92.5451 416.35 92.5451C417.748 92.5451 418.882 91.4115 418.882 90.0132C418.882 88.6149 417.748 87.4813 416.35 87.4813C415.023 87.4813 413.936 88.5019 413.828 89.8006L410.862 89.704C410.87 89.4136 410.875 89.1226 410.875 88.831C410.875 85.1403 410.238 81.5481 409.017 78.1789L411.494 77.2666C411.883 78.1642 412.777 78.7925 413.818 78.7925C415.216 78.7925 416.349 77.6589 416.349 76.2607C416.349 74.8624 415.216 73.7288 413.818 73.7288C412.419 73.7288 411.286 74.8624 411.286 76.2607C411.286 76.5183 411.324 76.7677 411.396 77.0025L408.92 77.9142C407.509 74.1293 405.357 70.6319 402.539 67.6023L404.477 65.786C404.931 66.2198 405.547 66.4869 406.225 66.4869C407.623 66.4869 408.757 65.3538 408.757 63.955C408.757 62.5567 407.623 61.4231 406.225 61.4231C404.827 61.4231 403.693 62.5567 403.693 63.955C403.693 64.5739 403.916 65.1407 404.284 65.5804L402.346 67.3968C402.147 67.186 401.944 66.9769 401.738 66.7708C398.803 63.8355 395.386 61.5578 391.666 60.0102L392.732 57.4139C392.974 57.4906 393.232 57.5328 393.499 57.5328C394.897 57.5328 396.031 56.3992 396.031 55.0009C396.031 53.6027 394.897 52.4691 393.499 52.4691C392.101 52.4691 390.967 53.6027 390.967 55.0009C390.967 56.0327 391.584 56.9192 392.469 57.3138L391.406 59.9036C388.077 58.5546 384.511 57.7869 380.833 57.654L380.948 54.1056C380.975 54.1062 381.002 54.1074 381.029 54.1074C382.427 54.1074 383.56 52.9738 383.56 51.5755C383.56 50.1773 382.427 49.0437 381.029 49.0437C379.63 49.0437 378.497 50.1773 378.497 51.5755C378.497 52.8514 379.44 53.906 380.667 54.0811L380.551 57.6446C380.261 57.6364 379.97 57.6323 379.678 57.6323C376.137 57.6323 372.686 58.2185 369.436 59.345L368.415 56.449C369.336 56.0701 369.984 55.1649 369.984 54.1068C369.984 52.7086 368.851 51.5749 367.452 51.5749C366.054 51.5749 364.92 52.7086 364.92 54.1068C364.92 55.5051 366.054 56.6387 367.452 56.6387C367.694 56.6387 367.928 56.6041 368.149 56.5409L369.17 59.4381C365.228 60.844 361.589 63.0486 358.45 65.9681L356.6 63.9936C357.014 63.5428 357.267 62.942 357.267 62.2821C357.267 60.8838 356.133 59.7502 354.735 59.7502C353.337 59.7502 352.203 60.8833 352.203 62.2821C352.203 63.6804 353.337 64.814 354.735 64.814C355.372 64.814 355.954 64.5786 356.399 64.1904L358.245 66.1613C358.035 66.361 357.826 66.5641 357.619 66.7702C355.009 69.3806 352.919 72.3727 351.399 75.6201L349.048 74.5345C349.134 74.281 349.18 74.0098 349.18 73.7282C349.18 72.3299 348.046 71.1963 346.648 71.1963C345.25 71.1963 344.116 72.3299 344.116 73.7282C344.116 75.1265 345.25 76.2601 346.648 76.2601C347.665 76.2601 348.541 75.6611 348.943 74.7962L351.281 75.8754C349.603 79.5485 348.652 83.5418 348.503 87.6757L345.485 87.5779C345.448 86.2119 344.33 85.1163 342.955 85.1163C341.557 85.1163 340.423 86.2499 340.423 87.6482C340.423 89.0465 341.557 90.1801 342.955 90.1801C344.283 90.1801 345.371 89.1589 345.478 87.8596L348.495 87.9574C348.487 88.2478 348.483 88.5388 348.483 88.8304C348.483 92.5205 349.12 96.1133 350.341 99.4819L347.863 100.394C347.474 99.4966 346.58 98.8683 345.539 98.8683C344.141 98.8683 343.007 100.002 343.007 101.4C343.007 102.798 344.141 103.932 345.539 103.932C346.937 103.932 348.071 102.798 348.071 101.4C348.071 101.143 348.032 100.893 347.96 100.659L350.437 99.7472C351.847 103.532 353.999 107.029 356.818 110.059L354.88 111.875C354.425 111.442 353.81 111.175 353.132 111.175C351.734 111.175 350.6 112.308 350.6 113.706C350.6 115.105 351.734 116.238 353.132 116.238C354.53 116.238 355.664 115.105 355.664 113.706C355.664 113.087 355.441 112.521 355.072 112.081L357.011 110.265C357.211 110.475 357.413 110.684 357.619 110.891C359.596 112.867 361.791 114.545 364.15 115.903L352.088 138.137H342.318V123.064H338.336V94.4416H339.885V93.8192H305.663V94.4416H307.212V108.876H303.858L300.656 125.328V71.3743H299.252V51.8349H292.181V44.3957H288.399V38.1474H287.071V27.4355H286.728V38.1474H285.401V44.3963H281.618V51.8355H274.602V71.3749H273.144V106.849H262.265V138.137H226.173V77.6384H229.074V76.6863H226.173V74.9818H222.496V72.1824H192.427V74.9818H188.75V76.6863H185.849V77.6384H188.75V115.3H183.832V108.233H153.49V116.862H146.874V132.93H136.162V80.4115H132.592V76.8403H129.765V67.3933H129.169V76.8403H127.83V65.0125H127.235V76.8403H125.589V80.4115H124.706V132.93H102.538V102.133H103.579V100.05H96.7357V94.3965H93.4626V100.05H90.4869V94.3965H87.5112V100.05H81.7231V94.3965H64.0041V100.05H59.8667V102.133H62.2188V113.737H55.6725V139.923H46.6868V132.93H36.6835V148.18H24.5874V154.687H6.74609V173.336H528.86V154.687H512.919ZM394.805 115.161L390.627 107.46C391.966 106.67 393.214 105.74 394.348 104.69L400.331 111.076C398.63 112.658 396.776 114.024 394.805 115.161ZM379.166 90.4535C379.268 90.4857 379.375 90.5086 379.485 90.5214L378.851 110.005C376.353 109.908 373.965 109.378 371.76 108.486L379.166 90.4535ZM371.5 108.379C370.787 108.079 370.094 107.742 369.423 107.369L378.718 90.2351C378.778 90.2761 378.84 90.313 378.905 90.3464L371.5 108.379ZM379.766 90.5308C379.885 90.525 380 90.5068 380.112 90.4775L386.592 108.863C384.425 109.614 382.099 110.022 379.68 110.022C379.497 110.022 379.314 110.019 379.132 110.015L379.766 90.5308ZM380.376 90.3838C380.469 90.3417 380.558 90.2919 380.642 90.2351L389.937 107.369C388.955 107.914 387.926 108.384 386.856 108.77L380.376 90.3838ZM381.941 91.4483L394.06 104.382C392.951 105.407 391.733 106.316 390.426 107.089L381.941 91.4483ZM381.41 90.4717L381.06 89.8258C381.097 89.7755 381.13 89.7228 381.161 89.6689L398.858 97.8383C397.728 100.234 396.164 102.386 394.265 104.19L381.41 90.4717ZM381.28 89.4142C381.325 89.2912 381.355 89.1612 381.371 89.0266L400.854 89.6601C400.745 92.476 400.086 95.1525 398.978 97.5848L381.28 89.4142ZM381.38 88.7455C381.374 88.6184 381.353 88.4949 381.32 88.3766L399.615 81.6412C400.428 83.8873 400.871 86.3085 400.871 88.831C400.871 89.0143 400.869 89.1964 400.864 89.3791L381.38 88.7455ZM381.224 88.1125C381.167 87.9913 381.097 87.8777 381.014 87.7735L395.231 74.4513C397.076 76.4445 398.542 78.7908 399.517 81.3771L381.224 88.1125ZM380.822 87.568C380.712 87.4684 380.588 87.3835 380.455 87.3144L387.86 69.2816C390.589 70.4281 393.03 72.1297 395.039 74.2452L380.822 87.568ZM380.194 87.2079C380.092 87.1757 379.985 87.1528 379.876 87.14L380.509 67.6573C383.007 67.7534 385.395 68.2845 387.6 69.1762L380.194 87.2079ZM379.595 87.1306C379.476 87.1364 379.36 87.1546 379.249 87.1833L372.768 68.7974C374.936 68.0473 377.261 67.6392 379.68 67.6392C379.863 67.6392 380.046 67.6415 380.228 67.6462L379.595 87.1306ZM378.984 87.2776C378.855 87.3355 378.733 87.4099 378.623 87.4971L365.3 73.2797C367.364 71.3702 369.807 69.8648 372.503 68.8917L378.984 87.2776ZM378.418 87.6886C378.334 87.7811 378.261 87.883 378.199 87.9919L360.502 79.8219C361.631 77.4265 363.197 75.2746 365.096 73.4706L378.418 87.6886ZM378.08 88.2472C378.035 88.3708 378.005 88.5002 377.989 88.6348L358.506 88.0013C358.615 85.1854 359.275 82.5089 360.382 80.0766L378.08 88.2472ZM377.98 88.9165C377.987 89.0436 378.007 89.1665 378.04 89.2848L359.745 96.0202C358.933 93.7741 358.489 91.3535 358.489 88.8304C358.489 88.6471 358.491 88.4645 358.496 88.2823L377.98 88.9165ZM378.137 89.5489C378.182 89.6472 378.237 89.7397 378.3 89.8264L378.184 90.0401L364.129 103.21C362.284 101.217 360.818 98.8706 359.843 96.2843L378.137 89.5489ZM377.758 90.8236L368.934 107.088C367.229 106.081 365.676 104.843 364.32 103.416L377.758 90.8236ZM369.221 107.739C369.906 108.119 370.612 108.464 371.34 108.769L368.013 116.869C366.999 116.447 366.008 115.969 365.045 115.437L369.221 107.739ZM371.6 108.876C373.851 109.787 376.288 110.328 378.838 110.426L378.554 119.162C374.978 119.033 371.511 118.286 368.274 116.975L371.6 108.876ZM379.119 110.437C379.305 110.441 379.492 110.444 379.68 110.444C382.148 110.444 384.521 110.027 386.732 109.262L389.642 117.518C386.481 118.613 383.124 119.184 379.68 119.184C379.398 119.184 379.116 119.179 378.835 119.171L379.119 110.437ZM386.998 109.168C388.088 108.774 389.138 108.295 390.139 107.739L394.316 115.438C392.9 116.218 391.427 116.883 389.908 117.425L386.998 109.168ZM401.142 110.293C400.943 110.492 400.741 110.689 400.536 110.882L394.554 104.498C396.492 102.657 398.089 100.46 399.242 98.0157L407.193 101.686C405.715 104.844 403.681 107.754 401.142 110.293ZM407.311 101.431L399.361 97.761C400.491 95.2789 401.165 92.5474 401.275 89.673L410.012 89.957C409.866 93.9773 408.942 97.86 407.311 101.431ZM410.033 88.831C410.033 89.1132 410.029 89.3949 410.021 89.6765L401.286 89.3925C401.291 89.2057 401.294 89.0184 401.294 88.831C401.294 86.2564 400.84 83.7866 400.011 81.4954L408.226 78.4711C409.413 81.7477 410.033 85.2416 410.033 88.831ZM401.925 68.1796C404.665 71.1261 406.757 74.5263 408.129 78.2064L399.913 81.2319C398.918 78.5923 397.421 76.1974 395.539 74.1633L401.925 68.1796ZM401.142 67.3681C401.342 67.5677 401.538 67.7698 401.732 67.9741L395.347 73.9566C393.297 71.7977 390.806 70.061 388.021 68.8917L391.347 60.7919C394.964 62.2979 398.288 64.5136 401.142 67.3681ZM380.807 58.4984C384.383 58.6278 387.85 59.3743 391.086 60.6853L387.759 68.7851C385.509 67.8746 383.072 67.3335 380.522 67.2352L380.807 58.4984ZM379.68 58.4784C379.962 58.4784 380.245 58.4825 380.526 58.4902L380.242 67.2246C380.055 67.2199 379.868 67.2176 379.68 67.2176C377.212 67.2176 374.839 67.6345 372.628 68.3998L369.718 60.1431C372.88 59.0482 376.236 58.4784 379.68 58.4784ZM369.453 60.2362L372.363 68.4935C369.612 69.4866 367.119 71.0224 365.012 72.9717L359.029 66.5858C362.081 63.7477 365.62 61.604 369.453 60.2362ZM358.218 67.3681C358.417 67.1684 358.62 66.9723 358.824 66.7784L364.807 73.1632C362.869 75.0041 361.271 77.2004 360.118 79.6457L352.167 75.9749C353.645 72.8171 355.679 69.907 358.218 67.3681ZM352.049 76.2302L360 79.9004C358.869 82.3825 358.196 85.1146 358.085 87.9884L349.348 87.7044C349.494 83.6847 350.418 79.802 352.049 76.2302ZM349.328 88.831C349.328 88.5488 349.332 88.2665 349.339 87.9855L358.074 88.2695C358.069 88.4557 358.067 88.643 358.067 88.831C358.067 91.405 358.52 93.8748 359.349 96.1666L351.134 99.1915C349.947 95.9137 349.328 92.4198 349.328 88.831ZM357.436 109.482C354.695 106.535 352.603 103.135 351.231 99.455L359.447 96.4295C360.442 99.0691 361.938 101.464 363.821 103.498L357.436 109.482ZM358.218 110.293C358.018 110.093 357.822 109.891 357.628 109.687L364.013 103.704C365.399 105.165 366.989 106.431 368.734 107.46L364.556 115.161C362.266 113.841 360.136 112.212 358.218 110.293ZM364.642 116.18C365.633 116.727 366.651 117.217 367.693 117.651L366.627 120.247C366.385 120.17 366.127 120.129 365.86 120.129C364.462 120.129 363.328 121.262 363.328 122.66C363.328 124.059 364.462 125.192 365.86 125.192C367.259 125.192 368.392 124.059 368.392 122.66C368.392 121.629 367.775 120.742 366.89 120.348L367.953 117.758C371.282 119.107 374.848 119.874 378.526 120.007L378.439 122.662C377.069 122.693 375.966 123.814 375.966 125.192C375.966 126.591 377.1 127.724 378.498 127.724C379.896 127.724 381.03 126.591 381.03 125.192C381.03 123.869 380.014 122.784 378.72 122.671L378.807 120.016C379.098 120.024 379.389 120.028 379.68 120.028C383.221 120.028 386.673 119.442 389.923 118.315L390.833 120.896C389.972 121.3 389.374 122.175 389.374 123.189C389.374 124.587 390.508 125.721 391.906 125.721C393.304 125.721 394.438 124.587 394.438 123.189C394.438 121.791 393.304 120.657 391.906 120.657C391.622 120.657 391.349 120.705 391.094 120.791L390.188 118.222C391.75 117.665 393.263 116.983 394.718 116.18L406.631 138.138H352.729L364.642 116.18Z" fill="#D5D5D5"/>
<path d="M453.523 76.7923C453.523 76.4017 453.258 76.085 452.93 76.085C452.602 76.085 452.336 76.4017 452.336 76.7923C452.336 77.1834 452.602 77.4996 452.93 77.4996C453.258 77.5002 453.523 77.1834 453.523 76.7923Z" fill="url(#paint3_linear_1825_1253)"/>
<path d="M518.262 162.791L514.576 138.136H507.038V117.678H507.97V115.827H504.311V107.859H503.864V115.827H501.335V109.299H500.889V115.827H485.642V117.678H486.684V159.188H469.276V140.595H459.363V94.9045H460.269V92.663H458.29V89.7933H456.011V88.7147V85.434V82.5871H453.262V77.5005H452.931H452.6V82.5871H451.118L450.222 85.434H444.223V89.7933H428.52V92.663H426.541V94.9045H427.448V124.632H414.309V153.841L399.731 147.382V119.031H402.083V116.948H397.945V111.294H380.227V116.948H374.438V111.294H371.463V116.948H368.487V111.294H365.214V116.948H358.371V119.031H359.412V158.326H352.766V157.914H351.563V146.716H352.766V145.818H351.563V134.62H352.766V133.722H351.563V122.524H352.766V121.626H351.563V110.428H352.766V109.529H351.563V98.3316H352.766V97.4334H351.563V85.8444H353.624V84.9433H354.672V82.4864H335.1V79.7542H335.737V78.9649H325.081V79.7542H325.717V82.4864H320.867V84.9433H321.915V85.8444H323.977V97.4334H322.773V98.3316H323.977V109.529H322.773V110.428H323.977V121.626H322.773V122.524H323.977V133.722H322.773V134.62H323.977V145.818H322.773V146.716H323.977V157.914H322.773V158.812H323.977V167.963H317.296V132.603H290.416V158.326H286.052V78.1932H282.823V80.256L276.865 81.7134V80.3737H273.636V82.5033L267.678 83.9602V82.4243H264.45V84.75L258.491 86.2075V84.9404H255.263V86.9973L249.305 88.4547V87.3627H246.076V166.055H241.533V124.102H224.709V149.901H207.46V127.901H205.335V120.676H206.597V119.95H201.015V117.678H200.42V119.95H198.635V108.289H198.188V119.95H195.863V120.676H197.231V127.901H185.848V144.683H174.766L168.978 166.055H157.365V96.274H141.989V93.7744H142.863V92.8972H131.217V93.7744H132.133V96.274V100.294V148.085H124.882V130.029H127.459V128.394H109.217V117.485H105.737V115.244H97.9693V117.485H91.6485V156.436H70.9128V127.548H53.4526V150.365H38.3006V164.965H27.3757V146.611H13.0083V162.259H0V173.336H13.0083H17.4045H24.5862H27.3757H38.3006H53.4526H58.5445H61.2707H70.9128H91.6485H97.9693H105.737H109.217H122.826H124.882H132.133H144.291H150.28H157.365H185.848H192.425H203.53H207.46H225.003H229.717H246.076H247.69H249.305H255.263H258.491H264.45H267.148H267.678H273.636H276.865H281.987H282.823H284.438H286.052H290.416H312.634H315.808H317.296H323.977H335.737H346.503H351.563H359.412H378.904H399.516H399.731H414.309H422.461H427.448H430.598H454.994H459.363H464.587H469.276H486.684H499.628H502.277H507.038H536V162.791H518.262Z" fill="url(#paint4_linear_1825_1253)"/>
</g>
<defs>
<linearGradient id="paint0_linear_1825_1253" x1="96.7337" y1="139.448" x2="96.7337" y2="43.6133" gradientUnits="userSpaceOnUse">
<stop stop-color="#403E40"/>
<stop offset="0.1275" stop-color="#4E4D4E"/>
<stop offset="0.3124" stop-color="#5A5A5A"/>
<stop offset="0.5479" stop-color="#626262"/>
<stop offset="1" stop-color="#646464"/>
</linearGradient>
<linearGradient id="paint1_linear_1825_1253" x1="85.3874" y1="43.6126" x2="85.3874" y2="42.1973" gradientUnits="userSpaceOnUse">
<stop stop-color="#403E40"/>
<stop offset="0.1275" stop-color="#4E4D4E"/>
<stop offset="0.3124" stop-color="#5A5A5A"/>
<stop offset="0.5479" stop-color="#626262"/>
<stop offset="1" stop-color="#646464"/>
</linearGradient>
<linearGradient id="paint2_linear_1825_1253" x1="273.221" y1="155.867" x2="273.221" y2="0.0617796" gradientUnits="userSpaceOnUse">
<stop stop-color="#403E40"/>
<stop offset="0.1275" stop-color="#4E4D4E"/>
<stop offset="0.3124" stop-color="#5A5A5A"/>
<stop offset="0.5479" stop-color="#626262"/>
<stop offset="1" stop-color="#646464"/>
</linearGradient>
<linearGradient id="paint3_linear_1825_1253" x1="452.93" y1="76.0847" x2="452.93" y2="77.5" gradientUnits="userSpaceOnUse">
<stop stop-color="white"/>
<stop offset="1" stop-color="#727272"/>
</linearGradient>
<linearGradient id="paint4_linear_1825_1253" x1="268" y1="77.5003" x2="268" y2="173.335" gradientUnits="userSpaceOnUse">
<stop stop-color="white"/>
<stop offset="1" stop-color="#7A7A7A"/>
</linearGradient>
</defs>
</svg>
